if (_typeface_js && _typeface_js.loadFace) _typeface_js.loadFace({"glyphs":{"1":{"ha":889,"x_min":143,"x_max":615,"o":"m 417 1014 l 615 1014 l 615 0 l 417 0 l 417 801 l 414 801 l 143 593 l 143 806 l 417 1014 z "},"2":{"ha":889,"x_min":114,"x_max":781,"o":"m 372 160 l 372 157 l 781 157 l 781 0 l 114 0 l 114 157 q 485 490 393 375 q 578 713 578 604 q 413 867 578 867 q 135 788 292 867 l 135 968 q 440 1028 272 1028 q 690 950 603 1028 q 778 732 778 872 q 695 481 778 601 q 372 160 613 360 z "},"3":{"ha":889,"x_min":111,"x_max":775,"o":"m 500 596 q 701 523 628 596 q 775 319 775 450 q 678 73 775 160 q 400 -14 581 -14 q 118 35 244 -14 l 118 208 q 392 143 263 143 q 533 188 483 143 q 583 317 583 232 q 527 428 583 394 q 329 463 471 463 l 246 463 l 246 601 l 524 854 l 524 857 l 111 857 l 111 1014 l 761 1014 l 761 857 l 476 599 l 476 596 l 500 596 z "},"4":{"ha":889,"x_min":18,"x_max":819,"o":"m 476 361 l 476 760 l 474 760 l 199 364 l 199 361 l 476 361 m 665 361 l 819 361 l 819 208 l 665 208 l 665 0 l 476 0 l 476 208 l 18 208 l 18 361 l 476 1014 l 665 1014 l 665 361 z "},"5":{"ha":889,"x_min":126,"x_max":790,"o":"m 475 657 q 708 575 625 657 q 790 343 790 493 q 383 -14 790 -14 q 126 31 244 -14 l 126 201 q 378 143 272 143 q 599 343 599 143 q 439 508 599 508 q 294 451 356 508 l 128 451 l 156 1014 l 747 1014 l 747 857 l 332 857 l 321 622 l 324 622 q 475 657 393 657 z "}," ":{"ha":394,"x_min":0,"x_max":0,"o":""},",":{"ha":489,"x_min":75,"x_max":400,"o":"m 168 236 l 400 236 l 242 -153 l 75 -153 l 168 236 z "},"A":{"ha":950,"x_min":33,"x_max":917,"o":"m 33 0 l 371 1014 l 579 1014 l 917 0 l 710 0 l 642 244 l 303 244 l 235 0 l 33 0 m 344 393 l 600 393 l 474 843 l 471 843 l 344 393 z "},"C":{"ha":881,"x_min":47,"x_max":778,"o":"m 246 507 q 328 238 246 333 q 544 142 410 142 q 778 183 651 142 l 778 17 q 524 -14 657 -14 q 176 122 304 -14 q 47 507 47 257 q 172 891 47 754 q 519 1028 296 1028 q 769 997 649 1028 l 769 831 q 540 871 647 871 q 324 776 403 871 q 246 507 246 682 z "},"E":{"ha":836,"x_min":110,"x_max":740,"o":"m 304 857 l 304 608 l 713 608 l 713 460 l 304 460 l 304 157 l 740 157 l 740 0 l 110 0 l 110 1014 l 740 1014 l 740 857 l 304 857 z "},"I":{"ha":489,"x_min":138,"x_max":351,"o":"m 138 0 l 138 1014 l 351 1014 l 351 0 l 138 0 z "},"M":{"ha":1164,"x_min":110,"x_max":1054,"o":"m 865 685 l 863 685 l 663 254 l 496 254 l 296 685 l 293 685 l 293 0 l 110 0 l 110 1014 l 301 1014 l 578 417 l 581 417 l 857 1014 l 1054 1014 l 1054 0 l 865 0 l 865 685 z "},"々":{"ha":1389,"x_min":76,"x_max":1169,"o":"m 438 354 l 560 483 q 746 335 654 413 q 979 746 921 543 l 560 746 q 225 260 428 476 l 76 364 q 514 1114 371 682 l 694 1081 q 631 903 665 988 l 1169 903 l 1169 746 q 879 214 1104 479 q 1072 18 978 121 l 935 -101 q 438 354 710 151 z "},"あ":{"ha":1389,"x_min":115,"x_max":1274,"o":"m 176 963 l 454 963 l 454 1121 l 625 1121 l 625 963 l 1213 963 l 1213 815 l 625 815 l 625 690 q 774 699 696 699 q 1143 594 1013 699 q 1274 310 1274 490 q 1165 41 1274 153 q 871 -107 1057 -71 l 824 51 q 1023 149 949 78 q 1097 310 1097 219 q 996 496 1097 438 q 732 103 900 244 q 385 -37 564 -37 q 189 35 263 -37 q 115 232 115 108 q 204 483 115 374 q 454 650 293 593 l 454 815 l 176 815 l 176 963 m 836 539 q 774 542 797 542 q 625 529 694 542 l 625 224 q 836 539 758 343 m 454 472 q 292 250 292 386 q 321 154 292 188 q 403 121 350 121 q 454 126 431 121 l 454 472 z "},"い":{"ha":1389,"x_min":143,"x_max":1278,"o":"m 917 933 l 1088 983 q 1278 83 1278 600 l 1093 83 q 1047 529 1093 307 q 917 933 1000 751 m 393 953 q 329 486 329 733 q 378 226 329 332 q 476 121 428 121 q 569 200 511 121 q 685 426 628 279 l 847 364 q 669 49 778 163 q 463 -65 561 -65 q 244 96 344 -65 q 143 486 143 257 q 213 974 143 747 l 393 953 z "},"か":{"ha":1389,"x_min":83,"x_max":1357,"o":"m 406 0 l 454 160 q 663 107 601 107 q 706 142 686 107 q 740 265 725 176 q 754 482 754 353 q 740 676 754 649 q 635 704 725 704 l 490 704 q 240 -76 399 313 l 83 -21 q 314 704 222 331 l 101 704 l 101 861 l 350 861 q 403 1140 382 1013 l 569 1125 q 524 861 551 994 l 615 861 q 722 861 686 861 q 800 853 757 861 q 859 839 843 844 q 897 807 875 833 q 922 760 918 781 q 933 685 926 739 q 940 588 940 632 q 940 454 940 543 q 875 61 940 188 q 699 -65 810 -65 q 560 -47 644 -65 q 406 0 475 -28 m 961 915 l 1129 965 q 1357 265 1268 617 l 1186 224 q 961 915 1094 583 z "},"ち":{"ha":1389,"x_min":135,"x_max":1254,"o":"m 135 788 l 135 944 l 440 944 q 468 1117 453 1007 l 643 1106 q 618 944 633 1024 l 1254 944 l 1254 788 l 581 788 q 501 556 544 658 l 503 553 q 788 611 653 611 q 1080 527 979 611 q 1181 288 1181 443 q 1041 28 1181 126 q 667 -69 901 -69 q 318 -32 490 -69 l 349 125 q 667 88 521 88 q 907 144 818 88 q 996 296 996 201 q 778 454 996 454 q 410 339 586 454 l 250 406 q 403 788 356 622 l 135 788 z "},"つ":{"ha":1389,"x_min":110,"x_max":1278,"o":"m 150 694 l 110 871 q 746 972 535 972 q 1278 528 1278 972 q 371 -28 1278 -28 l 357 149 q 909 238 739 149 q 1079 510 1079 328 q 994 724 1079 656 q 726 792 910 792 q 150 694 551 792 z "},"な":{"ha":1389,"x_min":61,"x_max":1319,"o":"m 1292 754 q 1053 778 1176 774 l 1053 332 q 1319 124 1174 257 l 1210 1 q 1044 139 1126 74 q 946 -26 1024 26 q 728 -79 868 -79 q 487 -8 574 -79 q 400 185 400 63 q 485 374 400 304 q 728 444 571 444 q 876 418 799 444 l 876 940 q 1313 913 1122 940 l 1292 754 m 93 782 l 93 940 l 331 940 q 379 1136 361 1058 l 546 1114 q 504 940 529 1033 l 736 940 l 736 782 l 463 782 q 222 86 358 415 l 61 140 q 286 782 189 456 l 93 782 m 876 253 q 728 294 794 294 q 613 265 651 294 q 575 185 575 236 q 615 100 575 131 q 728 69 656 69 q 844 104 813 69 q 876 236 876 139 l 876 253 z "},"ね":{"ha":1389,"x_min":57,"x_max":1351,"o":"m 93 899 l 351 899 l 351 1101 l 518 1101 l 518 783 q 730 927 638 886 q 913 968 822 968 q 1189 848 1100 968 q 1278 458 1278 728 q 1251 243 1278 342 q 1351 114 1311 171 l 1238 11 q 1179 88 1193 71 q 913 -46 1082 -46 q 712 23 789 -46 q 635 204 635 92 q 710 385 635 317 q 913 454 786 454 q 1096 394 1010 454 q 1097 458 1097 414 q 1053 722 1097 649 q 903 796 1008 796 q 744 742 833 796 q 518 553 654 689 l 518 -87 l 351 -87 l 351 376 q 179 178 293 313 l 57 290 q 351 624 208 474 l 351 750 l 93 750 l 93 899 m 1068 221 q 989 287 1021 271 q 917 303 957 303 q 828 276 861 303 q 796 206 796 249 q 828 134 796 161 q 913 107 860 107 q 1068 221 1028 107 z "},"の":{"ha":1389,"x_min":88,"x_max":1301,"o":"m 810 115 q 1043 233 961 135 q 1125 500 1125 332 q 1037 744 1125 644 q 807 863 949 843 q 728 420 774 599 q 628 149 683 242 q 517 19 574 56 q 389 -18 461 -18 q 182 111 276 -18 q 88 426 88 240 q 271 864 88 696 q 750 1032 454 1032 q 1145 882 989 1032 q 1301 500 1301 732 q 1178 113 1301 258 q 847 -51 1056 -33 l 810 115 m 624 854 q 360 708 456 822 q 264 426 264 594 q 307 239 264 321 q 389 157 350 157 q 429 176 408 157 q 476 244 450 194 q 526 371 501 294 q 577 572 551 447 q 624 854 603 697 z "},"ひ":{"ha":1389,"x_min":129,"x_max":1360,"o":"m 425 858 l 424 861 l 129 861 l 129 1018 l 646 1018 l 646 853 q 438 635 519 772 q 357 365 357 499 q 428 156 357 228 q 629 83 500 83 q 852 171 774 83 q 931 426 931 258 q 903 685 931 567 q 811 951 876 804 l 939 1058 q 1360 665 1135 838 l 1261 533 q 1063 703 1150 619 l 1061 701 q 1111 379 1111 535 q 982 47 1111 168 q 629 -74 853 -74 q 293 40 415 -74 q 171 357 171 154 q 238 618 171 485 q 425 858 306 751 z "},"ほ":{"ha":1389,"x_min":115,"x_max":1304,"o":"m 1288 879 l 1051 879 l 1051 726 l 1288 726 l 1288 574 l 1051 574 l 1051 325 q 1304 96 1153 253 l 1188 -18 q 1044 124 1114 61 q 954 -27 1025 25 q 774 -79 883 -79 q 535 -14 617 -79 q 454 176 454 51 q 531 352 454 288 q 774 417 607 417 q 876 407 829 417 l 876 574 l 501 574 l 501 726 l 876 726 l 876 879 l 501 879 l 501 1038 l 1288 1038 l 1288 879 m 358 1054 q 292 500 292 800 q 358 -54 292 200 l 185 -75 q 115 500 115 190 q 185 1075 115 810 l 358 1054 m 876 240 q 765 261 828 261 q 659 240 692 261 q 626 176 626 219 q 756 79 626 79 q 847 111 818 79 q 876 213 876 143 l 876 240 z "},"め":{"ha":1389,"x_min":88,"x_max":1301,"o":"m 997 881 q 1221 705 1140 822 q 1301 435 1301 588 q 1185 81 1301 213 q 853 -79 1068 -50 l 810 83 q 1044 192 964 103 q 1125 435 1125 281 q 1078 599 1125 526 q 943 711 1031 671 q 653 160 813 344 q 343 -24 493 -24 q 160 73 233 -24 q 88 343 88 169 q 147 603 88 485 q 314 803 207 722 q 254 1046 288 904 l 421 1079 q 468 886 449 963 q 722 931 585 931 q 833 924 775 931 q 889 1131 861 1015 l 1056 1094 q 997 881 1042 1038 m 776 753 q 722 754 758 754 q 514 718 607 754 q 614 396 558 560 q 776 753 700 544 m 496 232 q 365 622 421 435 q 254 343 254 511 q 285 199 254 250 q 361 149 317 149 q 496 232 419 149 z "},"り":{"ha":1389,"x_min":246,"x_max":1194,"o":"m 246 1060 l 426 1060 l 426 788 l 428 788 q 824 1032 579 1032 q 1095 912 996 1032 q 1194 574 1194 792 q 1001 78 1194 235 q 389 -79 808 -79 l 379 88 q 860 199 721 88 q 1000 574 1000 310 q 950 785 1000 714 q 806 857 900 857 q 545 711 663 857 q 421 356 428 565 l 246 357 l 246 1060 z "},"る":{"ha":1389,"x_min":135,"x_max":1233,"o":"m 890 101 q 1039 317 1039 160 q 972 461 1039 413 q 757 510 904 510 q 483 477 611 510 q 199 367 354 444 l 135 494 l 783 888 l 783 889 l 229 889 l 229 1042 l 1114 1042 l 1115 885 l 660 632 l 661 631 q 831 649 753 649 q 1131 567 1029 649 q 1233 333 1233 485 q 1090 28 1233 136 q 683 -79 947 -79 q 374 -16 476 -79 q 271 167 271 47 q 358 322 271 258 q 600 385 446 385 q 829 332 758 385 q 900 176 900 279 q 890 101 900 139 m 719 71 q 743 157 743 122 q 710 223 743 200 q 590 246 676 246 q 484 223 521 246 q 447 167 447 200 q 683 69 447 69 q 701 70 689 69 q 719 71 714 71 z "},"ろ":{"ha":1389,"x_min":125,"x_max":1225,"o":"m 1093 871 l 636 614 l 638 613 q 813 635 736 635 q 1122 558 1019 635 q 1225 338 1225 481 q 1083 42 1225 144 q 664 -60 942 -60 q 360 -44 515 -60 l 357 122 q 650 107 496 107 q 1021 322 1021 107 q 956 451 1021 408 q 739 493 890 493 q 190 335 497 493 l 125 463 l 769 878 l 769 879 l 243 879 l 243 1032 l 1090 1032 l 1093 871 z "},"ァ":{"ha":1389,"x_min":263,"x_max":1168,"o":"m 263 653 l 263 800 l 1168 800 l 1168 653 q 1057 447 1138 546 q 871 288 976 349 l 771 414 q 989 653 940 519 l 263 653 m 313 68 q 451 168 404 113 q 519 316 499 224 q 539 572 539 408 l 706 572 q 676 259 706 378 q 583 66 647 140 q 400 -67 519 -8 l 313 68 z "},"ア":{"ha":1389,"x_min":157,"x_max":1282,"o":"m 157 847 l 157 1010 l 1282 1010 l 1282 847 q 1142 588 1242 711 q 910 389 1043 465 l 801 532 q 1083 847 1021 664 l 157 847 m 518 736 l 704 736 q 667 343 704 493 q 550 99 631 193 q 321 -64 469 6 l 225 85 q 457 299 396 165 q 518 736 518 433 z "},"ィ":{"ha":1389,"x_min":232,"x_max":1161,"o":"m 232 439 q 689 576 467 471 q 1063 831 911 681 l 1161 711 q 844 482 1028 582 l 844 -68 l 665 -68 l 665 397 q 257 285 463 314 l 232 439 z "},"イ":{"ha":1389,"x_min":119,"x_max":1272,"o":"m 119 556 q 692 728 414 596 q 1158 1049 971 861 l 1272 918 q 871 626 1108 756 l 871 -69 l 671 -69 l 671 531 q 149 385 414 422 l 119 556 z "},"オ":{"ha":1389,"x_min":132,"x_max":1282,"o":"m 135 903 l 819 903 l 819 1111 l 1000 1111 l 1000 903 l 1282 903 l 1282 740 l 1000 740 l 1000 185 q 994 63 1000 103 q 962 -4 989 22 q 895 -36 935 -31 q 774 -42 856 -42 q 542 -28 683 -42 l 551 136 q 754 122 689 122 q 808 133 797 122 q 819 188 819 144 l 819 564 q 215 111 529 290 l 132 258 q 768 740 468 447 l 135 740 l 135 903 z "},"カ":{"ha":1389,"x_min":146,"x_max":1204,"o":"m 500 1111 l 681 1111 q 676 903 681 1000 l 1204 903 l 1204 760 q 1196 406 1204 546 q 1172 175 1188 265 q 1124 40 1156 85 q 1053 -22 1092 -6 q 954 -37 1015 -37 q 668 -18 863 -37 l 683 150 q 899 136 826 136 q 965 169 943 136 q 998 316 986 201 q 1010 669 1010 431 l 1010 736 l 665 736 q 544 260 638 439 q 263 -64 451 82 l 146 64 q 381 331 304 185 q 485 736 458 476 l 157 736 l 157 903 l 496 903 q 500 1111 500 999 z "},"キ":{"ha":1389,"x_min":118,"x_max":1271,"o":"m 546 1088 l 740 1103 l 760 874 l 1210 890 l 1215 724 l 775 707 l 800 417 l 1265 432 l 1271 265 l 814 250 l 843 -87 l 649 -103 l 618 244 l 124 228 l 118 394 l 604 410 l 579 701 l 179 688 l 174 853 l 565 867 l 546 1088 z "},"サ":{"ha":1389,"x_min":88,"x_max":1301,"o":"m 88 851 l 315 851 l 315 1088 l 496 1088 l 496 851 l 885 851 l 885 1088 l 1074 1088 l 1074 851 l 1301 851 l 1301 685 l 1074 685 l 1074 607 q 919 120 1074 274 q 394 -65 765 -33 l 360 101 q 776 237 668 132 q 885 607 885 342 l 885 685 l 496 685 l 496 403 l 315 403 l 315 685 l 88 685 l 88 851 z "},"シ":{"ha":1389,"x_min":153,"x_max":1292,"o":"m 208 121 q 846 325 646 158 q 1115 881 1046 492 l 1292 851 q 969 195 1213 403 q 236 -56 726 -12 l 208 121 m 153 567 l 186 732 q 644 643 368 701 l 610 479 q 153 567 361 532 m 217 903 l 251 1069 q 724 982 472 1033 l 689 815 q 217 903 438 867 z "},"テ":{"ha":1389,"x_min":97,"x_max":1292,"o":"m 260 865 l 260 1032 l 1129 1032 l 1129 865 l 260 865 m 97 657 l 1292 657 l 1292 490 l 838 490 q 717 114 836 251 q 344 -79 599 -24 l 290 88 q 563 226 483 135 q 643 490 642 317 l 97 490 l 97 657 z "},"ト":{"ha":1389,"x_min":315,"x_max":1265,"o":"m 315 1074 l 510 1074 l 510 685 q 1265 453 871 597 l 1207 278 q 510 494 860 407 l 510 -74 l 315 -74 l 315 1074 z "},"ナ":{"ha":1389,"x_min":107,"x_max":1282,"o":"m 107 833 l 643 833 l 643 1093 l 838 1093 l 838 833 l 1282 833 l 1282 657 l 838 657 l 838 625 q 707 153 838 315 q 283 -65 576 -8 l 225 107 q 551 267 458 153 q 643 625 643 381 l 643 657 l 107 657 l 107 833 z "},"ニ":{"ha":1389,"x_min":135,"x_max":1254,"o":"m 232 810 l 232 990 l 1157 990 l 1157 810 l 232 810 m 135 10 l 135 190 l 1254 190 l 1254 10 l 135 10 z "},"ヒ":{"ha":1389,"x_min":215,"x_max":1225,"o":"m 215 1046 l 404 1046 l 404 690 q 1176 883 792 754 l 1225 718 q 404 515 817 582 l 404 296 q 436 166 404 197 q 567 135 468 135 q 1196 156 894 135 l 1201 -17 q 553 -37 864 -37 q 288 35 361 -37 q 215 301 215 107 l 215 1046 z "},"フ":{"ha":1389,"x_min":167,"x_max":1232,"o":"m 167 996 l 1232 996 l 1232 963 q 1008 237 1232 481 q 315 -51 785 -7 l 282 121 q 828 319 651 157 q 1032 819 1006 482 l 167 819 l 167 996 z "},"マ":{"ha":1389,"x_min":135,"x_max":1254,"o":"m 135 838 l 135 1010 l 1254 1010 l 1254 838 q 719 244 1133 468 q 874 17 811 111 l 710 -86 q 293 507 503 226 l 453 614 q 610 400 517 529 q 884 599 765 481 q 1053 838 1003 717 l 135 838 z "},"ャ":{"ha":1389,"x_min":193,"x_max":1182,"o":"m 401 838 l 576 867 l 614 657 l 1151 764 l 1182 606 q 1093 383 1156 493 q 947 196 1031 272 l 815 301 q 997 568 940 425 l 642 497 l 739 -51 l 564 -81 l 468 463 l 222 414 l 193 572 l 439 621 l 401 838 z "},"ル":{"ha":1389,"x_min":68,"x_max":1347,"o":"m 315 1046 l 504 1046 l 504 764 q 472 326 504 482 q 372 85 440 169 q 168 -64 304 1 l 68 92 q 175 158 136 126 q 245 233 214 189 q 290 349 276 278 q 309 516 303 421 q 315 764 315 611 l 315 1046 m 878 143 q 1081 287 1011 178 q 1171 603 1151 396 l 1347 578 q 718 -51 1292 -51 l 685 -51 l 685 1046 l 878 1046 l 878 143 z "},"ワ":{"ha":1389,"x_min":163,"x_max":1232,"o":"m 163 1010 l 1232 1010 l 1232 713 q 1024 160 1232 353 q 385 -56 815 -33 l 358 115 q 884 280 726 139 q 1042 713 1042 421 l 1042 833 l 347 833 l 347 496 l 163 496 l 163 1010 z "},"ン":{"ha":1389,"x_min":178,"x_max":1292,"o":"m 178 875 l 267 1042 q 697 818 476 942 l 604 654 q 178 875 418 758 m 1115 908 l 1292 869 q 958 235 1218 457 q 236 -28 699 13 l 208 153 q 827 373 611 192 q 1115 908 1043 554 z "},"ー":{"ha":1389,"x_min":121,"x_max":1268,"o":"m 121 407 l 121 593 l 1268 593 l 1268 407 l 121 407 z "},"一":{"ha":1389,"x_min":65,"x_max":1324,"o":"m 65 440 l 65 625 l 1324 625 l 1324 440 l 65 440 z "},"丈":{"ha":1389,"x_min":68,"x_max":1321,"o":"m 1321 46 l 1254 -115 q 647 144 906 -49 q 146 -115 496 -6 l 68 36 q 340 144 235 92 q 511 261 446 196 q 274 614 353 418 l 440 682 q 608 406 506 524 q 669 760 661 528 l 93 760 l 93 921 l 671 921 l 671 1129 l 861 1129 l 861 921 l 1296 921 l 1296 760 l 858 760 q 749 276 846 447 q 1321 46 963 118 z "},"三":{"ha":1389,"x_min":93,"x_max":1296,"o":"m 93 -39 l 93 128 l 1296 128 l 1296 -39 l 93 -39 m 181 872 l 181 1039 l 1208 1039 l 1208 872 l 181 872 m 264 451 l 264 614 l 1125 614 l 1125 451 l 264 451 z "},"上":{"ha":1389,"x_min":69,"x_max":1319,"o":"m 740 1107 l 740 747 l 1246 747 l 1246 590 l 740 590 l 740 79 l 1319 79 l 1319 -83 l 69 -83 l 69 79 l 551 79 l 551 1107 l 740 1107 z "},"下":{"ha":1389,"x_min":69,"x_max":1319,"o":"m 69 1083 l 1319 1083 l 1319 921 l 740 921 l 740 758 q 1247 463 965 646 l 1149 318 q 740 567 921 469 l 740 -107 l 551 -107 l 551 921 l 69 921 l 69 1083 z "},"丞":{"ha":1389,"x_min":38,"x_max":1351,"o":"m 594 121 q 379 128 553 121 l 371 281 q 558 274 524 274 q 613 282 604 274 q 621 338 621 290 l 621 838 l 688 838 q 899 944 796 886 l 218 944 l 218 1093 l 1171 1093 l 1171 944 q 842 751 1029 846 q 938 613 875 692 q 1210 818 1079 696 l 1325 706 q 1046 492 1189 575 q 1351 258 1188 353 l 1236 121 q 806 538 999 274 l 806 347 q 801 224 806 264 q 771 158 796 183 q 709 126 746 132 q 594 121 672 121 m 86 625 l 86 774 l 563 774 l 563 625 q 135 125 419 308 l 38 268 q 247 436 156 342 q 385 625 338 531 l 86 625 m 76 -93 l 76 60 l 1313 60 l 1313 -93 l 76 -93 z "},"中":{"ha":1389,"x_min":104,"x_max":1285,"o":"m 281 431 l 600 431 l 600 761 l 281 761 l 281 431 m 281 278 l 281 199 l 104 199 l 104 919 l 600 919 l 600 1143 l 789 1143 l 789 919 l 1285 919 l 1285 199 l 1108 199 l 1108 278 l 789 278 l 789 -143 l 600 -143 l 600 278 l 281 278 m 1108 431 l 1108 761 l 789 761 l 789 431 l 1108 431 z "},"主":{"ha":1389,"x_min":83,"x_max":1306,"o":"m 789 65 l 1306 65 l 1306 -93 l 83 -93 l 83 65 l 600 65 l 600 343 l 208 343 l 208 496 l 600 496 l 600 732 l 111 732 l 111 889 l 918 889 q 385 1006 674 965 l 438 1160 q 1004 1035 718 1124 l 947 889 l 1278 889 l 1278 732 l 789 732 l 789 496 l 1181 496 l 1181 343 l 789 343 l 789 65 z "},"乃":{"ha":1389,"x_min":81,"x_max":1292,"o":"m 1292 699 q 1284 354 1292 489 q 1260 127 1276 219 q 1210 -10 1243 35 q 1134 -73 1176 -56 q 1024 -90 1092 -90 q 729 -72 936 -90 l 725 97 q 986 79 913 79 q 1051 114 1026 79 q 1091 254 1075 149 q 1107 546 1107 360 l 950 546 q 918 460 940 515 l 749 494 q 864 906 822 686 l 604 906 q 501 273 590 497 q 201 -126 411 49 l 81 6 q 267 209 200 104 q 373 481 335 314 q 419 906 411 647 l 100 906 l 100 1067 l 1039 1067 l 1039 906 q 996 699 1019 789 l 1292 699 z "},"久":{"ha":1389,"x_min":72,"x_max":1354,"o":"m 919 440 q 1354 28 1078 190 l 1261 -119 q 808 292 983 33 q 149 -119 582 33 l 72 35 q 619 351 431 164 q 883 831 808 539 l 517 831 q 210 401 394 594 l 85 522 q 458 1144 340 797 l 633 1121 q 588 989 614 1054 l 1079 989 l 1079 831 q 919 440 1025 610 z "},"之":{"ha":1389,"x_min":46,"x_max":1324,"o":"m 1226 58 l 1324 58 l 1315 -100 l 1226 -100 q 634 -29 832 -100 q 343 201 436 42 q 199 -121 293 28 l 46 -28 q 246 463 186 204 l 407 463 q 468 311 433 372 q 1029 768 814 481 l 156 768 l 156 926 l 600 926 l 600 1142 l 789 1142 l 789 926 l 1233 926 l 1233 768 q 581 182 997 392 q 823 86 671 114 q 1226 58 975 58 z "},"乗":{"ha":1389,"x_min":35,"x_max":1354,"o":"m 789 736 l 789 646 l 971 646 l 971 736 l 789 736 m 600 736 l 418 736 l 418 646 l 600 646 l 600 736 m 789 397 l 971 397 l 971 493 l 789 493 l 789 397 m 600 397 l 600 493 l 418 493 l 418 397 l 600 397 m 171 1069 q 1217 1135 800 1069 l 1238 990 q 789 947 1046 961 l 789 874 l 1282 874 l 1282 736 l 1146 736 l 1146 646 l 1324 646 l 1324 493 l 1146 493 l 1146 397 l 1268 397 l 1268 261 l 900 261 q 1354 42 1082 140 l 1281 -112 q 789 163 979 10 l 789 -129 l 600 -129 l 600 163 q 108 -112 410 10 l 35 42 q 489 261 307 140 l 121 261 l 121 397 l 243 397 l 243 493 l 65 493 l 65 646 l 243 646 l 243 736 l 107 736 l 107 874 l 600 874 l 600 939 q 171 931 396 931 l 171 1069 z "},"也":{"ha":1389,"x_min":26,"x_max":1333,"o":"m 632 838 l 632 1135 l 813 1135 l 813 874 l 1250 963 l 1250 871 q 1240 566 1250 679 q 1205 392 1231 453 q 1145 313 1179 332 q 1051 294 1111 294 q 893 303 992 294 l 885 461 q 1010 451 975 451 q 1035 458 1026 451 q 1051 494 1043 464 q 1062 586 1058 525 q 1068 758 1065 647 l 813 706 l 813 222 l 632 222 l 632 668 l 440 629 l 440 146 q 452 69 440 82 q 522 51 464 56 q 733 44 631 44 q 957 51 818 44 q 1028 55 1008 54 q 1076 67 1049 56 q 1109 86 1103 78 q 1127 128 1115 94 q 1142 189 1139 161 q 1153 285 1144 217 l 1333 247 q 1319 113 1325 161 q 1295 20 1313 64 q 1260 -42 1278 -24 q 1199 -77 1242 -61 q 1111 -98 1157 -93 q 985 -107 1065 -103 q 715 -114 842 -114 q 476 -107 606 -114 q 386 -100 417 -103 q 326 -86 356 -97 q 285 -63 296 -75 q 266 -19 275 -51 q 256 45 257 13 q 254 142 254 78 l 254 590 l 53 549 l 26 715 l 254 761 l 254 1063 l 440 1063 l 440 799 l 632 838 z "},"二":{"ha":1389,"x_min":86,"x_max":1303,"o":"m 86 3 l 86 174 l 1303 174 l 1303 3 l 86 3 m 215 826 l 215 997 l 1174 997 l 1174 826 l 215 826 z "},"五":{"ha":1389,"x_min":69,"x_max":1319,"o":"m 622 483 l 556 104 l 917 104 l 917 483 l 622 483 m 139 1053 l 1250 1053 l 1250 896 l 694 896 l 649 636 l 1101 636 l 1101 104 l 1319 104 l 1319 -53 l 69 -53 l 69 104 l 367 104 l 432 483 l 226 483 l 226 636 l 458 636 l 504 896 l 139 896 l 139 1053 z "},"井":{"ha":1389,"x_min":60,"x_max":1329,"o":"m 544 414 l 889 414 l 889 739 l 556 739 l 556 715 q 544 414 556 525 m 371 1125 l 556 1125 l 556 896 l 889 896 l 889 1125 l 1074 1125 l 1074 896 l 1319 896 l 1319 739 l 1074 739 l 1074 414 l 1329 414 l 1329 257 l 1074 257 l 1074 -121 l 889 -121 l 889 257 l 521 257 q 428 43 492 129 q 243 -133 365 -43 l 119 0 q 256 122 208 65 q 329 257 303 178 l 60 257 l 60 414 l 360 414 q 371 715 371 519 l 371 739 l 69 739 l 69 896 l 371 896 l 371 1125 z "},"亜":{"ha":1389,"x_min":69,"x_max":1319,"o":"m 954 390 l 1088 390 l 1088 635 l 954 635 l 954 390 m 615 390 l 774 390 l 774 635 l 615 635 l 615 390 m 615 251 l 615 60 l 774 60 l 774 251 l 615 251 m 615 774 l 774 774 l 774 940 l 615 940 l 615 774 m 301 390 l 435 390 l 435 635 l 301 635 l 301 390 m 83 1093 l 1306 1093 l 1306 940 l 954 940 l 954 774 l 1250 774 l 1250 251 l 954 251 l 954 60 l 1319 60 l 1319 -93 l 69 -93 l 69 60 l 435 60 l 435 251 l 301 251 l 139 251 l 139 774 l 435 774 l 435 940 l 83 940 l 83 1093 z "},"京":{"ha":1389,"x_min":49,"x_max":1342,"o":"m 379 490 l 1010 490 l 1010 683 l 379 683 l 379 490 m 504 232 q 156 -94 364 47 l 49 33 q 381 339 240 164 l 504 232 m 876 210 l 989 338 q 1342 21 1182 193 l 1224 -100 q 876 210 1064 68 m 1324 1038 l 1324 889 l 65 889 l 65 1038 l 600 1038 l 600 1143 l 789 1143 l 789 1038 l 1324 1038 m 586 -121 q 389 -114 515 -121 l 381 44 q 553 38 496 38 q 606 46 597 38 q 614 101 614 54 l 614 354 l 379 354 l 194 354 l 194 817 l 1194 817 l 1194 354 l 803 354 l 803 107 q 801 17 803 50 q 790 -44 799 -15 q 769 -85 781 -72 q 730 -108 757 -99 q 672 -119 703 -117 q 586 -121 640 -121 z "},"亮":{"ha":1389,"x_min":63,"x_max":1326,"o":"m 417 664 l 972 664 l 972 736 l 417 736 l 417 664 m 417 556 l 232 556 l 232 849 l 1157 849 l 1157 556 l 417 556 m 789 1046 l 1326 1046 l 1326 899 l 63 899 l 63 1046 l 600 1046 l 600 1157 l 789 1157 l 789 1046 m 1282 215 l 1108 215 l 1108 371 l 281 371 l 281 201 l 107 201 l 107 507 l 1282 507 l 1282 215 m 451 338 l 629 322 q 499 39 614 147 q 149 -125 383 -69 l 69 25 q 349 140 267 71 q 451 338 432 208 m 753 331 l 938 331 l 938 93 q 952 53 938 60 q 1042 46 967 46 q 1124 64 1111 46 q 1143 185 1138 82 l 1319 171 q 1312 58 1315 96 q 1294 -18 1308 19 q 1267 -69 1281 -56 q 1215 -93 1253 -82 q 1138 -106 1176 -104 q 1024 -107 1100 -107 q 875 -103 924 -107 q 796 -78 826 -99 q 759 -29 765 -58 q 753 61 753 0 l 753 331 z "},"人":{"ha":1389,"x_min":44,"x_max":1344,"o":"m 44 29 q 600 972 600 324 l 600 1129 l 789 1129 l 789 972 q 1344 29 789 324 l 1242 -115 q 924 138 1065 -28 q 703 515 782 304 q 475 138 621 304 q 147 -115 329 -28 l 44 29 z "},"仁":{"ha":1389,"x_min":15,"x_max":1306,"o":"m 347 790 l 347 -129 l 169 -129 l 169 469 q 68 325 118 382 l 15 542 q 257 1135 188 779 l 428 1104 q 347 790 401 939 m 486 799 l 486 969 l 1260 969 l 1260 799 l 486 799 m 421 -39 l 421 132 l 1306 132 l 1306 -39 l 421 -39 z "},"今":{"ha":1389,"x_min":28,"x_max":1361,"o":"m 1060 719 l 1060 629 l 329 629 l 329 719 q 100 589 225 651 l 28 740 q 578 1129 340 906 l 811 1129 q 1361 740 1049 906 l 1289 589 q 1060 719 1164 651 m 971 781 q 694 1011 822 885 q 418 781 567 885 l 971 781 m 153 361 l 153 517 l 1236 517 l 1236 361 q 594 -139 992 58 l 500 4 q 1013 361 815 160 l 153 361 z "},"介":{"ha":1389,"x_min":28,"x_max":1361,"o":"m 694 1011 q 100 589 440 764 l 28 740 q 578 1129 340 906 l 811 1129 q 1361 740 1049 906 l 1289 589 q 694 1011 949 764 m 347 699 l 532 699 l 532 588 q 500 246 532 375 q 396 33 468 117 q 188 -125 324 -51 l 82 22 q 244 140 189 78 q 323 306 299 203 q 347 588 347 408 l 347 699 m 878 -111 l 878 699 l 1067 699 l 1067 -111 l 878 -111 z "},"仙":{"ha":1389,"x_min":15,"x_max":1319,"o":"m 333 729 l 333 -129 l 160 -129 l 160 456 q 72 333 110 375 l 15 542 q 271 1135 200 782 l 442 1104 q 333 729 406 893 m 1149 808 l 1319 808 l 1319 -114 l 1149 -114 l 1149 -21 l 615 -21 l 615 -114 l 444 -114 l 444 808 l 615 808 l 615 142 l 792 142 l 792 1128 l 972 1128 l 972 142 l 1149 142 l 1149 808 z "},"伊":{"ha":1389,"x_min":10,"x_max":1378,"o":"m 336 749 l 336 -129 l 157 -129 l 157 460 q 68 333 110 382 l 10 542 q 261 1135 192 781 l 433 1104 q 336 749 403 910 m 951 482 l 1118 482 l 1118 632 l 956 632 l 956 607 q 951 482 956 542 m 775 632 l 392 632 l 392 785 l 775 785 l 775 928 l 468 928 l 468 1072 l 1294 1072 l 1294 785 l 1378 785 l 1378 632 l 1294 632 l 1294 257 l 1118 257 l 1118 336 l 931 336 q 593 -129 860 -7 l 482 7 q 659 144 596 68 q 750 336 722 219 l 440 336 l 440 482 l 771 482 q 775 607 775 540 l 775 632 m 1118 928 l 956 928 l 956 785 l 1118 785 l 1118 928 z "},"伏":{"ha":1389,"x_min":13,"x_max":1347,"o":"m 336 767 l 336 -129 l 163 -129 l 163 461 q 65 325 113 379 l 13 542 q 254 1135 185 779 l 426 1104 q 336 767 399 929 m 965 1046 l 1075 1161 q 1317 940 1199 1058 l 1214 833 l 1324 833 l 1324 671 l 953 671 q 1347 15 1003 244 l 1239 -129 q 1019 81 1118 -51 q 857 376 919 213 q 692 84 793 217 q 469 -129 590 -49 l 351 15 q 750 671 699 243 l 396 671 l 396 833 l 760 833 l 760 1115 l 944 1115 l 944 833 l 1197 833 q 965 1046 1074 957 z "},"伴":{"ha":1389,"x_min":10,"x_max":1350,"o":"m 336 749 l 336 -129 l 157 -129 l 157 460 q 68 333 110 382 l 10 542 q 261 1135 192 781 l 433 1104 q 336 749 403 910 m 604 1075 q 743 732 681 913 l 588 676 q 449 1018 525 849 l 604 1075 m 1349 1033 q 1208 675 1293 854 l 1053 732 q 1186 1083 1138 918 l 1349 1033 m 1350 350 l 1350 193 l 999 193 l 999 -129 l 807 -129 l 807 193 l 397 193 l 397 350 l 807 350 l 807 510 l 425 510 l 425 663 l 808 663 l 808 1129 l 997 1129 l 997 663 l 1318 663 l 1318 510 l 999 510 l 999 350 l 1350 350 z "},"佐":{"ha":1389,"x_min":15,"x_max":1333,"o":"m 694 419 q 506 65 619 238 l 865 65 l 865 419 l 694 419 m 426 796 l 426 954 l 657 954 q 676 1139 669 1032 l 861 1129 q 842 954 856 1053 l 1326 954 l 1326 796 l 813 796 q 751 572 789 686 l 1292 572 l 1292 419 l 1051 419 l 1051 65 l 1333 65 l 1333 -93 l 472 -93 l 472 17 l 350 104 l 350 -129 l 171 -129 l 171 472 q 82 347 126 399 l 15 540 q 278 1135 204 775 l 446 1108 q 350 756 413 911 l 350 158 q 626 796 544 440 l 426 796 z "},"佑":{"ha":1389,"x_min":15,"x_max":1340,"o":"m 736 413 l 736 83 l 1125 83 l 1125 413 l 736 413 m 747 1149 l 933 1136 q 913 989 929 1086 l 1340 989 l 1340 831 l 879 831 q 789 565 844 696 l 1306 565 l 1306 -129 l 1125 -129 l 1125 -65 l 736 -65 l 736 -129 l 560 -129 l 560 233 q 431 83 494 144 l 343 242 l 343 -129 l 169 -129 l 169 465 q 71 325 119 379 l 15 542 q 257 1135 188 779 l 428 1104 q 343 778 397 919 l 343 261 q 688 831 583 475 l 424 831 l 424 989 l 724 989 q 747 1149 740 1075 z "},"佳":{"ha":1389,"x_min":15,"x_max":1343,"o":"m 350 756 l 350 -129 l 171 -129 l 171 472 q 82 347 126 399 l 15 540 q 278 1135 204 775 l 446 1108 q 350 756 413 911 m 968 711 l 1329 711 l 1329 563 l 421 563 l 421 711 l 782 711 l 782 871 l 465 871 l 465 1014 l 782 1014 l 782 1146 l 968 1146 l 968 1014 l 1285 1014 l 1285 871 l 968 871 l 968 711 m 968 56 l 1343 56 l 1343 -93 l 407 -93 l 407 56 l 782 56 l 782 246 l 451 246 l 451 389 l 782 389 l 782 525 l 968 525 l 968 389 l 1299 389 l 1299 246 l 968 246 l 968 56 z "},"依":{"ha":1389,"x_min":15,"x_max":1361,"o":"m 726 840 l 403 840 l 403 976 q 343 778 376 864 l 343 439 q 568 612 476 517 q 726 840 660 707 m 1361 38 l 1278 -125 q 991 225 1110 -8 q 844 732 872 458 q 729 549 793 631 l 729 94 q 983 169 856 125 l 994 18 q 422 -121 707 -83 l 404 32 q 558 57 488 43 l 558 374 q 393 260 489 318 l 343 406 l 343 -129 l 169 -129 l 169 465 q 71 325 119 379 l 15 542 q 257 1135 188 779 l 428 1104 q 407 996 419 1047 l 781 996 l 781 1149 l 965 1149 l 965 996 l 1333 996 l 1333 840 l 993 840 q 1053 518 1014 656 q 1229 725 1150 618 l 1347 614 q 1114 353 1244 479 q 1361 38 1199 172 z "},"俊":{"ha":1389,"x_min":13,"x_max":1354,"o":"m 892 181 q 1063 319 1001 243 l 717 319 q 892 181 781 243 m 947 1079 l 1104 1139 q 1340 824 1240 979 l 1183 754 q 1143 817 1146 813 q 1089 812 1124 815 q 1038 807 1054 808 l 1038 669 q 1046 639 1038 643 q 1104 635 1054 635 q 1161 647 1153 635 q 1174 732 1169 658 l 1339 715 q 1334 644 1336 668 q 1326 592 1332 621 q 1315 553 1319 564 q 1295 528 1311 542 q 1267 510 1279 514 q 1224 502 1254 507 q 1168 497 1194 497 q 1093 497 1142 497 q 963 499 1004 497 q 894 515 921 501 q 862 547 867 528 q 857 606 857 565 l 857 793 q 813 790 842 792 q 769 788 783 789 q 475 447 728 568 l 371 588 q 586 776 546 642 q 410 771 529 774 l 400 906 q 333 722 371 808 l 333 -129 l 160 -129 l 160 456 q 71 333 104 371 l 13 542 q 274 1135 203 783 l 444 1104 q 403 919 428 1008 l 519 924 q 658 1156 613 1069 l 836 1122 q 721 932 786 1031 q 1044 954 822 938 q 947 1079 976 1044 m 371 268 q 563 408 468 321 q 700 565 657 494 l 874 521 q 822 451 856 492 l 1269 451 l 1269 319 q 1047 108 1192 206 q 1354 24 1176 60 l 1304 -125 q 882 17 1069 -76 q 399 -125 671 -81 l 360 21 q 729 107 569 51 q 589 225 651 160 q 468 142 528 178 l 371 268 z "},"保":{"ha":1389,"x_min":15,"x_max":1361,"o":"m 329 743 l 329 -129 l 150 -129 l 150 449 q 64 326 97 363 l 15 542 q 257 1135 188 779 l 428 1104 q 329 743 394 904 m 650 747 l 1093 747 l 1093 951 l 650 951 l 650 747 m 686 368 l 413 368 l 413 517 l 774 517 l 774 604 l 650 604 l 469 604 l 469 1100 l 1274 1100 l 1274 604 l 958 604 l 958 517 l 1324 517 l 1324 368 l 1042 368 q 1361 75 1165 210 l 1285 -81 q 958 250 1090 67 l 958 -128 l 774 -128 l 774 244 q 451 -78 644 69 l 365 81 q 686 368 567 218 z "},"倉":{"ha":1389,"x_min":28,"x_max":1361,"o":"m 560 956 l 829 956 q 694 1038 783 982 q 560 956 606 982 m 464 904 q 257 808 381 863 l 1132 808 q 922 907 1024 854 l 922 847 l 464 847 l 464 904 m 385 511 l 385 486 l 385 447 l 992 447 l 992 511 l 385 511 m 385 619 l 992 619 l 992 682 l 385 682 l 385 619 m 808 1146 q 1361 889 1053 1000 l 1319 735 q 1176 789 1201 778 l 1176 329 l 374 329 q 364 271 369 294 l 1215 271 l 1215 -135 l 1031 -135 l 1031 -83 l 468 -83 l 468 -135 l 290 -135 l 290 104 q 154 -124 244 -26 l 32 17 q 167 255 126 125 q 208 579 208 385 l 208 788 q 69 735 117 751 l 28 889 q 581 1146 336 1000 l 808 1146 m 1031 44 l 1031 139 l 468 139 l 468 44 l 1031 44 z "},"倖":{"ha":1389,"x_min":8,"x_max":1347,"o":"m 331 739 l 331 -129 l 156 -129 l 156 460 q 65 333 113 388 l 8 542 q 264 1135 194 781 l 435 1104 q 331 739 403 907 m 964 454 q 1046 660 1008 551 l 713 660 q 768 454 751 524 l 964 454 m 781 306 l 371 306 l 371 454 l 582 454 q 525 660 557 549 l 374 660 l 374 808 l 781 808 l 781 914 l 443 914 l 443 1053 l 781 1053 l 781 1150 l 965 1150 l 965 1053 l 1296 1053 l 1296 914 l 965 914 l 965 808 l 1347 808 l 1347 660 l 1231 660 q 1153 454 1189 536 l 1347 454 l 1347 306 l 965 306 l 965 188 l 1315 188 l 1315 49 l 965 49 l 965 -136 l 781 -136 l 781 49 l 407 49 l 407 188 l 781 188 l 781 306 z "},"健":{"ha":1389,"x_min":7,"x_max":1350,"o":"m 1031 656 l 1129 656 l 1129 724 l 1031 724 l 1031 656 m 606 119 q 850 44 693 57 l 850 119 l 606 119 m 1031 931 l 1031 865 l 1129 865 l 1129 931 l 1031 931 m 553 167 q 594 129 567 151 l 594 260 l 850 260 l 850 328 l 643 328 l 643 461 l 850 461 l 850 528 l 663 528 l 663 656 l 850 656 l 850 724 l 579 724 l 579 843 q 489 664 546 760 l 624 664 l 624 517 q 553 167 607 314 m 288 336 l 288 21 q 383 153 343 82 q 288 336 338 224 m 288 724 l 288 393 l 385 476 q 451 324 426 374 q 483 517 475 417 l 321 517 l 321 664 q 461 926 404 796 l 338 926 q 288 724 317 817 m 1282 1063 l 1282 865 l 1350 865 l 1350 724 l 1282 724 l 1282 528 l 1031 528 l 1031 461 l 1299 461 l 1299 328 l 1031 328 l 1031 260 l 1317 260 l 1317 119 l 1031 119 l 1031 39 l 1335 39 l 1325 -111 l 1008 -111 q 696 -81 817 -111 q 489 26 575 -50 q 368 -133 435 -67 l 288 -19 l 288 -129 l 121 -129 l 121 438 q 60 338 88 375 l 7 546 q 201 1135 153 793 l 368 1129 q 363 1079 365 1096 l 610 1079 l 610 926 q 588 865 596 885 l 850 865 l 850 931 l 650 931 l 650 1063 l 850 1063 l 850 1135 l 1031 1135 l 1031 1063 l 1282 1063 z "},"優":{"ha":1389,"x_min":8,"x_max":1354,"o":"m 294 733 l 294 -129 l 128 -129 l 128 433 q 57 318 92 364 l 8 547 q 219 1135 161 788 l 385 1100 q 294 733 358 907 m 847 108 q 978 167 925 138 l 708 167 q 847 108 772 133 m 576 381 q 451 247 519 304 q 597 315 521 275 q 576 381 576 329 m 621 656 l 621 615 l 1069 615 l 1069 656 l 621 656 m 621 754 l 621 715 l 1069 715 l 1069 754 l 621 754 m 621 815 l 1069 815 l 1069 854 l 621 854 l 621 815 m 982 503 l 917 403 q 738 481 825 447 l 763 521 l 517 521 l 517 492 l 576 450 l 576 496 l 729 496 l 729 426 q 744 398 729 403 q 842 393 758 393 q 961 403 943 393 q 982 472 979 413 l 1110 464 l 1174 511 l 1174 521 l 944 521 q 982 503 957 515 m 399 965 l 399 1100 l 1331 1100 l 1331 965 l 917 965 l 904 928 l 1254 928 l 1254 615 l 1340 615 l 1340 396 l 1265 396 q 1336 290 1308 333 l 1229 208 q 1121 368 1186 279 q 1059 306 1108 317 q 843 294 1010 294 l 774 294 q 757 281 768 290 q 740 267 746 271 l 1188 267 l 1188 167 q 1036 60 1124 108 q 1354 21 1186 31 l 1321 -122 q 843 -24 1072 -104 q 368 -122 633 -96 l 335 17 q 657 57 531 32 q 556 121 592 93 l 613 167 l 588 167 q 369 74 479 108 l 319 203 q 436 242 400 228 l 344 328 q 418 396 389 365 l 350 396 l 350 615 l 435 615 l 435 928 l 715 928 l 728 965 l 399 965 z "},"元":{"ha":1389,"x_min":64,"x_max":1324,"o":"m 590 569 q 487 158 585 313 q 161 -112 389 3 l 64 32 q 329 244 253 128 q 413 569 406 361 l 88 569 l 88 726 l 1301 726 l 1301 569 l 942 569 l 942 107 q 955 66 942 72 q 1042 60 968 60 q 1126 96 1113 60 q 1149 347 1140 132 l 1324 333 q 1316 153 1318 206 q 1299 38 1314 100 q 1274 -40 1285 -25 q 1221 -74 1263 -56 q 1143 -93 1179 -93 q 1024 -93 1107 -93 q 879 -88 928 -93 q 801 -63 831 -83 q 764 -14 771 -43 q 757 74 757 15 l 757 569 l 590 569 m 199 931 l 199 1088 l 1190 1088 l 1190 931 l 199 931 z "},"光":{"ha":1389,"x_min":64,"x_max":1324,"o":"m 1149 347 l 1324 333 q 1316 153 1318 206 q 1299 38 1314 100 q 1274 -40 1285 -25 q 1221 -74 1263 -56 q 1143 -93 1179 -93 q 1024 -93 1107 -93 q 879 -88 928 -93 q 801 -63 831 -83 q 764 -14 771 -43 q 757 74 757 15 l 757 476 l 601 476 q 485 126 588 261 q 161 -112 383 -8 l 64 32 q 323 214 243 115 q 419 476 403 313 l 93 476 l 93 632 l 600 632 l 600 1129 l 789 1129 l 789 632 l 1296 632 l 1296 476 l 942 476 l 942 107 q 955 66 942 72 q 1042 60 968 60 q 1126 96 1113 60 q 1149 347 1140 132 m 307 1063 q 483 739 400 915 l 325 664 q 149 988 249 825 l 307 1063 m 1240 1003 q 1064 664 1168 829 l 906 739 q 1076 1072 1006 899 l 1240 1003 z "},"克":{"ha":1389,"x_min":51,"x_max":1338,"o":"m 392 435 l 997 435 l 997 601 l 392 601 l 392 435 m 1167 247 l 1338 229 q 1333 136 1335 168 q 1326 64 1332 104 q 1319 6 1321 24 q 1305 -37 1317 -12 q 1286 -70 1293 -62 q 1258 -90 1279 -78 q 1223 -105 1238 -103 q 1174 -110 1208 -107 q 1115 -114 1140 -114 q 1039 -114 1089 -114 q 931 -112 972 -114 q 856 -103 890 -110 q 806 -86 822 -96 q 778 -56 789 -76 q 764 -13 767 -36 q 761 49 761 10 l 761 294 l 632 294 q 125 -135 597 -37 l 51 17 q 336 122 240 54 q 450 294 432 190 l 392 294 l 206 294 l 206 743 l 600 743 l 600 851 l 65 851 l 65 1004 l 600 1004 l 600 1143 l 789 1143 l 789 1004 l 1324 1004 l 1324 851 l 789 851 l 789 743 l 1183 743 l 1183 294 l 947 294 l 947 81 q 960 44 947 50 q 1051 39 974 39 q 1144 65 1129 39 q 1167 247 1158 90 z "},"八":{"ha":1389,"x_min":33,"x_max":1356,"o":"m 379 1049 l 1010 1049 q 1115 483 1025 758 q 1356 -15 1204 208 l 1183 -108 q 836 886 893 322 l 379 886 l 379 1049 m 550 739 q 204 -108 472 269 l 33 -15 q 367 774 286 336 l 550 739 z "},"典":{"ha":1389,"x_min":44,"x_max":1344,"o":"m 771 338 l 771 532 l 618 532 l 618 338 l 771 338 m 933 338 l 1086 338 l 1086 532 l 933 532 l 933 338 m 303 532 l 303 338 l 456 338 l 456 532 l 303 532 m 456 857 l 303 857 l 303 676 l 456 676 l 456 857 m 771 857 l 618 857 l 618 676 l 771 676 l 771 857 m 933 1004 l 1261 1004 l 1261 338 l 1344 338 l 1344 185 l 899 185 q 1326 -3 1160 94 l 1243 -147 q 794 65 1061 -36 l 853 185 l 526 185 l 596 78 q 131 -139 425 -53 l 64 11 q 479 185 313 85 l 44 185 l 44 338 l 128 338 l 128 1004 l 456 1004 l 456 1146 l 618 1146 l 618 1004 l 771 1004 l 771 1146 l 933 1146 l 933 1004 m 933 857 l 933 676 l 1086 676 l 1086 857 l 933 857 z "},"内":{"ha":1389,"x_min":104,"x_max":1285,"o":"m 289 433 q 508 606 435 507 q 594 847 581 704 l 289 847 l 289 433 m 758 729 q 1100 389 947 583 l 1100 847 l 779 847 q 758 729 772 785 m 597 1149 l 782 1149 l 782 1004 l 1285 1004 l 1285 128 q 1283 38 1285 71 q 1272 -23 1281 6 q 1250 -65 1263 -51 q 1210 -87 1238 -78 q 1152 -98 1183 -96 q 1067 -100 1121 -100 q 840 -93 1042 -100 l 831 65 q 1031 58 1014 58 q 1091 67 1082 58 q 1100 122 1100 75 l 1100 338 l 978 258 q 694 572 831 458 q 356 264 589 390 l 289 347 l 289 -101 l 104 -101 l 104 1004 l 597 1004 l 597 1149 z "},"冨":{"ha":1389,"x_min":86,"x_max":1303,"o":"m 421 564 l 968 564 l 968 629 l 421 629 l 421 564 m 421 463 l 236 463 l 236 740 l 1153 740 l 1153 463 l 421 463 m 782 228 l 1065 228 l 1065 294 l 782 294 l 782 228 m 782 117 l 782 49 l 1065 49 l 1065 117 l 782 117 m 324 117 l 324 49 l 607 49 l 607 117 l 324 117 m 324 228 l 607 228 l 607 294 l 324 294 l 324 228 m 324 -72 l 324 -122 l 143 -122 l 143 419 l 1246 419 l 1246 -122 l 1065 -122 l 1065 -72 l 324 -72 m 1135 961 l 254 961 l 254 781 l 86 781 l 86 1100 l 1303 1100 l 1303 781 l 1135 781 l 1135 961 m 301 788 l 301 910 l 1088 910 l 1088 788 l 301 788 z "},"冴":{"ha":1389,"x_min":43,"x_max":1336,"o":"m 996 653 l 996 933 l 718 933 l 718 653 l 996 653 m 389 811 l 251 703 q 46 997 147 874 l 188 1096 q 389 811 296 963 m 403 375 q 193 -94 319 99 l 43 0 q 250 453 161 190 l 403 375 m 406 1086 l 1321 1086 l 1321 933 l 1182 933 l 1182 653 l 1336 653 l 1336 496 l 1182 496 l 1182 111 q 1181 24 1182 56 q 1171 -35 1179 -7 q 1151 -74 1163 -62 q 1114 -95 1140 -86 q 1058 -106 1088 -104 q 975 -107 1028 -107 q 772 -100 890 -107 l 763 53 q 933 46 890 46 q 988 55 981 46 q 996 115 996 64 l 996 422 q 435 -14 767 156 l 344 136 q 847 496 631 279 l 349 496 l 349 653 l 533 653 l 533 938 l 406 938 l 406 1086 z "},"出":{"ha":1389,"x_min":121,"x_max":1268,"o":"m 358 1018 l 358 690 l 600 690 l 600 1135 l 788 1135 l 788 690 l 1031 690 l 1031 1018 l 1208 1018 l 1208 538 l 788 538 l 788 115 l 1088 115 l 1088 440 l 1268 440 l 1268 -121 l 1088 -121 l 1088 -42 l 301 -42 l 301 -121 l 121 -121 l 121 440 l 301 440 l 301 115 l 600 115 l 600 538 l 181 538 l 181 1018 l 358 1018 z "},"刀":{"ha":1389,"x_min":111,"x_max":1243,"o":"m 132 1053 l 1243 1053 l 1243 782 q 1239 444 1243 579 q 1222 209 1235 310 q 1191 53 1208 108 q 1141 -35 1174 -1 q 1072 -77 1108 -68 q 975 -86 1035 -86 q 681 -67 903 -86 l 676 104 q 938 86 843 86 q 988 103 969 86 q 1023 178 1007 121 q 1046 354 1039 236 q 1053 667 1053 472 l 1053 892 l 643 892 q 535 276 626 496 q 238 -112 444 57 l 111 25 q 299 226 231 121 q 406 491 368 332 q 453 892 443 650 l 132 892 l 132 1053 z "},"利":{"ha":1389,"x_min":31,"x_max":1296,"o":"m 719 743 l 719 590 l 521 590 q 735 253 597 474 l 610 154 q 469 426 576 222 l 469 -129 l 299 -129 l 299 343 q 126 32 235 165 l 31 186 q 256 590 192 379 l 60 590 l 60 743 l 299 743 l 299 928 q 89 913 186 917 l 74 1056 q 665 1135 372 1071 l 714 996 q 469 949 618 972 l 469 743 l 719 743 m 788 176 l 788 1056 l 956 1056 l 956 176 l 788 176 m 1118 1111 l 1296 1111 l 1296 107 q 1292 3 1296 39 q 1278 -62 1288 -33 q 1245 -101 1269 -90 q 1190 -116 1221 -111 q 1101 -121 1158 -121 q 896 -114 1035 -121 l 888 49 q 1063 42 1011 42 q 1110 51 1101 42 q 1118 107 1118 60 l 1118 1111 z "},"前":{"ha":1389,"x_min":65,"x_max":1324,"o":"m 306 408 l 306 300 l 536 300 l 536 408 l 306 408 m 306 543 l 536 543 l 536 649 l 306 649 l 306 543 m 65 868 l 65 1014 l 388 1014 q 322 1132 363 1064 l 497 1169 q 582 1014 539 1101 l 815 1014 q 892 1168 865 1103 l 1071 1138 q 1013 1014 1044 1074 l 1324 1014 l 1324 868 l 65 868 m 536 99 l 536 165 l 306 165 l 306 -121 l 122 -121 l 122 796 l 703 796 l 703 94 q 702 7 703 36 q 694 -51 701 -22 q 677 -89 686 -79 q 643 -108 668 -99 q 593 -117 618 -117 q 517 -118 568 -118 q 392 -111 493 -118 l 388 40 q 494 33 464 33 q 531 42 525 33 q 536 99 536 50 m 799 149 l 799 778 l 968 778 l 968 149 l 799 149 m 1090 806 l 1271 806 l 1271 107 q 1269 17 1271 50 q 1258 -44 1267 -15 q 1239 -85 1250 -72 q 1203 -107 1228 -97 q 1149 -119 1178 -117 q 1069 -121 1119 -121 q 881 -114 1003 -121 l 872 49 q 1036 42 978 42 q 1083 51 1075 42 q 1090 107 1090 60 l 1090 806 z "},"創":{"ha":1389,"x_min":17,"x_max":1310,"o":"m 385 928 l 571 928 q 468 1006 515 968 q 385 928 424 961 m 299 499 l 299 486 l 299 444 l 608 444 l 608 499 l 299 499 m 299 601 l 608 601 l 608 656 l 299 656 l 299 601 m 864 176 l 864 1056 l 1028 1056 l 1028 176 l 864 176 m 1136 1111 l 1310 1111 l 1310 107 q 1306 3 1310 39 q 1292 -62 1301 -33 q 1259 -101 1283 -90 q 1203 -116 1235 -111 q 1115 -121 1172 -121 q 932 -114 1053 -121 l 924 49 q 1083 42 1065 42 q 1128 51 1121 42 q 1136 107 1136 60 l 1136 1111 m 364 1118 l 563 1118 q 858 939 699 1017 l 785 796 q 664 867 719 831 l 664 815 l 308 815 l 308 864 q 188 774 256 821 l 785 774 l 785 332 l 292 332 q 285 278 290 308 l 799 278 l 799 -128 l 628 -128 l 628 -76 l 379 -76 l 379 -128 l 215 -128 l 215 104 q 129 -94 185 -17 l 17 44 q 103 269 76 144 q 129 579 129 394 l 129 735 q 58 690 82 704 l 25 869 q 364 1118 214 972 m 628 46 l 628 156 l 379 156 l 379 46 l 628 46 z "},"力":{"ha":1389,"x_min":108,"x_max":1243,"o":"m 488 1143 l 678 1143 q 674 928 678 1028 l 1243 928 q 1239 522 1243 685 q 1221 242 1235 360 q 1190 62 1207 125 q 1139 -38 1174 -1 q 1069 -84 1104 -75 q 975 -93 1035 -93 q 681 -74 903 -93 l 676 97 q 928 79 849 79 q 996 122 972 79 q 1035 317 1019 164 q 1053 767 1051 469 l 663 767 q 536 238 635 435 q 235 -119 438 40 l 108 22 q 365 319 282 157 q 474 767 447 482 l 118 767 l 118 928 l 483 928 q 488 1143 488 1028 z "},"加":{"ha":1389,"x_min":24,"x_max":1296,"o":"m 938 -14 l 938 -93 l 767 -93 l 767 1038 l 1296 1038 l 1296 -93 l 1115 -93 l 1115 -14 l 938 -14 m 1115 139 l 1115 879 l 938 879 l 938 139 l 1115 139 m 306 -79 l 297 90 q 454 76 406 76 q 493 112 479 76 q 516 277 507 147 q 525 657 525 407 l 525 767 l 393 767 q 322 226 376 419 q 151 -118 267 33 l 24 31 q 158 314 114 158 q 215 767 201 469 l 58 767 l 58 928 l 221 928 q 222 1143 222 994 l 400 1143 q 399 928 400 994 l 701 928 l 701 775 q 694 299 701 469 q 663 39 686 128 q 610 -72 639 -50 q 524 -93 581 -93 q 306 -79 468 -93 z "},"勝":{"ha":1389,"x_min":28,"x_max":1364,"o":"m 251 625 l 251 524 q 251 478 251 508 q 250 435 250 449 l 328 435 l 328 625 l 251 625 m 251 768 l 328 768 l 328 944 l 251 944 l 251 768 m 882 660 l 990 660 q 963 757 971 724 l 918 757 q 882 660 907 724 m 833 469 l 1000 469 q 993 361 1000 404 l 1133 361 q 1051 507 1093 422 l 813 507 q 722 361 774 435 l 828 361 q 833 469 833 406 m 514 507 l 514 660 l 710 660 q 747 757 729 701 l 524 757 l 524 907 l 594 907 q 524 1054 553 997 l 678 1111 q 767 907 713 1039 l 789 907 q 825 1144 813 1019 l 997 1139 q 960 907 988 1035 l 1056 907 q 1135 1111 1096 996 l 1296 1074 q 1231 907 1261 975 l 1329 907 l 1329 757 l 1133 757 q 1161 660 1143 717 l 1350 660 l 1350 507 l 1229 507 q 1364 338 1285 408 l 1317 156 q 1251 217 1272 194 q 1228 -8 1247 63 q 1177 -99 1210 -79 q 1074 -118 1144 -118 q 900 -111 1032 -118 l 896 38 q 1018 31 993 31 q 1056 41 1044 31 q 1072 89 1067 51 q 1076 215 1076 126 l 956 215 q 808 -6 906 86 q 578 -139 710 -99 l 496 -3 q 786 215 717 78 l 653 215 l 653 274 q 536 163 601 214 l 482 261 l 482 107 q 474 -49 482 -3 q 446 -108 465 -94 q 378 -121 426 -121 q 233 -114 349 -121 l 225 44 q 300 38 282 38 q 324 45 321 38 q 328 101 328 53 l 328 292 l 244 292 q 158 -129 226 47 l 28 1 q 79 245 65 118 q 93 621 93 372 l 93 1097 l 482 1097 l 482 344 q 626 507 560 410 l 514 507 z "},"北":{"ha":1389,"x_min":56,"x_max":1340,"o":"m 394 1129 l 579 1129 l 579 -129 l 394 -129 l 394 151 q 99 49 231 86 l 56 211 q 394 324 217 256 l 394 683 l 75 683 l 75 840 l 394 840 l 394 1129 m 1033 51 q 1101 56 1067 51 q 1146 106 1138 60 q 1160 407 1154 153 l 1326 389 q 1319 196 1322 267 q 1306 65 1315 125 q 1288 -22 1297 6 q 1258 -69 1279 -49 q 1215 -94 1236 -89 q 1154 -104 1194 -100 q 1028 -111 1085 -111 q 903 -107 958 -111 q 764 -67 789 -100 q 739 107 739 -35 l 739 1129 l 929 1129 l 929 726 q 1224 975 1063 814 l 1340 851 q 929 529 1131 644 l 929 129 q 933 68 929 78 q 964 56 938 58 q 1033 51 994 51 z "},"千":{"ha":1389,"x_min":65,"x_max":1324,"o":"m 176 1028 q 740 1057 464 1028 q 1203 1135 1015 1086 l 1242 972 q 789 896 1054 924 l 789 574 l 1324 574 l 1324 407 l 789 407 l 789 -129 l 600 -129 l 600 407 l 65 407 l 65 574 l 600 574 l 600 879 q 176 865 407 865 l 176 1028 z "},"南":{"ha":1389,"x_min":65,"x_max":1324,"o":"m 1086 -128 q 906 -121 1051 -128 l 896 32 q 1049 25 1035 25 q 1106 33 1097 25 q 1114 90 1114 42 l 1114 676 l 275 676 l 275 -129 l 100 -129 l 100 824 l 601 824 l 601 913 l 65 913 l 65 1056 l 601 1056 l 601 1150 l 788 1150 l 788 1056 l 1324 1056 l 1324 913 l 788 913 l 788 824 l 1289 824 l 1289 100 q 1285 -24 1289 15 q 1257 -91 1281 -64 q 1198 -123 1233 -118 q 1086 -128 1163 -128 m 424 617 l 578 657 q 647 443 618 550 l 736 443 q 824 658 789 547 l 976 614 q 908 443 946 519 l 1060 443 l 1060 304 l 785 304 l 785 207 l 1051 207 l 1051 68 l 785 68 l 785 -111 l 604 -111 l 604 68 l 338 68 l 338 207 l 604 207 l 604 304 l 329 304 l 329 443 l 482 443 q 424 617 460 519 z "},"博":{"ha":1389,"x_min":25,"x_max":1354,"o":"m 772 568 l 601 568 l 601 500 l 772 500 l 772 568 m 956 568 l 956 500 l 1128 500 l 1128 568 l 956 568 m 772 667 l 772 731 l 601 731 l 601 667 l 772 667 m 956 667 l 1128 667 l 1128 731 l 956 731 l 956 667 m 400 822 l 400 669 l 303 669 l 303 -129 l 125 -129 l 125 669 l 25 669 l 25 822 l 125 822 l 125 1129 l 303 1129 l 303 822 l 400 822 m 790 49 l 701 -85 q 444 82 575 6 l 515 189 l 365 189 l 365 331 l 1007 331 l 1007 378 l 601 378 l 440 378 l 440 847 l 772 847 l 772 894 l 365 894 l 365 1039 l 772 1039 l 772 1146 l 956 1146 l 956 1039 l 1092 1039 q 1035 1125 1065 1081 l 1176 1168 q 1261 1039 1219 1108 l 1354 1039 l 1354 894 l 956 894 l 956 847 l 1294 847 l 1294 378 l 1192 378 l 1192 331 l 1354 331 l 1354 189 l 1192 189 l 1192 86 q 1190 0 1192 31 q 1181 -58 1189 -31 q 1162 -97 1172 -85 q 1125 -117 1151 -108 q 1070 -126 1099 -125 q 990 -128 1042 -128 q 799 -121 949 -128 l 789 31 q 947 24 914 24 q 999 31 992 24 q 1007 83 1007 39 l 1007 189 l 574 189 q 790 49 676 129 z "},"原":{"ha":1389,"x_min":31,"x_max":1349,"o":"m 567 292 l 508 292 l 632 228 q 381 -117 544 31 l 250 -4 q 478 292 396 122 l 396 292 l 396 872 l 681 872 q 691 910 685 885 q 700 944 697 935 l 310 944 l 310 551 q 157 -122 310 119 l 31 32 q 113 292 89 149 q 136 681 136 435 l 136 1093 l 1317 1093 l 1317 944 l 893 944 q 874 872 888 919 l 1239 872 l 1239 292 l 1104 292 q 1349 -17 1250 136 l 1211 -112 q 958 206 1096 60 l 1076 292 l 925 292 l 925 106 q 921 -19 925 19 q 893 -85 917 -58 q 833 -117 869 -112 q 719 -122 797 -122 q 551 -114 676 -122 l 543 43 q 692 36 636 36 q 738 44 731 36 q 744 100 744 53 l 744 292 l 567 292 m 567 521 l 567 425 l 1058 425 l 1058 521 l 567 521 m 567 649 l 1058 649 l 1058 739 l 567 739 l 567 649 z "},"友":{"ha":1389,"x_min":29,"x_max":1353,"o":"m 663 203 q 460 463 543 315 q 261 47 376 231 q 663 203 497 108 m 806 301 q 1031 588 947 418 l 500 588 q 492 557 497 576 q 481 522 486 538 q 471 492 476 506 l 604 554 q 806 301 689 401 m 69 857 l 69 1010 l 399 1010 q 407 1153 406 1081 l 588 1149 q 579 1010 585 1078 l 1319 1010 l 1319 857 l 560 857 q 538 736 546 776 l 1219 736 l 1219 588 q 950 199 1122 353 q 1353 43 1107 106 l 1297 -114 q 806 90 1006 -39 q 300 -114 601 -37 l 250 31 q 161 -96 210 -31 l 29 21 q 378 857 296 372 l 69 857 z "},"口":{"ha":1389,"x_min":125,"x_max":1264,"o":"m 315 125 l 1074 125 l 1074 889 l 315 889 l 315 125 m 125 1046 l 1264 1046 l 1264 -107 l 1074 -107 l 1074 -28 l 315 -28 l 315 -107 l 125 -107 l 125 1046 z "},"史":{"ha":1389,"x_min":64,"x_max":1329,"o":"m 606 600 q 607 694 607 631 l 607 861 l 315 861 l 315 600 l 606 600 m 443 139 q 232 344 313 233 l 378 438 q 551 261 454 332 q 597 451 585 331 l 315 451 l 139 451 l 139 1014 l 607 1014 l 607 1146 l 796 1146 l 796 1014 l 1250 1014 l 1250 364 l 1069 364 l 1069 451 l 783 451 q 701 172 763 281 q 1329 42 949 54 l 1301 -115 q 594 47 897 -106 q 107 -115 447 -71 l 64 35 q 443 139 339 74 m 1069 600 l 1069 861 l 796 861 l 796 694 q 794 600 796 631 l 1069 600 z "},"司":{"ha":1389,"x_min":97,"x_max":1268,"o":"m 403 218 l 743 218 l 743 429 l 403 429 l 403 218 m 97 1093 l 1268 1093 l 1268 111 q 1266 22 1268 54 q 1255 -40 1264 -11 q 1234 -81 1246 -68 q 1194 -102 1222 -93 q 1136 -113 1167 -111 q 1051 -115 1106 -115 q 815 -108 1006 -115 l 806 46 q 1018 39 989 39 q 1074 49 1064 39 q 1083 104 1083 58 l 1083 940 l 97 940 l 97 1093 m 222 565 l 917 565 l 917 82 l 403 82 l 403 -29 l 222 -29 l 222 565 m 157 682 l 157 829 l 986 829 l 986 682 l 157 682 z "},"合":{"ha":1389,"x_min":49,"x_max":1340,"o":"m 379 -60 l 379 -125 l 194 -125 l 194 476 l 1194 476 l 1194 -125 l 1010 -125 l 1010 -60 l 379 -60 m 1083 694 l 1083 601 l 306 601 l 306 694 q 121 589 221 640 l 49 740 q 333 919 210 828 q 578 1129 457 1010 l 811 1129 q 1056 919 932 1010 q 1340 740 1179 828 l 1268 589 q 1083 694 1168 640 m 1001 750 q 694 1011 838 864 q 388 750 551 864 l 1001 750 m 1010 83 l 1010 329 l 379 329 l 379 83 l 1010 83 z "},"吉":{"ha":1389,"x_min":69,"x_max":1319,"o":"m 379 -56 l 379 -121 l 194 -121 l 194 454 l 1194 454 l 1194 -121 l 1010 -121 l 1010 -56 l 379 -56 m 1319 858 l 789 858 l 789 704 l 1254 704 l 1254 560 l 135 560 l 135 704 l 600 704 l 600 858 l 69 858 l 69 1011 l 600 1011 l 600 1143 l 789 1143 l 789 1011 l 1319 1011 l 1319 858 m 1010 88 l 1010 306 l 379 306 l 379 88 l 1010 88 z "},"向":{"ha":1389,"x_min":97,"x_max":1292,"o":"m 574 201 l 574 90 l 403 90 l 403 697 l 986 697 l 986 201 l 574 201 m 574 336 l 815 336 l 815 563 l 574 563 l 574 336 m 1108 108 l 1108 822 l 281 822 l 281 -115 l 97 -115 l 97 975 l 503 975 q 575 1165 550 1092 l 764 1143 q 699 975 746 1089 l 1292 975 l 1292 115 q 1290 26 1292 58 q 1279 -35 1288 -7 q 1260 -76 1271 -64 q 1223 -98 1249 -89 q 1168 -109 1197 -107 q 1088 -111 1139 -111 q 851 -104 1042 -111 l 843 51 q 1044 44 1026 44 q 1099 53 1090 44 q 1108 108 1108 63 z "},"周":{"ha":1389,"x_min":15,"x_max":1301,"o":"m 558 142 l 872 142 l 872 297 l 558 297 l 558 142 m 629 956 l 313 956 l 313 514 q 278 124 313 267 q 158 -139 243 -19 l 15 -15 q 109 215 83 88 q 135 593 135 342 l 135 1107 l 1301 1107 l 1301 97 q 1297 -27 1301 13 q 1266 -93 1292 -67 q 1203 -124 1240 -119 q 1088 -129 1167 -129 q 907 -122 1053 -129 l 900 15 l 558 15 l 558 -50 l 393 -50 l 393 428 l 1038 428 l 1038 26 q 1049 26 1042 26 q 1058 25 1056 25 q 1113 35 1104 25 q 1122 90 1122 44 l 1122 956 l 806 956 l 806 871 l 1051 871 l 1051 738 l 806 738 l 806 632 l 1074 632 l 1074 494 l 361 494 l 361 632 l 629 632 l 629 738 l 385 738 l 385 871 l 629 871 l 629 956 z "},"和":{"ha":1389,"x_min":24,"x_max":1317,"o":"m 1136 132 l 1136 900 l 885 900 l 885 132 l 1136 132 m 664 743 l 664 590 l 492 590 q 708 249 563 481 l 708 1058 l 1317 1058 l 1317 -100 l 1136 -100 l 1136 -21 l 885 -21 l 885 -100 l 708 -100 l 708 224 l 593 133 q 449 414 524 274 l 449 -129 l 278 -129 l 278 307 q 119 32 215 149 l 24 186 q 249 590 185 379 l 53 590 l 53 743 l 278 743 l 278 928 q 82 913 172 917 l 67 1056 q 615 1135 342 1071 l 663 996 q 449 950 557 967 l 449 743 l 664 743 z "},"咲":{"ha":1389,"x_min":79,"x_max":1358,"o":"m 331 169 l 331 907 l 249 907 l 249 169 l 331 169 m 531 386 l 531 544 l 825 544 q 829 629 829 586 l 829 747 l 538 747 l 538 900 l 699 900 q 594 1081 644 1003 l 753 1139 q 883 900 817 1039 l 978 900 q 1107 1139 1057 1029 l 1268 1090 q 1171 900 1228 997 l 1322 900 l 1322 747 l 1014 747 l 1014 629 q 1018 544 1014 586 l 1336 544 l 1336 386 l 1050 386 q 1358 18 1125 158 l 1257 -129 q 922 267 1040 1 q 756 34 857 138 q 531 -129 654 -69 l 425 17 l 249 17 l 249 -61 l 79 -61 l 79 1065 l 496 1065 l 496 53 q 789 386 714 172 l 531 386 z "},"哉":{"ha":1389,"x_min":56,"x_max":1361,"o":"m 296 149 l 542 149 l 542 361 l 296 361 l 296 149 m 1163 83 q 1222 311 1201 83 l 1361 250 q 1296 -29 1349 63 q 1171 -121 1243 -121 q 975 57 1065 -121 q 681 -119 844 -51 l 585 7 l 296 7 l 296 -79 l 121 -79 l 121 503 l 713 503 l 713 71 q 914 213 822 132 q 839 581 864 372 l 56 581 l 56 733 l 324 733 l 324 871 l 97 871 l 97 1018 l 324 1018 l 324 1135 l 504 1135 l 504 1018 l 740 1018 l 740 871 l 504 871 l 504 733 l 824 733 q 808 1136 808 924 l 982 1136 q 997 733 982 919 l 1333 733 l 1333 581 l 1014 581 q 1051 364 1031 456 q 1151 565 1118 460 l 1299 493 q 1103 181 1222 317 q 1163 83 1140 83 m 1156 778 q 1026 1046 1096 921 l 1172 1107 q 1303 839 1240 986 l 1156 778 z "},"哲":{"ha":1389,"x_min":60,"x_max":1338,"o":"m 628 1028 l 628 886 l 442 886 l 442 806 q 611 829 522 815 l 618 692 q 442 667 546 681 l 442 532 q 425 429 442 454 q 349 399 408 404 l 624 399 l 496 500 q 656 711 613 593 q 699 1079 699 829 q 1254 1135 1036 1093 l 1303 982 q 867 933 1119 947 q 861 857 864 881 l 1338 857 l 1338 713 l 1181 713 l 1181 435 l 997 435 l 997 713 l 839 713 q 768 538 815 610 q 640 399 721 467 l 1190 399 l 1190 -114 l 1004 -114 l 1004 -62 l 385 -62 l 385 -114 l 199 -114 l 199 399 q 111 403 158 400 l 101 546 q 232 539 183 539 q 258 543 254 539 q 261 574 261 547 l 261 647 q 67 632 144 636 l 60 774 q 261 788 121 776 l 261 886 l 60 886 l 60 1028 l 261 1028 l 261 1129 l 442 1129 l 442 1028 l 628 1028 m 1004 257 l 385 257 l 385 74 l 1004 74 l 1004 257 z "},"啓":{"ha":1389,"x_min":25,"x_max":1364,"o":"m 292 483 q 271 392 286 436 l 710 392 l 654 483 l 292 483 m 299 611 l 521 611 l 521 753 l 299 753 l 299 611 m 875 608 q 800 757 826 678 q 731 664 764 703 l 676 717 l 676 528 q 875 608 793 561 m 1003 710 q 1106 910 1079 794 l 888 910 q 851 840 872 878 l 942 868 q 1003 710 961 775 m 988 488 q 774 392 894 431 l 1139 392 q 988 488 1047 438 m 1118 590 q 1364 476 1211 524 l 1308 324 q 1190 368 1247 344 l 1190 -114 l 1004 -114 l 1004 -62 l 385 -62 l 385 -114 l 199 -114 l 199 253 q 140 181 176 221 l 25 363 q 125 713 125 478 l 125 882 l 675 882 q 800 1153 751 1001 l 969 1132 q 947 1056 965 1111 l 1333 1056 l 1333 910 l 1276 910 q 1118 590 1240 717 m 1004 250 l 385 250 l 385 74 l 1004 74 l 1004 250 m 79 942 l 79 1090 l 699 1090 l 699 942 l 79 942 z "},"喜":{"ha":1389,"x_min":56,"x_max":1333,"o":"m 407 571 l 982 571 l 982 628 l 407 628 l 407 571 m 814 422 q 844 481 825 442 l 547 481 q 569 422 556 461 l 814 422 m 375 -79 l 375 -129 l 181 -129 l 181 239 l 1208 239 l 1208 -129 l 1014 -129 l 1014 -79 l 375 -79 m 1319 922 l 794 922 l 794 879 l 1254 879 l 1254 756 l 135 756 l 135 879 l 594 879 l 594 922 l 69 922 l 69 1063 l 594 1063 l 594 1150 l 794 1150 l 794 1063 l 1319 1063 l 1319 922 m 56 278 l 56 422 l 368 422 q 346 481 354 461 l 213 481 l 213 718 l 1176 718 l 1176 481 l 1046 481 q 1019 422 1029 442 l 1333 422 l 1333 278 l 56 278 m 1014 46 l 1014 108 l 375 108 l 375 46 l 1014 46 z "},"嗣":{"ha":1389,"x_min":58,"x_max":1324,"o":"m 874 122 l 874 11 l 729 11 l 729 581 l 1090 581 l 1090 122 l 874 122 m 874 254 l 954 254 l 954 449 l 874 449 l 874 254 m 251 699 l 79 699 l 79 1093 l 649 1093 l 649 699 l 251 699 m 251 826 l 481 826 l 481 956 l 251 956 l 251 826 m 493 213 l 493 38 l 511 38 q 527 38 524 38 q 535 40 531 38 q 539 46 539 42 q 539 60 539 50 l 539 213 l 493 213 m 250 336 l 250 503 l 206 503 l 206 336 l 250 336 m 394 336 l 394 503 l 349 503 l 349 336 l 394 336 m 493 336 l 539 336 l 539 503 l 493 503 l 493 336 m 1169 -115 q 944 -108 1118 -115 l 935 46 q 1097 39 1071 39 q 1143 48 1136 39 q 1150 104 1150 57 l 1150 940 l 685 940 l 685 1093 l 1324 1093 l 1324 111 q 1320 7 1324 44 q 1309 -58 1317 -31 q 1282 -97 1301 -86 q 1239 -111 1263 -107 q 1169 -115 1215 -115 m 708 692 l 708 836 l 1111 836 l 1111 692 l 708 692 m 58 635 l 669 635 l 669 28 q 651 -96 669 -76 q 539 -115 633 -115 l 468 -115 l 467 -90 l 394 -90 l 394 213 l 349 213 l 349 -90 l 250 -90 l 250 213 l 206 213 l 206 -118 l 58 -118 l 58 635 z "},"嘉":{"ha":1389,"x_min":39,"x_max":1333,"o":"m 407 581 l 982 581 l 982 635 l 407 635 l 407 581 m 814 435 q 844 490 829 458 l 547 490 q 558 465 550 483 q 569 435 565 446 l 814 435 m 910 -79 l 910 -129 l 740 -129 l 740 257 l 1264 257 l 1264 -129 l 1088 -129 l 1088 -79 l 910 -79 m 1319 929 l 794 929 l 794 889 l 1254 889 l 1254 764 l 135 764 l 135 889 l 594 889 l 594 929 l 69 929 l 69 1069 l 594 1069 l 594 1150 l 794 1150 l 794 1069 l 1319 1069 l 1319 929 m 697 251 q 693 99 696 157 q 683 -5 690 42 q 668 -73 676 -51 q 642 -108 660 -94 q 605 -125 624 -122 q 553 -128 586 -128 q 375 -121 521 -128 l 365 18 q 476 11 451 11 q 514 24 508 11 q 524 111 519 36 l 407 111 q 143 -149 346 -47 l 39 -28 q 228 111 182 38 l 86 111 l 86 251 l 269 251 q 272 294 272 279 l 56 294 l 56 435 l 368 435 q 356 465 364 446 q 346 490 349 483 l 213 490 l 213 725 l 1176 725 l 1176 490 l 1044 490 q 1019 435 1036 471 l 1333 435 l 1333 294 l 442 294 q 439 251 442 279 l 697 251 m 1088 46 l 1088 125 l 910 125 l 910 46 l 1088 46 z "},"土":{"ha":1389,"x_min":69,"x_max":1319,"o":"m 789 1107 l 789 767 l 1222 767 l 1222 608 l 789 608 l 789 83 l 1319 83 l 1319 -79 l 69 -79 l 69 83 l 600 83 l 600 608 l 167 608 l 167 767 l 600 767 l 600 1107 l 789 1107 z "},"圭":{"ha":1389,"x_min":83,"x_max":1306,"o":"m 789 711 l 1278 711 l 1278 563 l 111 563 l 111 711 l 600 711 l 600 871 l 213 871 l 213 1014 l 600 1014 l 600 1146 l 789 1146 l 789 1014 l 1176 1014 l 1176 871 l 789 871 l 789 711 m 789 56 l 1306 56 l 1306 -93 l 83 -93 l 83 56 l 600 56 l 600 246 l 185 246 l 185 389 l 600 389 l 600 525 l 789 525 l 789 389 l 1204 389 l 1204 246 l 789 246 l 789 56 z "},"地":{"ha":1389,"x_min":50,"x_max":1357,"o":"m 354 1107 l 354 847 l 486 847 l 486 785 l 558 801 l 558 1063 l 733 1063 l 733 839 l 844 863 l 844 1135 l 1007 1135 l 1007 897 l 1310 963 l 1310 871 q 1304 563 1310 674 q 1281 394 1299 451 q 1241 323 1263 338 q 1176 308 1219 308 q 1060 313 1131 308 l 1028 469 q 1111 465 1078 465 q 1124 470 1121 465 q 1132 505 1128 475 q 1138 591 1136 535 q 1140 758 1139 647 l 1007 729 l 1007 208 l 844 208 l 844 693 l 733 669 l 733 104 q 763 52 733 60 q 968 44 793 44 q 1036 44 1015 44 q 1086 49 1057 44 q 1124 56 1115 54 q 1148 75 1132 58 q 1166 102 1164 92 q 1175 147 1168 113 q 1183 204 1182 181 q 1188 285 1183 228 l 1357 247 q 1349 133 1353 175 q 1335 47 1346 90 q 1314 -18 1324 3 q 1277 -61 1304 -39 q 1226 -91 1250 -83 q 1150 -106 1201 -99 q 1050 -113 1099 -112 q 917 -114 1001 -114 q 774 -112 826 -114 q 676 -103 721 -111 q 612 -85 632 -94 q 578 -52 592 -75 q 561 -3 564 -29 q 558 67 558 22 l 558 631 l 439 604 l 428 694 l 354 694 l 354 182 q 493 236 390 194 l 500 79 q 67 -71 290 -15 l 50 92 q 176 126 90 101 l 176 694 l 56 694 l 56 847 l 176 847 l 176 1107 l 354 1107 z "},"坂":{"ha":1389,"x_min":44,"x_max":1365,"o":"m 703 507 q 596 44 694 242 q 865 200 756 104 q 703 507 763 338 m 704 639 l 704 571 l 851 621 q 988 336 904 456 q 1115 639 1071 458 l 704 639 m 1329 1093 l 1329 940 l 704 940 l 704 788 l 1294 788 l 1294 639 q 1104 200 1235 374 q 1365 35 1215 97 l 1283 -119 q 983 69 1110 -49 q 654 -119 853 -44 l 582 18 q 494 -114 543 -53 l 375 39 l 376 40 q 61 -62 218 -25 l 44 101 q 171 135 113 118 l 171 676 l 51 676 l 51 829 l 171 829 l 171 1107 l 350 1107 l 350 829 l 483 829 l 483 676 l 350 676 l 350 192 q 474 239 428 219 q 525 690 525 397 l 525 1093 l 1329 1093 z "},"坪":{"ha":1389,"x_min":33,"x_max":1357,"o":"m 336 1107 l 336 781 l 461 781 l 461 628 l 336 628 l 336 182 q 476 236 413 208 l 483 79 q 50 -71 274 -15 l 33 92 q 157 125 97 107 l 157 628 l 39 628 l 39 781 l 157 781 l 157 1107 l 336 1107 m 1333 940 l 986 940 l 986 442 l 1357 442 l 1357 285 l 986 285 l 986 -135 l 801 -135 l 801 285 l 407 285 l 407 442 l 801 442 l 801 940 l 444 940 l 444 1093 l 1333 1093 l 1333 940 m 590 497 q 460 835 518 701 l 613 892 q 744 553 682 738 l 590 497 m 1333 838 q 1196 494 1283 674 l 1043 554 q 1174 890 1128 733 l 1333 838 z "},"垣":{"ha":1389,"x_min":44,"x_max":1343,"o":"m 706 153 l 528 153 l 528 857 l 1278 857 l 1278 153 l 706 153 m 706 436 l 706 292 l 1093 292 l 1093 436 l 706 436 m 706 572 l 1093 572 l 1093 715 l 706 715 l 706 572 m 451 944 l 451 1093 l 1338 1093 l 1338 944 l 451 944 m 447 -93 l 447 56 l 1343 56 l 1343 -93 l 447 -93 m 350 1107 l 350 829 l 483 829 l 483 676 l 350 676 l 350 201 q 493 254 419 225 l 497 100 q 61 -53 274 0 l 44 111 q 171 144 113 128 l 171 676 l 51 676 l 51 829 l 171 829 l 171 1107 l 350 1107 z "},"城":{"ha":1389,"x_min":31,"x_max":1367,"o":"m 426 268 q 447 660 447 403 l 333 660 l 333 232 q 375 248 342 235 q 426 268 408 261 m 607 293 q 685 285 653 285 q 708 289 701 285 q 721 324 715 293 q 728 410 726 356 q 729 581 729 465 l 621 581 l 621 544 q 607 293 621 418 m 890 725 q 889 483 890 575 q 881 321 888 392 q 869 217 875 250 q 846 163 863 183 q 813 140 829 143 q 765 136 797 136 q 625 146 711 136 l 607 282 q 467 -129 578 44 l 310 -46 q 382 97 354 26 q 53 -18 218 25 l 31 139 q 163 174 106 157 l 163 660 l 38 660 l 38 813 l 163 813 l 163 1107 l 333 1107 l 333 813 l 447 813 l 447 1003 l 903 1003 q 902 1071 903 1025 q 901 1142 901 1117 l 1072 1142 q 1074 1003 1072 1047 l 1147 1003 q 1100 1121 1139 1024 l 1226 1169 q 1293 1003 1268 1075 l 1343 1003 l 1343 851 l 1078 851 q 1104 483 1085 657 q 1190 732 1156 606 l 1336 671 q 1149 218 1253 383 q 1208 74 1183 74 q 1242 293 1226 74 l 1367 240 q 1224 -121 1347 -121 q 1024 56 1099 -121 q 817 -119 932 -43 l 697 1 q 968 242 865 108 q 906 851 919 472 l 621 851 l 621 725 l 890 725 z "},"堀":{"ha":1389,"x_min":43,"x_max":1317,"o":"m 442 278 q 463 625 460 396 l 347 625 l 347 233 q 442 278 390 251 m 635 953 l 635 851 l 1136 851 l 1136 953 l 635 953 m 1143 269 l 1317 269 l 1317 -128 l 1139 -128 l 1139 -64 l 788 -64 l 788 -128 l 614 -128 l 614 269 l 782 269 l 782 85 l 881 85 l 881 311 l 656 311 l 656 658 l 801 658 l 801 450 l 881 450 l 881 719 l 622 719 l 622 550 q 588 175 622 325 q 468 -124 554 25 l 353 24 q 392 103 374 58 q 64 -31 222 19 l 43 126 q 169 165 96 139 l 169 625 l 49 625 l 49 774 l 169 774 l 169 1107 l 347 1107 l 347 774 l 463 774 l 463 1096 l 635 1096 l 1317 1096 l 1317 719 l 1044 719 l 1044 450 l 1125 450 l 1125 658 l 1289 658 l 1289 311 l 1044 311 l 1044 85 l 1143 85 l 1143 269 z "},"堤":{"ha":1389,"x_min":44,"x_max":1340,"o":"m 692 781 l 692 710 l 1104 710 l 1104 781 l 692 781 m 692 893 l 1104 893 l 1104 961 l 692 961 l 692 893 m 692 583 l 511 583 l 511 1100 l 1285 1100 l 1285 583 l 692 583 m 169 1107 l 349 1107 l 349 808 l 475 808 l 475 660 l 349 660 l 349 235 q 467 285 408 257 l 478 153 q 535 346 518 249 l 704 325 q 667 168 696 258 q 801 88 721 115 l 801 378 l 447 378 l 447 525 l 1336 525 l 1336 378 l 986 378 l 986 292 l 1294 292 l 1294 151 l 986 151 l 986 51 q 1261 42 1092 42 l 1340 42 l 1331 -111 l 1247 -111 q 845 -80 989 -111 q 611 31 701 -49 q 513 -133 569 -58 l 356 -51 q 469 132 425 39 q 67 -15 274 38 l 44 139 q 169 174 76 147 l 169 660 l 50 660 l 50 808 l 169 808 l 169 1107 z "},"場":{"ha":1389,"x_min":44,"x_max":1335,"o":"m 686 794 l 686 729 l 1082 729 l 1082 794 l 686 794 m 686 899 l 1082 899 l 1082 961 l 686 961 l 686 899 m 511 1101 l 1267 1101 l 1267 619 l 686 619 l 511 619 l 511 1101 m 1124 -125 q 964 -118 1072 -125 l 956 28 q 1068 21 1028 21 q 1105 35 1093 21 q 1124 101 1117 50 q 1131 253 1131 151 l 1131 271 l 1113 271 q 949 42 1054 158 q 732 -146 843 -74 l 629 -44 q 807 97 719 11 q 953 271 894 182 l 868 271 q 675 80 790 174 q 446 -69 560 -14 l 354 36 q 689 271 542 124 l 588 271 q 492 214 547 243 l 497 158 q 67 6 268 54 l 44 164 q 171 192 139 183 l 171 639 l 50 639 l 50 788 l 171 788 l 171 1107 l 349 1107 l 349 788 l 472 788 l 472 639 l 349 639 l 349 240 q 376 249 358 243 q 409 260 394 256 q 436 269 424 265 l 400 315 q 600 444 503 363 l 446 444 l 446 575 l 1335 575 l 1335 444 l 788 444 q 740 396 772 428 l 1303 396 l 1303 282 q 1284 21 1303 108 q 1230 -96 1265 -67 q 1124 -125 1194 -125 z "},"塚":{"ha":1389,"x_min":29,"x_max":1378,"o":"m 590 874 l 1169 874 l 1169 949 l 590 949 l 590 874 m 1338 1100 l 1338 808 l 1278 808 l 1278 726 l 1088 726 q 1135 517 1103 628 q 1236 664 1186 582 l 1358 558 q 1199 344 1281 439 q 1378 79 1271 189 l 1292 -93 q 1060 258 1161 32 q 929 726 960 485 l 875 726 q 852 706 867 719 q 831 685 838 692 q 984 387 931 539 q 1038 101 1038 235 q 1001 -68 1038 -18 q 886 -118 964 -118 q 706 -111 810 -118 l 696 28 q 497 -93 606 -37 l 417 51 q 825 329 661 165 q 797 400 817 353 q 497 190 664 278 l 469 238 l 482 107 q 50 -29 261 19 l 29 129 q 156 157 124 149 l 156 635 l 35 635 l 35 782 l 156 782 l 156 1107 l 333 1107 l 333 782 l 461 782 l 461 635 l 333 635 l 333 206 q 463 250 401 226 l 418 326 q 735 522 604 411 q 699 579 719 550 q 449 428 585 497 l 371 560 q 671 726 542 631 l 496 726 l 496 808 l 426 808 l 426 1100 l 1338 1100 m 824 32 q 858 49 850 32 q 865 129 865 65 q 864 172 865 157 q 710 38 796 101 q 824 32 782 32 z "},"士":{"ha":1389,"x_min":83,"x_max":1306,"o":"m 789 83 l 1236 83 l 1236 -74 l 153 -74 l 153 83 l 600 83 l 600 604 l 83 604 l 83 767 l 600 767 l 600 1107 l 789 1107 l 789 767 l 1306 767 l 1306 604 l 789 604 l 789 83 z "},"夏":{"ha":1389,"x_min":58,"x_max":1315,"o":"m 710 117 q 926 206 843 158 l 493 206 q 710 117 581 158 m 357 653 l 357 607 l 1032 607 l 1032 653 l 357 653 m 357 747 l 1032 747 l 1032 794 l 357 794 l 357 747 m 83 951 l 83 1100 l 1306 1100 l 1306 951 l 764 951 q 756 929 761 944 q 749 906 751 914 l 1222 906 l 1222 368 l 626 368 q 576 324 613 354 l 1153 324 l 1153 206 q 925 61 1063 125 q 1315 14 1111 25 l 1272 -129 q 700 -24 965 -108 q 117 -129 450 -99 l 74 14 q 486 63 301 29 q 349 143 406 101 l 404 206 l 401 206 q 126 89 271 133 l 58 222 q 413 368 264 283 l 357 368 l 167 368 l 167 906 l 556 906 q 563 929 558 914 q 571 951 568 944 l 83 951 m 1032 465 l 1032 511 l 357 511 l 357 465 l 1032 465 z "},"多":{"ha":1389,"x_min":74,"x_max":1338,"o":"m 249 328 q 618 483 444 389 q 878 667 792 578 l 1042 617 q 992 567 1019 592 l 1338 567 l 1338 431 q 938 58 1203 204 q 293 -143 672 -89 l 242 10 q 738 139 528 50 q 622 246 625 243 l 746 353 q 890 215 825 281 q 1144 431 1040 304 l 815 431 q 331 192 579 275 l 249 328 m 78 860 q 424 1005 265 921 q 663 1167 582 1089 l 819 1111 q 767 1061 799 1089 l 1099 1061 l 1099 933 q 724 590 972 726 q 122 406 475 454 l 74 550 q 532 667 339 586 q 422 768 428 764 l 540 865 q 679 739 607 806 q 914 933 821 821 l 594 933 q 156 726 389 801 l 78 860 z "},"夢":{"ha":1389,"x_min":60,"x_max":1329,"o":"m 240 275 q 469 403 369 332 l 240 403 l 240 275 m 653 361 l 1149 361 l 1149 403 l 697 403 q 653 361 683 389 m 554 67 q 396 153 481 110 l 518 232 l 476 232 q 178 93 332 144 l 75 211 q 219 267 138 232 l 63 267 l 63 539 l 1326 539 l 1326 260 l 1153 260 l 1153 232 q 807 -14 1039 78 q 189 -136 575 -106 l 143 8 q 554 67 399 29 m 744 126 q 925 232 851 171 l 550 232 q 744 126 651 181 m 539 878 l 850 878 l 850 931 l 539 931 l 539 878 m 769 685 l 769 771 l 619 771 l 619 685 l 769 685 m 922 685 l 1067 685 l 1067 771 l 922 771 l 922 685 m 1031 1072 l 1329 1072 l 1329 931 l 1031 931 l 1031 878 l 1240 878 l 1240 575 l 322 575 l 149 575 l 149 878 l 358 878 l 358 931 l 60 931 l 60 1072 l 358 1072 l 358 1142 l 539 1142 l 539 1072 l 850 1072 l 850 1142 l 1031 1142 l 1031 1072 m 467 771 l 322 771 l 322 685 l 467 685 l 467 771 z "},"大":{"ha":1389,"x_min":68,"x_max":1321,"o":"m 93 694 l 93 857 l 600 857 l 600 1129 l 789 1129 l 789 857 l 1296 857 l 1296 694 l 799 694 q 1321 28 860 254 l 1219 -115 q 915 106 1050 -37 q 703 431 781 249 q 484 106 624 249 q 169 -115 344 -37 l 68 28 q 590 694 529 254 l 93 694 z "},"天":{"ha":1389,"x_min":68,"x_max":1321,"o":"m 139 500 l 139 657 l 599 657 q 599 670 599 661 q 600 683 600 679 l 600 919 l 93 919 l 93 1076 l 1296 1076 l 1296 919 l 789 919 l 789 683 q 790 670 789 679 q 790 657 790 661 l 1250 657 l 1250 500 l 815 500 q 1321 32 907 199 l 1231 -115 q 918 74 1056 -47 q 703 349 781 196 q 481 74 622 196 q 158 -115 339 -47 l 68 32 q 574 500 482 199 l 139 500 z "},"太":{"ha":1389,"x_min":60,"x_max":1329,"o":"m 600 1143 l 789 1143 l 789 947 q 790 885 789 906 l 1296 885 l 1296 722 l 811 722 q 1329 42 897 293 l 1233 -115 q 922 148 1061 -19 q 703 517 783 315 q 510 189 632 340 l 626 258 q 831 -25 758 83 l 686 -110 q 490 164 582 43 q 156 -115 343 -12 l 60 42 q 578 722 490 294 l 93 722 l 93 885 l 599 885 q 600 947 600 906 l 600 1143 z "},"央":{"ha":1389,"x_min":46,"x_max":1343,"o":"m 600 826 l 336 826 l 336 521 l 597 521 q 600 563 600 549 l 600 826 m 789 563 q 792 521 789 549 l 1053 521 l 1053 826 l 789 826 l 789 563 m 600 1143 l 789 1143 l 789 983 l 1226 983 l 1226 521 l 1343 521 l 1343 368 l 833 368 q 1322 28 943 150 l 1249 -129 q 926 35 1068 -72 q 704 274 783 142 q 474 35 621 142 q 140 -129 326 -72 l 67 28 q 554 368 446 150 l 46 368 l 46 521 l 163 521 l 163 983 l 600 983 l 600 1143 z "},"奈":{"ha":1389,"x_min":44,"x_max":1344,"o":"m 653 885 q 488 683 583 775 l 911 683 q 751 885 818 776 l 653 885 m 1274 433 l 1274 282 l 1035 282 q 1324 6 1203 136 l 1206 -108 q 896 188 1053 53 l 992 282 l 813 282 l 813 92 q 808 -24 813 14 q 778 -86 803 -61 q 715 -116 753 -111 q 597 -121 676 -121 q 407 -114 528 -121 l 399 38 q 563 31 510 31 q 615 37 607 31 q 622 81 622 43 l 622 282 l 376 282 l 479 203 q 178 -100 353 26 l 67 18 q 342 282 225 132 l 115 282 l 115 433 l 1274 433 m 144 454 l 44 597 q 444 885 314 717 l 97 885 l 97 1035 l 535 1035 q 579 1147 561 1090 l 767 1131 q 733 1035 747 1067 l 1292 1035 l 1292 885 l 947 885 q 1344 597 1088 706 l 1244 454 q 990 610 1108 513 l 990 535 l 407 535 l 407 614 q 144 454 285 515 z "},"奎":{"ha":1389,"x_min":44,"x_max":1344,"o":"m 935 719 q 749 910 822 810 l 642 910 q 451 719 558 801 l 600 719 l 600 838 l 789 838 l 789 719 l 935 719 m 789 147 l 789 56 l 1319 56 l 1319 -93 l 69 -93 l 69 56 l 600 56 l 600 147 l 167 147 l 167 281 l 600 281 l 600 367 l 118 367 l 118 504 l 600 504 l 600 592 l 344 592 l 344 646 q 118 535 239 581 l 44 685 q 426 910 294 775 l 97 910 l 97 1058 l 535 1058 q 576 1149 557 1099 l 767 1139 q 733 1058 753 1100 l 1292 1058 l 1292 910 l 951 910 q 1344 685 1088 769 l 1271 535 q 1025 654 1139 582 l 1025 592 l 789 592 l 789 504 l 1271 504 l 1271 367 l 789 367 l 789 281 l 1204 281 l 1204 147 l 789 147 z "},"奥":{"ha":1389,"x_min":60,"x_max":1329,"o":"m 915 924 l 478 924 q 596 774 540 851 l 503 726 l 611 726 l 611 899 l 778 899 l 778 726 l 885 726 l 794 774 q 915 924 858 842 m 306 475 q 497 604 414 536 l 331 604 l 331 726 l 454 726 q 336 874 400 800 l 431 924 l 306 924 l 306 475 m 1058 726 l 1058 604 l 914 604 q 1083 476 1013 536 l 1083 924 l 958 924 l 1054 875 q 939 726 1001 796 l 1058 726 m 1260 344 l 1083 344 l 1083 444 l 997 353 q 778 553 885 464 l 778 393 l 611 393 l 611 538 q 389 354 515 431 l 306 444 l 306 344 l 129 344 l 129 1063 l 528 1063 q 575 1179 547 1106 l 763 1160 q 722 1063 746 1114 l 1260 1063 l 1260 344 m 600 365 l 789 365 l 789 301 l 1329 301 l 1329 160 l 853 160 q 1325 17 979 58 l 1261 -135 q 931 -42 1076 -108 q 704 108 786 24 q 469 -42 619 24 q 128 -135 319 -108 l 64 17 q 535 160 408 58 l 60 160 l 60 301 l 600 301 l 600 365 z "},"奨":{"ha":1389,"x_min":43,"x_max":1329,"o":"m 826 744 q 729 904 786 825 l 825 951 q 628 947 819 951 q 721 790 672 888 l 629 744 l 826 744 m 1053 778 l 1001 803 q 1135 969 1072 874 q 888 954 999 960 q 981 797 939 883 l 876 744 l 1053 744 l 1053 778 m 47 993 l 190 1058 q 271 886 239 964 l 271 1125 l 440 1125 l 440 361 l 271 361 l 271 531 q 103 444 181 481 l 43 588 q 271 699 154 636 l 271 782 l 168 733 q 47 993 113 872 m 60 171 l 60 313 l 600 313 l 600 407 l 669 407 q 531 544 608 475 l 644 604 l 486 604 l 486 744 l 563 744 q 469 894 521 825 l 571 946 q 535 945 560 946 q 497 944 510 944 l 483 1081 q 1271 1124 926 1085 l 1296 985 q 1257 980 1286 983 q 1210 975 1228 976 l 1308 935 q 1229 818 1272 875 l 1229 744 l 1329 744 l 1329 604 l 1229 604 l 1229 511 q 1201 388 1229 414 q 1060 363 1172 363 q 879 369 1000 363 l 871 507 q 1010 500 971 500 q 1047 507 1042 500 q 1053 547 1053 514 l 1053 604 l 700 604 q 864 436 785 533 l 789 396 l 789 313 l 1329 313 l 1329 171 l 840 171 q 1326 17 960 60 l 1261 -135 q 931 -42 1076 -108 q 704 108 786 24 q 468 -42 618 24 q 128 -135 318 -108 l 63 17 q 547 171 428 60 l 60 171 z "},"妃":{"ha":1389,"x_min":38,"x_max":1357,"o":"m 522 286 q 669 125 599 210 l 669 132 l 669 650 l 1111 650 l 1111 921 l 646 921 q 522 286 644 550 m 268 496 q 392 404 336 450 q 474 778 460 568 l 329 778 q 268 496 306 631 m 1171 313 l 1357 294 q 1350 164 1353 211 q 1338 67 1347 117 q 1319 -7 1328 17 q 1288 -56 1311 -31 q 1244 -88 1265 -81 q 1178 -104 1222 -96 q 1092 -113 1133 -112 q 976 -114 1050 -114 q 858 -112 901 -114 q 776 -101 814 -110 q 720 -78 738 -92 q 690 -37 703 -65 q 673 25 676 -8 q 669 114 669 58 l 553 1 q 438 135 481 88 q 136 -151 324 -35 l 38 -21 q 314 253 208 88 q 217 331 274 288 q 183 244 206 300 l 56 375 q 158 778 121 560 l 49 778 l 49 931 l 181 931 q 201 1135 186 974 l 371 1128 q 351 931 360 999 l 639 931 l 639 1079 l 1296 1079 l 1296 413 l 1111 413 l 1111 493 l 854 493 l 854 136 q 874 60 854 72 q 996 49 893 49 q 1040 49 1026 49 q 1075 51 1054 49 q 1103 55 1096 54 q 1124 66 1111 56 q 1140 81 1138 76 q 1151 106 1143 86 q 1159 138 1158 126 q 1163 184 1160 150 q 1167 240 1167 218 q 1171 313 1168 263 z "},"子":{"ha":1389,"x_min":56,"x_max":1333,"o":"m 236 928 l 236 1086 l 1176 1086 l 1176 928 q 813 642 1010 771 l 813 569 l 1333 569 l 1333 407 l 813 407 l 813 128 q 808 3 813 43 q 777 -63 803 -36 q 713 -95 751 -90 q 594 -100 675 -100 q 365 -93 542 -100 l 357 65 q 560 58 521 58 q 614 67 606 58 q 622 122 622 75 l 622 407 l 56 407 l 56 569 l 622 569 l 622 729 l 671 729 q 946 928 825 828 l 236 928 z "},"孔":{"ha":1389,"x_min":46,"x_max":1361,"o":"m 1081 44 l 1082 44 q 1161 60 1144 44 q 1193 218 1188 85 q 1197 400 1196 268 l 1361 382 q 1358 247 1358 293 q 1352 141 1357 201 q 1345 55 1347 81 q 1332 -7 1343 29 q 1315 -54 1321 -43 q 1289 -84 1310 -65 q 1254 -105 1268 -103 q 1207 -112 1240 -107 q 1150 -118 1174 -118 q 1076 -118 1126 -118 q 969 -117 1007 -118 q 897 -108 932 -115 q 849 -92 863 -101 q 824 -60 835 -83 q 811 -12 813 -37 q 810 58 810 13 l 810 1108 l 990 1108 l 990 100 q 1002 51 990 58 q 1081 44 1014 44 m 56 336 l 46 503 q 324 538 208 519 l 324 729 l 369 729 q 506 935 440 818 l 104 935 l 104 1093 l 694 1093 l 694 935 q 503 628 615 771 l 503 569 q 749 626 661 601 l 751 465 q 503 404 640 432 l 503 114 q 499 -10 503 31 q 478 -76 496 -50 q 433 -108 460 -103 q 350 -114 406 -114 q 149 -107 297 -114 l 139 51 q 278 44 225 44 q 317 52 311 44 q 322 108 322 60 l 322 371 q 56 336 204 353 z "},"孝":{"ha":1389,"x_min":44,"x_max":1338,"o":"m 825 796 q 971 914 906 854 l 739 914 l 739 796 l 825 796 m 736 368 q 908 431 822 396 l 515 431 q 183 296 356 354 l 646 296 l 646 368 l 736 368 m 646 100 l 646 153 l 93 153 l 93 296 l 44 424 q 260 494 157 456 l 260 563 l 424 563 q 599 650 526 611 l 51 650 l 51 796 l 549 796 l 549 914 l 171 914 l 171 1053 l 549 1053 l 549 1150 l 739 1150 l 739 1053 l 1010 1053 l 1010 951 q 1154 1114 1085 1025 l 1296 1021 q 1081 796 1206 906 l 1338 796 l 1338 650 l 894 650 q 760 563 826 601 l 1208 563 l 1208 431 q 913 296 1065 356 l 1324 296 l 1324 153 l 836 153 l 836 86 q 831 -22 836 13 q 801 -81 826 -57 q 737 -109 775 -104 q 618 -114 699 -114 q 389 -107 565 -114 l 381 42 q 586 35 544 35 q 638 44 629 35 q 646 100 646 53 z "},"孫":{"ha":1389,"x_min":38,"x_max":1372,"o":"m 358 25 q 635 274 511 135 l 749 164 q 465 -96 626 24 l 358 25 m 965 163 l 1079 279 q 1367 15 1217 165 l 1256 -100 q 965 163 1132 24 m 46 935 l 46 1093 l 475 1093 l 475 935 q 340 683 418 808 l 340 588 l 508 617 l 515 461 l 646 467 q 659 476 650 469 q 672 488 668 483 q 432 756 510 674 l 554 864 q 628 785 604 811 q 772 922 711 861 q 514 917 663 917 l 500 1069 q 1268 1128 972 1069 l 1297 979 q 1004 939 1189 957 q 733 668 857 779 q 766 630 744 656 q 797 593 788 604 q 1163 947 994 763 l 1286 844 q 896 478 1107 654 l 1138 489 q 1114 550 1131 507 q 1088 615 1097 593 l 1231 667 q 1372 289 1297 506 l 1233 238 q 1194 343 1231 247 l 949 331 l 949 -115 l 764 -115 l 764 321 l 403 303 l 399 433 l 340 422 l 340 114 q 331 -39 340 7 q 302 -99 322 -85 q 233 -114 282 -114 q 56 -107 197 -114 l 47 51 q 143 44 106 44 q 167 52 164 44 q 171 108 171 60 l 171 390 l 50 367 l 38 533 l 171 557 l 171 760 l 208 760 q 304 935 256 835 l 46 935 z "},"宇":{"ha":1389,"x_min":60,"x_max":1329,"o":"m 1108 868 l 281 868 l 281 764 l 1108 764 l 1108 868 m 615 614 l 257 614 l 257 671 l 101 671 l 101 1017 l 600 1017 l 600 1153 l 789 1153 l 789 1017 l 1288 1017 l 1288 671 l 1132 671 l 1132 614 l 806 614 l 806 447 l 1329 447 l 1329 289 l 806 289 l 806 50 q 801 -45 806 -15 q 772 -95 797 -75 q 709 -119 746 -115 q 590 -122 672 -122 q 364 -115 551 -122 l 354 39 q 563 32 525 32 q 608 38 601 32 q 615 79 615 44 l 615 289 l 60 289 l 60 447 l 615 447 l 615 614 z "},"安":{"ha":1389,"x_min":74,"x_max":1315,"o":"m 743 275 q 921 532 856 374 l 569 532 q 460 372 519 447 q 743 275 579 338 m 1114 872 l 275 872 l 275 736 l 101 736 l 101 1017 l 600 1017 l 600 1149 l 789 1149 l 789 1017 l 1288 1017 l 1288 736 l 1114 736 l 1114 872 m 74 532 l 74 685 l 447 685 q 519 849 482 757 l 706 831 q 649 685 683 763 l 1315 685 l 1315 532 l 1110 532 q 917 201 1043 332 q 1292 7 1100 117 l 1188 -129 q 779 89 964 4 q 149 -115 561 -51 l 104 38 q 583 169 410 83 q 351 246 475 210 q 326 220 343 238 q 301 194 310 203 l 158 282 q 360 532 276 404 l 74 532 z "},"宏":{"ha":1389,"x_min":61,"x_max":1346,"o":"m 1104 864 l 285 864 l 285 718 l 108 718 l 108 1017 l 600 1017 l 600 1153 l 789 1153 l 789 1017 l 1281 1017 l 1281 718 l 1104 718 l 1104 864 m 947 338 l 1110 403 q 1346 -62 1249 165 l 1182 -126 q 1133 -18 1144 -40 q 361 -79 701 -68 l 354 47 q 197 -115 285 -36 l 61 -1 q 415 496 300 208 l 76 496 l 76 653 l 468 653 q 501 825 488 721 l 692 810 q 660 653 681 736 l 1313 653 l 1313 496 l 611 496 q 378 78 528 268 q 437 81 399 79 q 508 83 475 82 q 568 86 540 85 q 754 469 667 263 l 932 432 q 776 101 863 265 q 1061 126 915 111 q 947 338 1019 210 z "},"宗":{"ha":1389,"x_min":67,"x_max":1324,"o":"m 1132 681 l 1132 622 l 257 622 l 257 681 l 101 681 l 101 1024 l 600 1024 l 600 1160 l 789 1160 l 789 1024 l 1288 1024 l 1288 681 l 1132 681 m 1108 875 l 281 875 l 281 774 l 1108 774 l 1108 875 m 1319 507 l 1319 354 l 813 354 l 813 89 q 810 6 813 36 q 799 -51 808 -25 q 778 -90 790 -78 q 740 -110 767 -101 q 682 -120 713 -118 q 597 -122 651 -122 q 407 -115 528 -122 l 399 35 q 563 28 510 28 q 615 34 607 28 q 622 78 622 40 l 622 354 l 69 354 l 69 507 l 1319 507 m 67 29 q 356 314 226 147 l 479 217 q 178 -89 349 39 l 67 29 m 896 208 l 1013 324 q 1324 17 1183 171 l 1206 -96 q 896 208 1053 69 z "},"定":{"ha":1389,"x_min":47,"x_max":1324,"o":"m 275 764 l 1114 764 l 1114 868 l 275 868 l 275 764 m 1324 46 l 1315 -111 l 1222 -111 q 647 -54 844 -111 q 331 153 450 3 q 206 -132 282 13 l 47 -67 q 250 510 186 206 l 419 476 q 386 331 406 403 q 622 117 475 176 l 622 617 l 261 617 l 261 676 l 101 676 l 101 1017 l 600 1017 l 600 1149 l 789 1149 l 789 1017 l 1288 1017 l 1288 676 l 1128 676 l 1128 615 l 811 615 l 811 444 l 1204 444 l 1204 296 l 811 296 l 811 69 q 1226 46 965 46 l 1324 46 z "},"実":{"ha":1389,"x_min":74,"x_max":1315,"o":"m 826 236 q 1315 39 936 92 l 1254 -121 q 929 -17 1074 -89 q 704 149 785 56 q 472 -17 621 56 q 135 -121 322 -90 l 74 39 q 563 236 453 93 l 74 236 l 74 386 l 600 386 l 600 464 l 208 464 l 208 603 l 600 603 l 600 678 l 194 678 l 194 775 l 93 775 l 93 1046 l 600 1046 l 600 1149 l 789 1149 l 789 1046 l 1296 1046 l 1296 775 l 1194 775 l 1194 678 l 789 678 l 789 603 l 1181 603 l 1181 464 l 789 464 l 789 386 l 1315 386 l 1315 236 l 826 236 m 1125 900 l 789 900 l 789 821 l 1125 821 l 1125 900 m 264 821 l 600 821 l 600 900 l 264 900 l 264 821 z "},"宥":{"ha":1389,"x_min":28,"x_max":1319,"o":"m 660 811 l 1111 811 l 1111 911 l 539 911 l 683 878 q 660 811 676 856 m 456 811 q 494 911 482 871 l 278 911 l 278 811 l 456 811 m 454 404 l 1039 404 l 1039 476 l 454 476 l 454 404 m 454 288 l 454 211 l 1039 211 l 1039 288 l 454 288 m 97 215 l 28 386 q 376 676 257 513 l 69 676 l 69 811 l 107 811 l 107 1058 l 600 1058 l 600 1156 l 789 1156 l 789 1058 l 1282 1058 l 1282 811 l 1319 811 l 1319 676 l 596 676 q 553 608 574 639 l 1229 608 l 1229 67 q 1228 -9 1229 18 q 1217 -60 1226 -36 q 1197 -95 1208 -85 q 1159 -114 1186 -106 q 1101 -124 1132 -122 q 1017 -125 1071 -125 q 808 -118 958 -125 l 803 29 q 993 22 953 22 q 1033 26 1028 22 q 1039 57 1039 31 l 1039 94 l 454 94 l 454 -128 l 264 -128 l 264 321 q 97 215 178 260 z "},"宮":{"ha":1389,"x_min":74,"x_max":1315,"o":"m 469 574 l 919 574 l 919 681 l 469 681 l 469 574 m 365 -58 l 365 -122 l 181 -122 l 181 354 l 540 354 q 568 439 560 410 l 469 439 l 285 439 l 285 831 l 1104 831 l 1104 439 l 763 439 q 738 354 754 410 l 1208 354 l 1208 -122 l 1024 -122 l 1024 -58 l 365 -58 m 365 81 l 1024 81 l 1024 206 l 365 206 l 365 81 m 789 1049 l 1315 1049 l 1315 697 l 1135 697 l 1135 896 l 254 896 l 254 697 l 74 697 l 74 1049 l 600 1049 l 600 1169 l 789 1169 l 789 1049 z "},"家":{"ha":1389,"x_min":81,"x_max":1346,"o":"m 1128 918 l 261 918 l 261 854 l 1128 854 l 1128 918 m 478 47 q 643 40 589 40 q 683 57 675 40 q 692 142 692 74 q 689 207 692 165 q 147 -87 476 33 l 82 63 q 656 351 442 181 q 624 417 643 383 q 151 176 439 281 l 92 317 q 546 519 369 404 q 486 576 538 529 q 161 431 340 494 l 100 567 q 467 707 314 629 l 201 707 l 201 771 l 81 771 l 81 1063 l 600 1063 l 600 1176 l 789 1176 l 789 1063 l 1308 1063 l 1308 771 l 1188 771 l 1188 707 l 936 707 q 1011 485 961 590 q 1165 656 1090 560 l 1293 564 q 1090 339 1201 442 q 1346 60 1189 186 l 1231 -87 q 934 255 1063 38 q 763 707 806 472 l 682 707 q 653 685 672 699 q 628 667 635 672 q 809 424 743 564 q 875 142 875 285 q 835 -59 875 -4 q 706 -114 796 -114 q 481 -107 613 -114 l 478 47 z "},"将":{"ha":1389,"x_min":14,"x_max":1357,"o":"m 485 1063 q 1294 1128 1008 1071 l 1324 979 q 499 910 1007 918 l 485 1063 m 722 572 l 567 528 q 453 832 511 708 l 604 879 q 722 572 669 744 m 844 557 q 736 869 789 750 l 892 914 q 1000 600 950 779 l 844 557 m 893 111 l 774 0 q 549 225 678 107 l 651 326 l 479 326 l 479 476 l 1056 476 l 1056 563 l 1172 563 l 1038 610 q 1175 944 1110 738 l 1336 900 q 1201 563 1269 689 l 1240 563 l 1240 476 l 1357 476 l 1357 326 l 1240 326 l 1240 108 q 1238 17 1240 50 q 1226 -45 1236 -15 q 1204 -87 1217 -75 q 1162 -109 1192 -100 q 1098 -120 1132 -118 q 1004 -122 1064 -122 q 847 -115 968 -122 l 838 35 q 972 28 942 28 q 1044 37 1033 28 q 1056 97 1056 46 l 1056 326 l 679 326 q 893 111 797 219 m 21 885 l 168 956 q 253 774 221 850 l 253 1129 l 426 1129 l 426 -129 l 253 -129 l 253 236 q 71 144 183 197 l 14 307 q 253 425 129 357 l 253 594 l 172 554 q 21 885 103 726 z "},"尋":{"ha":1389,"x_min":65,"x_max":1324,"o":"m 831 439 l 1125 439 l 1125 503 l 831 503 l 831 439 m 1042 779 l 1042 822 l 181 822 l 181 924 l 1042 924 l 1042 964 l 153 964 l 153 1101 l 1232 1101 l 1232 664 l 153 664 l 153 779 l 1042 779 m 74 299 l 65 418 q 261 431 165 425 l 261 507 l 81 507 l 81 622 l 625 622 l 625 507 l 442 507 l 442 447 q 625 467 593 463 l 625 347 q 74 299 413 317 m 497 -108 q 206 51 361 -22 l 260 132 l 65 132 l 65 271 l 935 271 l 935 322 l 831 322 l 669 322 l 669 622 l 1294 622 l 1294 322 l 1125 322 l 1125 271 l 1324 271 l 1324 132 l 1125 132 l 1125 67 q 1124 -11 1125 17 q 1113 -64 1122 -39 q 1090 -99 1103 -89 q 1047 -117 1078 -110 q 983 -126 1017 -125 q 889 -128 950 -128 q 642 -121 833 -128 l 632 25 q 851 18 808 18 q 924 26 914 18 q 935 78 935 33 l 935 132 l 378 132 q 579 24 482 82 l 497 -108 z "},"小":{"ha":1389,"x_min":21,"x_max":1368,"o":"m 614 1129 l 803 1129 l 803 101 q 801 12 803 44 q 790 -50 799 -21 q 769 -91 781 -79 q 729 -112 757 -103 q 670 -124 701 -122 q 583 -125 639 -125 q 358 -118 556 -125 l 350 44 q 551 38 528 38 q 606 46 597 38 q 614 101 614 54 l 614 1129 m 390 794 q 197 119 333 440 l 21 178 q 213 828 153 481 l 390 794 m 981 789 l 1154 842 q 1368 158 1286 500 l 1189 111 q 981 789 1107 444 z "},"尭":{"ha":1389,"x_min":64,"x_max":1324,"o":"m 465 726 l 600 726 l 600 878 l 129 878 l 129 1025 l 600 1025 l 600 1149 l 789 1149 l 789 1025 l 1260 1025 l 1260 878 l 789 878 l 789 726 l 924 726 l 924 824 l 1094 824 l 1094 726 l 1319 726 l 1319 574 l 1094 574 l 1094 442 l 1289 442 l 1289 299 l 940 299 l 940 79 q 955 47 940 53 q 1044 42 969 42 q 1085 42 1074 42 q 1113 50 1097 42 q 1131 64 1128 58 q 1141 97 1135 69 q 1149 147 1147 125 q 1153 226 1150 169 l 1324 208 q 1317 103 1319 136 q 1307 28 1315 71 q 1294 -31 1299 -15 q 1271 -67 1290 -46 q 1238 -92 1251 -87 q 1187 -102 1225 -96 q 1121 -108 1149 -108 q 1031 -108 1093 -108 q 847 -99 901 -108 q 773 -66 792 -90 q 754 17 754 -42 l 754 299 l 588 299 q 142 -128 551 -25 l 64 21 q 404 299 371 93 l 100 299 l 100 442 l 294 442 l 294 574 l 69 574 l 69 726 l 294 726 l 294 824 l 465 824 l 465 726 m 465 574 l 465 442 l 924 442 l 924 574 l 465 574 z "},"尾":{"ha":1389,"x_min":35,"x_max":1338,"o":"m 326 860 l 1093 860 l 1093 957 l 326 957 l 326 860 m 1157 149 l 1338 115 q 1331 40 1333 65 q 1318 -17 1328 14 q 1301 -60 1308 -47 q 1270 -87 1294 -72 q 1226 -107 1246 -103 q 1159 -116 1206 -111 q 1071 -121 1113 -121 q 951 -121 1029 -121 q 855 -121 890 -121 q 783 -117 819 -121 q 730 -111 747 -114 q 694 -99 713 -108 q 671 -82 676 -90 q 660 -56 665 -74 q 653 -22 654 -37 q 653 24 653 -6 l 653 100 l 329 67 l 322 210 l 653 244 l 653 318 l 375 289 l 368 422 l 653 453 l 653 526 q 382 508 538 515 l 368 650 q 1092 725 790 665 l 326 725 l 326 553 q 161 -121 326 133 l 35 33 q 122 294 96 150 q 149 678 149 438 l 149 1099 l 1275 1099 l 1275 725 l 1192 725 l 1218 610 q 843 547 1058 575 l 843 474 l 1264 519 l 1271 386 l 843 339 l 843 264 l 1313 314 l 1319 169 l 843 119 l 843 72 q 858 30 843 36 q 965 24 874 24 q 1043 24 1022 24 q 1092 29 1064 24 q 1126 38 1121 35 q 1142 61 1132 42 q 1153 95 1151 81 q 1157 149 1154 110 z "},"屋":{"ha":1389,"x_min":28,"x_max":1303,"o":"m 982 468 q 944 513 969 483 q 907 557 919 543 l 696 557 q 635 442 669 504 q 982 468 825 453 m 233 36 l 681 36 l 681 114 l 333 114 l 333 243 l 681 243 l 681 311 q 346 294 510 299 l 338 428 l 438 432 q 506 557 447 447 l 317 557 l 317 551 q 233 36 317 250 m 317 882 l 1072 882 l 1072 960 l 317 960 l 317 882 m 142 1097 l 1254 1097 l 1254 756 l 317 756 l 317 690 l 1285 690 l 1285 557 l 1115 557 q 1286 347 1213 447 l 1143 267 q 1081 347 1122 294 q 957 335 1038 342 q 865 326 876 328 l 865 243 l 1226 243 l 1226 114 l 865 114 l 865 36 l 1303 36 l 1303 -107 l 225 -107 l 225 13 q 154 -122 201 -46 l 28 32 q 115 299 89 154 q 142 676 142 444 l 142 1097 z "},"山":{"ha":1389,"x_min":108,"x_max":1281,"o":"m 289 801 l 289 149 l 600 149 l 600 1121 l 789 1121 l 789 149 l 1100 149 l 1100 801 l 1281 801 l 1281 -107 l 1100 -107 l 1100 -14 l 289 -14 l 289 -107 l 108 -107 l 108 801 l 289 801 z "},"岡":{"ha":1389,"x_min":100,"x_max":1289,"o":"m 1108 108 l 1108 954 l 281 954 l 281 -115 l 100 -115 l 100 1107 l 1289 1107 l 1289 115 q 1288 26 1289 58 q 1278 -35 1286 -7 q 1258 -76 1269 -64 q 1222 -98 1247 -89 q 1167 -109 1196 -107 q 1086 -111 1138 -111 q 850 -104 1040 -111 l 840 51 q 1044 44 1024 44 q 1099 53 1090 44 q 1108 108 1108 63 m 1060 538 l 779 538 l 779 288 l 864 288 l 864 476 l 1018 476 l 1018 88 l 864 88 l 864 139 l 525 139 l 525 4 l 371 4 l 371 476 l 525 476 l 525 288 l 610 288 l 610 538 l 329 538 l 329 685 l 482 685 q 413 889 447 799 l 567 931 q 650 685 617 803 l 726 685 q 833 936 789 800 l 986 892 q 900 685 950 779 l 1060 685 l 1060 538 z "},"岩":{"ha":1389,"x_min":31,"x_max":1315,"o":"m 496 88 l 1046 88 l 1046 292 l 496 292 l 496 88 m 1260 788 l 129 788 l 129 1074 l 310 1074 l 310 931 l 601 931 l 601 1135 l 788 1135 l 788 931 l 1079 931 l 1079 1074 l 1260 1074 l 1260 788 m 1046 -115 l 1046 -51 l 496 -51 l 496 -115 l 315 -115 l 315 214 q 92 72 210 131 l 31 231 q 428 551 303 364 l 74 551 l 74 704 l 1315 704 l 1315 551 l 642 551 q 571 440 617 503 l 1232 440 l 1232 -115 l 1046 -115 z "},"岳":{"ha":1389,"x_min":56,"x_max":1333,"o":"m 889 493 l 889 708 l 438 708 l 438 493 l 889 493 m 600 340 l 56 340 l 56 493 l 247 493 l 247 917 l 247 1065 q 756 1085 510 1065 q 1143 1135 1003 1104 l 1192 982 q 438 919 933 931 l 438 847 l 1268 847 l 1268 708 l 1074 708 l 1074 493 l 1333 493 l 1333 340 l 789 340 l 789 90 l 1053 90 l 1053 292 l 1240 292 l 1240 -135 l 1053 -135 l 1053 -62 l 336 -62 l 336 -135 l 149 -135 l 149 292 l 336 292 l 336 90 l 600 90 l 600 340 z "},"岸":{"ha":1389,"x_min":40,"x_max":1310,"o":"m 1261 815 l 146 815 l 146 1090 l 326 1090 l 326 956 l 625 956 l 625 1129 l 810 1129 l 810 956 l 1081 956 l 1081 1090 l 1261 1090 l 1261 815 m 1308 597 l 319 597 l 319 432 q 283 108 319 239 q 167 -129 247 -22 l 40 4 q 124 216 101 103 q 146 547 146 329 l 146 743 l 1308 743 l 1308 597 m 903 271 l 1310 271 l 1310 121 l 903 121 l 903 -135 l 713 -135 l 713 121 l 338 121 l 338 271 l 713 271 l 713 379 l 389 379 l 389 521 l 1260 521 l 1260 379 l 903 379 l 903 271 z "},"島":{"ha":1389,"x_min":90,"x_max":1313,"o":"m 938 31 q 1038 28 1024 28 q 1086 61 1075 28 q 1100 228 1097 94 l 608 228 l 608 88 l 771 88 l 771 192 l 938 192 l 938 31 m 368 760 l 368 697 l 982 697 l 982 760 l 368 760 m 368 865 l 982 865 l 982 929 l 368 929 l 368 865 m 1107 -122 q 844 -114 1003 -122 l 839 -44 l 268 -44 l 268 -108 l 90 -108 l 90 192 l 268 192 l 268 88 l 431 88 l 431 228 l 183 228 l 183 1058 l 519 1058 q 546 1172 532 1104 l 736 1161 q 711 1058 731 1135 l 1167 1058 l 1167 583 l 368 583 l 368 532 l 1313 532 l 1313 403 l 368 403 l 368 351 l 1281 351 l 1281 281 q 1263 22 1281 108 q 1211 -93 1246 -64 q 1107 -122 1176 -122 z "},"崇":{"ha":1389,"x_min":67,"x_max":1322,"o":"m 279 547 l 1108 547 l 1108 617 l 279 617 l 279 547 m 789 761 l 1286 761 l 1286 456 l 1132 456 l 1132 411 l 257 411 l 257 456 l 101 456 l 101 761 l 599 761 l 599 833 l 122 833 l 122 1104 l 303 1104 l 303 975 l 600 975 l 600 1143 l 789 1143 l 789 975 l 1086 975 l 1086 1104 l 1267 1104 l 1267 833 l 789 833 l 789 761 m 1319 339 l 1319 196 l 1032 196 q 1322 18 1185 111 l 1238 -115 q 881 97 1060 3 l 943 196 l 813 196 l 813 53 q 778 -95 813 -67 q 599 -124 743 -124 q 407 -117 528 -124 l 399 26 q 563 19 510 19 q 615 26 607 19 q 622 67 622 32 l 622 196 l 419 196 l 489 103 q 146 -111 333 -28 l 67 21 q 363 196 222 90 l 69 196 l 69 339 l 1319 339 z "},"崎":{"ha":1389,"x_min":72,"x_max":1357,"o":"m 1193 608 q 917 769 1053 704 q 699 608 829 657 l 1193 608 m 761 269 l 761 158 l 890 158 l 890 269 l 761 269 m 1101 93 l 1101 458 l 544 458 l 544 -24 l 225 -24 l 225 -101 l 72 -101 l 72 954 l 201 954 l 201 129 l 240 129 l 240 1122 l 378 1122 l 378 129 l 417 129 l 417 954 l 544 954 l 544 608 l 606 608 l 556 726 q 801 889 735 767 l 579 889 l 579 1039 l 847 1039 q 854 1153 854 1097 l 1035 1153 q 1026 1039 1035 1093 l 1322 1039 l 1322 889 l 985 889 q 1344 701 1186 801 l 1299 608 l 1357 608 l 1357 456 l 1274 456 l 1274 107 q 1272 17 1274 51 q 1263 -44 1269 -17 q 1246 -85 1256 -72 q 1215 -108 1236 -99 q 1169 -119 1193 -117 q 1104 -121 1146 -121 q 910 -114 1028 -121 l 901 28 l 769 28 l 769 -53 l 608 -53 l 608 400 l 761 400 l 1032 400 l 1032 28 l 1058 28 q 1095 37 1089 28 q 1101 93 1101 46 z "},"嶋":{"ha":1389,"x_min":65,"x_max":1358,"o":"m 1090 232 q 1135 39 1114 144 q 1160 232 1156 64 l 1090 232 m 767 764 l 767 701 l 1094 701 l 1094 764 l 767 764 m 767 869 l 1094 869 l 1094 933 l 767 933 l 767 869 m 406 954 l 531 954 l 531 89 q 554 213 547 169 l 672 188 q 603 -136 647 26 l 485 -90 q 503 -24 492 -68 l 219 -24 l 219 -101 l 65 -101 l 65 954 l 189 954 l 189 129 l 232 129 l 232 1122 l 364 1122 l 364 129 l 406 129 l 406 954 m 711 -104 q 683 178 704 6 l 797 199 q 829 -83 821 40 l 711 -104 m 876 -60 q 836 188 867 22 l 944 213 q 978 36 967 103 q 1025 32 992 35 q 983 208 1004 133 l 1071 232 l 586 232 l 586 1060 l 778 1060 q 803 1175 783 1078 l 993 1164 q 971 1060 981 1097 l 1275 1060 l 1275 588 l 767 588 l 767 536 l 1358 536 l 1358 407 l 767 407 l 767 356 l 1331 356 l 1331 282 q 1313 19 1331 107 q 1264 -95 1296 -68 q 1169 -122 1232 -122 q 985 -114 1094 -122 l 979 -37 l 876 -60 z "},"川":{"ha":1389,"x_min":39,"x_max":1274,"o":"m 1088 -100 l 1088 1090 l 1274 1090 l 1274 -100 l 1088 -100 m 636 21 l 636 1053 l 817 1053 l 817 21 l 636 21 m 204 1090 l 385 1090 l 385 539 q 338 157 385 307 q 183 -114 290 7 l 39 -15 q 169 231 135 103 q 204 608 204 360 l 204 1090 z "},"巧":{"ha":1389,"x_min":46,"x_max":1351,"o":"m 601 176 q 61 35 393 94 l 46 192 q 229 229 139 208 l 229 831 l 63 831 l 63 983 l 517 983 l 517 1060 l 1351 1060 l 1351 899 l 892 899 q 843 685 874 793 l 1301 685 q 1286 374 1294 499 q 1263 157 1278 249 q 1230 15 1247 65 q 1182 -65 1213 -36 q 1119 -103 1151 -94 q 1035 -111 1086 -111 q 782 -97 947 -111 l 774 69 q 979 56 907 56 q 1042 83 1021 56 q 1080 213 1063 111 q 1111 528 1097 315 l 790 528 q 706 340 751 426 l 525 386 q 701 899 651 621 l 576 899 l 576 831 l 410 831 l 410 274 q 589 331 518 303 l 601 176 z "},"市":{"ha":1389,"x_min":65,"x_max":1324,"o":"m 1324 851 l 782 851 l 782 708 l 1257 708 l 1257 208 q 1255 119 1257 151 q 1244 58 1253 86 q 1225 17 1236 29 q 1189 -5 1214 4 q 1135 -16 1164 -14 q 1058 -18 1107 -18 q 886 -11 1028 -18 l 878 146 q 1021 139 1007 139 q 1069 148 1061 139 q 1076 204 1076 157 l 1076 551 l 782 551 l 782 -143 l 593 -143 l 593 551 l 313 551 l 313 -18 l 132 -18 l 132 708 l 593 708 l 593 851 l 65 851 l 65 1010 l 593 1010 l 593 1143 l 782 1143 l 782 1010 l 1324 1010 l 1324 851 z "},"帆":{"ha":1389,"x_min":46,"x_max":1371,"o":"m 385 282 l 389 282 q 421 292 417 282 q 425 365 425 301 l 425 796 l 385 796 l 385 282 m 782 928 l 782 822 l 782 722 l 840 771 q 983 510 917 644 l 983 928 l 782 928 m 385 954 l 558 954 l 558 226 q 608 840 608 397 l 608 1090 l 1163 1090 l 1163 114 q 1165 65 1163 72 q 1186 58 1168 58 q 1210 75 1206 58 q 1225 442 1221 110 l 1371 424 q 1350 6 1367 85 q 1281 -93 1333 -74 q 1147 -104 1249 -104 q 1011 -74 1039 -104 q 983 72 983 -44 l 983 319 l 917 264 q 776 550 863 396 q 713 135 763 279 q 554 -131 663 -10 l 432 8 q 521 132 489 69 q 426 115 489 115 l 417 115 l 385 253 l 385 -129 l 225 -129 l 225 796 l 183 796 l 183 101 l 46 101 l 46 954 l 225 954 l 225 1129 l 385 1129 l 385 954 z "},"希":{"ha":1389,"x_min":28,"x_max":1308,"o":"m 489 426 l 683 426 l 683 546 l 574 546 q 489 426 544 497 m 456 278 l 456 -87 l 281 -87 l 281 221 q 110 69 193 128 l 28 231 q 360 546 240 374 l 81 546 l 81 699 l 446 699 q 481 783 461 735 q 169 731 318 749 l 108 872 q 510 946 314 897 q 229 1024 350 994 l 342 1139 q 758 1019 546 1089 q 1088 1161 947 1083 l 1213 1043 q 988 939 1132 999 q 1282 821 1078 906 l 1158 707 q 769 860 957 792 q 554 800 676 831 l 681 792 q 649 699 669 750 l 1308 699 l 1308 546 l 868 546 l 868 426 l 1271 426 l 1271 121 q 1269 43 1271 71 q 1260 -9 1268 15 q 1241 -44 1251 -33 q 1205 -62 1231 -54 q 1151 -71 1179 -69 q 1072 -72 1124 -72 q 944 -65 1033 -72 l 940 86 q 1044 79 1031 79 q 1085 83 1079 79 q 1090 114 1090 88 l 1090 278 l 868 278 l 868 -143 l 683 -143 l 683 278 l 456 278 z "},"帯":{"ha":1389,"x_min":56,"x_max":1333,"o":"m 1194 883 l 1194 656 l 194 656 l 194 883 l 56 883 l 56 1031 l 194 1031 l 194 1121 l 368 1121 l 368 1031 l 600 1031 l 600 1135 l 789 1135 l 789 1031 l 1021 1031 l 1021 1121 l 1194 1121 l 1194 1031 l 1333 1031 l 1333 883 l 1194 883 m 1021 883 l 789 883 l 789 792 l 1021 792 l 1021 883 m 247 354 l 588 354 l 588 442 l 247 442 l 247 354 m 778 354 l 1142 354 l 1142 442 l 778 442 l 778 354 m 368 792 l 600 792 l 600 883 l 368 883 l 368 792 m 1004 -69 q 863 -62 965 -69 l 860 89 q 983 82 964 82 q 1014 86 1010 82 q 1018 117 1018 90 l 1018 210 l 778 210 l 778 -143 l 588 -143 l 588 210 l 371 210 l 371 -72 l 194 -72 l 194 289 l 69 289 l 69 593 l 1319 593 l 1319 289 l 1194 289 l 1194 128 q 1165 -38 1194 -7 q 1004 -69 1135 -69 z "},"常":{"ha":1389,"x_min":81,"x_max":1308,"o":"m 261 800 l 1128 800 l 1128 850 l 261 850 l 261 800 m 444 419 l 260 419 l 260 643 l 81 643 l 81 990 l 290 990 q 222 1107 246 1071 l 385 1142 q 475 990 435 1067 l 600 990 l 600 1156 l 789 1156 l 789 990 l 922 990 q 1003 1146 971 1075 l 1163 1110 q 1101 990 1138 1056 l 1308 990 l 1308 643 l 1129 643 l 1129 419 l 782 419 l 782 361 l 1239 361 l 1239 132 q 1234 18 1239 56 q 1208 -43 1229 -19 q 1157 -72 1188 -67 q 1063 -76 1126 -76 q 896 -69 1008 -76 l 886 85 q 1011 78 993 78 q 1051 86 1044 78 q 1058 133 1058 94 l 1058 207 l 782 207 l 782 -129 l 593 -129 l 593 207 l 331 207 l 331 -81 l 150 -81 l 150 361 l 593 361 l 593 419 l 444 419 m 444 546 l 944 546 l 944 669 l 444 669 l 444 546 z "},"平":{"ha":1389,"x_min":53,"x_max":1336,"o":"m 1281 940 l 789 940 l 789 456 l 1336 456 l 1336 299 l 789 299 l 789 -129 l 600 -129 l 600 299 l 53 299 l 53 456 l 600 456 l 600 940 l 108 940 l 108 1093 l 1281 1093 l 1281 940 m 340 507 q 165 840 256 688 l 324 915 q 500 581 415 765 l 340 507 m 1224 846 q 1047 506 1150 668 l 890 582 q 1061 914 992 744 l 1224 846 z "},"幸":{"ha":1389,"x_min":69,"x_max":1319,"o":"m 561 454 l 821 454 q 915 663 872 551 l 492 663 q 561 454 529 560 m 600 306 l 83 306 l 83 454 l 371 454 q 299 663 346 535 l 69 663 l 69 810 l 600 810 l 600 917 l 143 917 l 143 1056 l 600 1056 l 600 1157 l 789 1157 l 789 1056 l 1246 1056 l 1246 917 l 789 917 l 789 810 l 1319 810 l 1319 663 l 1108 663 q 1019 454 1074 563 l 1306 454 l 1306 306 l 789 306 l 789 188 l 1264 188 l 1264 49 l 789 49 l 789 -143 l 600 -143 l 600 49 l 125 49 l 125 188 l 600 188 l 600 306 z "},"幹":{"ha":1389,"x_min":46,"x_max":1378,"o":"m 239 468 l 239 383 l 479 383 l 479 468 l 239 468 m 239 588 l 479 588 l 479 668 l 239 668 l 239 588 m 624 789 l 604 835 q 653 872 638 860 l 442 872 l 442 789 l 624 789 m 1194 778 q 986 1010 1079 881 q 783 778 897 883 l 1194 778 m 1336 419 l 1336 261 l 1093 261 l 1093 -135 l 907 -135 l 907 261 l 667 261 l 667 419 l 907 419 l 907 628 l 706 628 l 706 711 q 688 697 700 706 q 669 683 676 688 l 639 754 l 639 261 l 442 261 l 442 178 l 671 178 l 671 35 l 442 35 l 442 -135 l 267 -135 l 267 35 l 46 35 l 46 178 l 267 178 l 267 261 l 239 261 l 69 261 l 69 789 l 267 789 l 267 872 l 46 872 l 46 1017 l 267 1017 l 267 1135 l 442 1135 l 442 1017 l 669 1017 l 669 886 q 911 1136 803 996 l 1061 1136 q 1378 839 1200 969 l 1313 683 q 1292 699 1306 689 q 1271 714 1278 708 l 1271 628 l 1093 628 l 1093 419 l 1336 419 z "},"広":{"ha":1389,"x_min":33,"x_max":1338,"o":"m 894 404 l 1054 482 q 1338 -56 1214 201 l 1176 -132 q 1113 -3 1157 -92 q 285 -87 679 -71 l 275 69 q 397 75 358 72 q 669 807 549 417 l 854 767 q 601 90 740 406 q 1039 139 800 107 q 894 404 967 278 m 817 1007 l 1301 1007 l 1301 850 l 322 850 l 322 567 q 161 -125 322 124 l 33 28 q 117 287 92 138 q 143 697 143 436 l 143 1007 l 628 1007 l 628 1160 l 817 1160 l 817 1007 z "},"康":{"ha":1389,"x_min":26,"x_max":1335,"o":"m 896 476 l 1086 476 l 1086 536 l 896 536 l 896 476 m 711 160 q 547 29 632 89 q 660 24 614 24 q 703 33 694 24 q 711 89 711 43 l 711 160 m 711 728 l 340 728 l 340 850 l 711 850 l 711 901 l 289 901 l 289 671 l 711 671 l 711 728 m 896 728 l 896 671 l 1086 671 l 1086 728 l 896 728 m 564 226 q 647 294 613 264 l 711 215 l 711 356 l 438 356 q 564 226 503 294 m 1026 236 q 1151 356 1088 288 l 921 356 q 1026 236 963 297 m 1140 142 q 1335 28 1233 74 l 1250 -111 q 896 171 1043 -10 l 896 100 q 891 -24 896 17 q 863 -90 886 -64 q 806 -122 840 -117 q 697 -126 771 -126 q 539 -119 647 -126 l 531 18 q 324 -106 429 -51 l 233 22 q 446 143 346 78 q 314 274 396 196 l 400 356 l 340 356 l 340 476 l 711 476 l 711 536 l 289 536 l 289 517 q 256 138 289 292 q 154 -137 224 -15 l 26 19 q 95 258 76 128 q 114 651 114 389 l 114 1050 l 628 1050 l 628 1161 l 817 1161 l 817 1050 l 1315 1050 l 1315 901 l 896 901 l 896 850 l 1254 850 l 1254 671 l 1329 671 l 1329 536 l 1254 536 l 1254 358 l 1307 311 q 1140 142 1233 224 z "},"廣":{"ha":1389,"x_min":21,"x_max":1333,"o":"m 649 925 l 649 881 l 954 881 l 954 925 l 649 925 m 649 739 l 954 739 l 954 781 l 649 781 l 649 739 m 714 235 l 525 235 l 525 188 l 714 188 l 714 235 m 888 235 l 888 188 l 1076 188 l 1076 235 l 888 235 m 714 318 l 714 363 l 525 363 l 525 318 l 714 318 m 888 318 l 1076 318 l 1076 363 l 888 363 l 888 318 m 1333 497 l 896 497 l 896 461 l 1257 461 l 1257 88 l 1097 88 q 1329 -11 1233 38 l 1260 -147 q 876 13 1093 -57 l 907 88 l 689 88 l 722 17 q 332 -146 575 -83 l 274 -8 q 554 88 435 35 l 525 88 l 344 88 l 344 461 l 706 461 l 706 497 l 285 497 q 153 -136 283 97 l 21 21 q 89 258 69 125 q 108 653 108 392 l 108 1067 l 643 1067 l 643 1169 l 833 1169 l 833 1067 l 1329 1067 l 1329 925 l 1139 925 l 1139 881 l 1324 881 l 1324 746 l 1139 746 l 1139 656 l 649 656 l 463 656 l 463 746 l 313 746 l 313 881 l 463 881 l 463 925 l 285 925 l 285 622 l 1333 622 l 1333 497 z "},"弘":{"ha":1389,"x_min":74,"x_max":1372,"o":"m 625 629 l 279 629 q 267 465 274 553 l 597 465 q 569 76 583 174 q 607 79 582 78 q 644 82 632 81 q 886 1121 797 592 l 1074 1094 q 839 100 978 576 q 1129 140 1004 119 q 1019 519 1068 369 l 1192 574 q 1372 -71 1306 243 l 1194 -124 q 1167 -6 1186 -86 q 575 -81 857 -62 l 564 38 q 515 -90 546 -62 q 419 -118 485 -118 q 115 -108 349 -118 l 111 49 q 344 39 311 39 q 372 43 364 39 q 388 77 379 47 q 400 158 396 107 q 411 317 404 208 l 253 317 q 243 226 247 256 l 74 236 q 117 778 100 479 l 447 778 l 447 940 l 86 940 l 86 1093 l 625 1093 l 625 629 z "},"弥":{"ha":1389,"x_min":51,"x_max":1375,"o":"m 843 636 q 625 7 774 296 l 501 69 q 467 -56 489 -15 q 419 -108 446 -97 q 340 -118 393 -118 q 94 -108 283 -118 l 90 49 q 260 39 231 39 q 324 74 313 39 q 346 317 335 110 l 228 317 q 217 226 225 282 l 51 236 q 93 778 75 451 l 351 778 l 351 940 l 69 940 l 69 1093 l 525 1093 l 525 758 q 669 1160 624 942 l 831 1129 q 799 993 819 1065 l 1340 993 l 1340 836 l 1058 836 l 1058 104 q 1057 14 1058 47 q 1048 -48 1056 -19 q 1031 -89 1040 -76 q 1000 -110 1022 -101 q 953 -121 978 -119 q 886 -122 929 -122 q 706 -115 817 -122 l 697 42 q 833 35 789 35 q 874 43 868 35 q 879 100 879 51 l 879 836 l 747 836 q 643 618 700 715 l 525 688 l 525 629 l 254 629 q 242 465 249 553 l 531 465 q 513 160 522 264 q 692 682 631 408 l 843 636 m 1067 650 l 1226 694 q 1375 51 1319 364 l 1215 -3 q 1067 650 1157 304 z "},"彌":{"ha":1389,"x_min":35,"x_max":1378,"o":"m 1110 824 q 1010 893 1086 842 l 1096 958 l 968 958 l 968 824 l 1110 824 m 661 958 l 756 913 q 686 824 722 864 l 801 824 l 801 958 l 661 958 m 768 539 q 786 519 769 538 q 813 490 803 501 l 813 685 l 751 685 l 804 650 q 768 539 790 594 m 658 503 q 600 553 629 531 l 600 432 q 658 503 631 461 m 708 597 q 740 685 728 643 l 600 685 l 600 608 l 625 664 q 708 597 661 640 m 658 156 q 600 206 629 183 l 600 85 q 658 156 631 114 m 708 251 q 742 344 728 294 l 804 303 q 768 193 792 251 q 813 143 799 160 l 813 446 l 778 372 q 718 442 750 407 q 624 326 682 382 l 600 389 l 600 261 l 625 317 q 708 251 667 289 m 1124 539 q 1144 517 1128 533 q 1169 490 1161 500 l 1169 685 l 1108 685 l 1161 650 q 1124 539 1150 604 m 1014 503 q 956 553 985 531 l 956 432 q 1014 503 986 461 m 1065 597 q 1097 685 1085 643 l 956 685 l 956 608 l 981 664 q 1065 597 1022 636 m 1018 161 q 956 207 986 186 l 956 85 q 1018 161 994 124 m 1068 257 q 1099 344 1082 290 l 1161 303 q 1128 204 1146 249 q 1148 185 1133 199 q 1169 164 1163 171 l 1169 446 l 1133 372 q 1074 442 1106 407 q 981 326 1036 379 l 956 389 l 956 261 l 981 317 q 1068 257 1039 281 m 181 39 q 217 78 210 39 q 233 317 225 117 l 201 317 q 198 274 200 303 q 194 232 196 246 l 35 239 q 65 778 54 478 l 233 778 l 233 940 l 49 940 l 49 1093 l 407 1093 l 407 810 q 597 958 517 869 l 438 958 l 438 1104 l 1331 1104 l 1331 958 l 1168 958 q 1378 801 1292 883 l 1322 717 l 1322 94 q 1319 -17 1322 19 q 1300 -78 1315 -54 q 1261 -108 1285 -103 q 1192 -114 1238 -114 q 1051 -107 1136 -114 l 1046 35 q 1136 28 1101 28 q 1165 37 1160 28 q 1169 93 1169 46 l 1169 122 l 1133 49 q 1079 104 1114 69 q 981 -21 1036 31 l 956 42 l 956 -87 l 813 -87 l 813 99 l 778 25 q 718 94 750 60 q 624 -21 682 35 l 600 42 l 600 -115 l 447 -115 l 447 717 l 407 776 l 407 629 l 222 629 q 213 465 217 518 l 407 465 q 398 228 403 319 q 385 68 393 138 q 370 -35 378 -1 q 347 -90 363 -69 q 317 -114 332 -110 q 275 -118 303 -118 q 67 -108 225 -118 l 63 49 q 181 39 160 39 z "},"形":{"ha":1389,"x_min":46,"x_max":1360,"o":"m 379 614 l 531 614 l 531 940 l 382 940 l 382 840 q 379 614 382 682 m 782 461 l 711 461 l 711 -111 l 531 -111 l 531 461 l 371 461 q 313 107 356 233 q 185 -124 269 -19 l 46 17 q 150 188 117 96 q 196 461 183 281 l 58 461 l 58 614 l 203 614 q 206 840 206 747 l 206 940 l 72 940 l 72 1093 l 853 1093 l 853 940 l 711 940 l 711 614 l 853 614 l 853 494 q 1224 767 1068 596 l 1346 657 q 872 318 1151 438 l 782 461 m 781 851 q 1206 1124 1033 951 l 1328 1013 q 867 707 1144 822 l 781 851 m 739 29 q 1012 168 894 89 q 1238 363 1129 247 l 1360 247 q 1124 37 1247 122 q 835 -115 1000 -49 l 739 29 z "},"彦":{"ha":1389,"x_min":28,"x_max":1331,"o":"m 844 774 q 899 896 875 835 l 539 896 q 575 774 564 815 l 844 774 m 331 264 q 1193 463 872 306 l 1257 333 q 375 121 929 167 l 331 264 m 313 10 q 1263 236 908 56 l 1331 103 q 357 -139 964 -92 l 313 10 m 1306 774 l 1306 622 l 1142 622 l 1171 551 q 385 375 875 415 l 339 514 q 986 622 725 543 l 310 622 l 310 538 q 157 -136 310 107 l 28 15 q 111 274 88 135 q 135 667 135 414 l 135 774 l 383 774 q 346 896 371 815 l 125 896 l 125 1042 l 608 1042 l 608 1163 l 799 1163 l 799 1042 l 1278 1042 l 1278 896 l 1090 896 q 1039 774 1071 840 l 1306 774 z "},"彰":{"ha":1389,"x_min":53,"x_max":1368,"o":"m 525 813 q 556 899 536 840 l 346 899 q 372 813 358 861 l 525 813 m 278 357 l 278 306 l 615 306 l 615 357 l 278 357 m 278 463 l 615 463 l 615 513 l 278 513 l 278 463 m 771 -8 l 538 -8 l 538 -136 l 351 -136 l 351 -8 l 53 -8 l 53 136 l 351 136 l 351 188 l 278 188 l 108 188 l 108 632 l 781 632 l 781 188 l 538 188 l 538 136 l 822 136 l 822 60 q 1246 361 1063 165 l 1368 246 q 1128 34 1253 119 q 836 -118 1003 -51 l 771 -8 m 53 672 l 53 813 l 199 813 q 169 899 179 871 l 72 899 l 72 1039 l 351 1039 l 351 1136 l 538 1136 l 538 1039 l 817 1039 l 817 899 l 725 899 q 699 813 711 850 l 836 813 l 836 672 l 53 672 m 818 868 q 1213 1128 1054 965 l 1336 1017 q 906 722 1168 835 l 818 868 m 794 456 q 1232 761 1056 563 l 1354 650 q 1145 456 1256 536 q 886 310 1035 376 l 794 456 z "},"徳":{"ha":1389,"x_min":21,"x_max":1369,"o":"m 818 518 l 911 518 l 911 706 l 818 706 l 818 518 m 588 518 l 681 518 l 681 706 l 588 706 l 588 518 m 742 315 l 792 385 l 588 385 l 431 385 l 431 617 q 346 504 397 565 l 346 54 q 440 307 401 165 l 581 264 l 581 315 l 742 315 m 1142 518 l 1142 706 l 1049 706 l 1049 518 l 1142 518 m 1071 260 l 1219 319 q 1369 -33 1304 153 l 1225 -97 q 1149 97 1188 8 q 1142 8 1146 42 q 1124 -53 1138 -25 q 1094 -92 1110 -81 q 1040 -113 1078 -104 q 964 -124 1003 -122 q 854 -125 925 -125 q 744 -124 783 -125 q 670 -114 706 -122 q 621 -94 635 -106 q 596 -57 607 -83 q 583 -2 585 -31 q 581 79 581 26 l 581 232 q 442 -104 528 29 l 346 -39 l 346 -129 l 172 -129 l 172 360 q 68 258 126 304 l 21 446 q 199 606 126 526 q 346 801 272 686 l 431 750 l 431 831 l 774 831 l 774 906 l 396 906 l 396 964 q 113 735 278 832 l 43 888 q 344 1156 219 994 l 492 1083 q 469 1053 489 1081 l 774 1053 l 774 1149 l 958 1149 l 958 1053 l 1340 1053 l 1340 906 l 958 906 l 958 831 l 1303 831 l 1303 385 l 872 385 q 1049 264 954 338 l 960 142 q 754 285 867 218 l 754 97 q 767 28 754 39 q 856 18 781 18 q 966 37 950 18 q 986 165 982 56 l 1129 140 q 1071 260 1100 206 z "},"志":{"ha":1389,"x_min":33,"x_max":1356,"o":"m 1313 847 l 789 847 l 789 676 l 1247 676 l 1247 524 l 142 524 l 142 676 l 600 676 l 600 847 l 76 847 l 76 1000 l 600 1000 l 600 1139 l 789 1139 l 789 1000 l 1313 1000 l 1313 847 m 1081 189 q 1076 98 1078 132 q 1068 30 1074 64 q 1058 -22 1063 -4 q 1040 -56 1053 -39 q 1017 -81 1028 -74 q 983 -94 1007 -87 q 940 -104 960 -101 q 882 -110 919 -107 q 704 -115 819 -115 q 525 -111 596 -115 q 428 -101 460 -108 q 376 -72 397 -94 q 349 -16 354 -50 q 344 86 344 18 l 344 317 q 175 -58 285 106 l 33 40 q 199 408 140 208 l 344 354 l 344 451 l 531 451 l 531 117 q 537 55 531 65 q 576 42 543 44 q 694 38 618 38 q 813 42 764 38 q 842 44 832 43 q 863 49 851 44 q 879 56 875 53 q 890 69 883 58 q 899 89 897 81 q 903 119 900 97 q 907 160 906 142 q 910 215 908 178 l 1081 189 m 793 167 q 589 411 704 294 l 718 503 q 922 263 835 388 l 793 167 m 1015 354 l 1165 431 q 1356 22 1272 250 l 1201 -49 q 1015 354 1122 178 z "},"快":{"ha":1389,"x_min":11,"x_max":1367,"o":"m 956 808 l 956 538 l 1106 538 l 1106 808 l 956 808 m 772 1139 l 956 1139 l 956 965 l 1279 965 l 1279 538 l 1353 538 l 1353 385 l 978 385 q 1367 22 1050 168 l 1278 -129 q 1044 24 1150 -72 q 875 238 939 121 q 702 22 810 118 q 460 -129 594 -75 l 365 22 q 626 179 532 92 q 753 385 719 267 l 414 385 l 414 538 l 772 538 l 772 808 l 499 808 l 499 965 l 772 965 l 772 1139 m 532 607 l 410 574 q 361 783 388 678 l 361 -129 l 188 -129 l 188 693 q 135 350 168 526 l 11 376 q 81 871 56 621 l 188 858 l 188 1129 l 361 1129 l 361 886 l 454 913 q 532 607 503 749 z "},"思":{"ha":1389,"x_min":26,"x_max":1363,"o":"m 351 442 l 167 442 l 167 1100 l 1222 1100 l 1222 442 l 351 442 m 604 835 l 604 956 l 351 956 l 351 835 l 604 835 m 604 706 l 351 706 l 351 581 l 604 581 l 604 706 m 785 835 l 1038 835 l 1038 956 l 785 956 l 785 835 m 785 706 l 785 581 l 1038 581 l 1038 706 l 785 706 m 26 17 q 192 353 133 171 l 347 294 q 165 -82 292 90 l 26 17 m 788 108 q 599 339 707 226 l 728 432 q 918 204 839 321 l 788 108 m 1022 299 l 1172 375 q 1363 0 1281 200 l 1211 -71 q 1107 151 1174 24 q 1099 47 1103 85 q 1086 -24 1096 8 q 1067 -71 1076 -57 q 1032 -97 1057 -85 q 982 -112 1007 -108 q 910 -119 957 -115 q 732 -125 847 -125 q 553 -121 624 -125 q 457 -111 489 -118 q 403 -81 425 -104 q 377 -24 382 -58 q 372 78 372 10 l 372 372 l 558 372 l 558 103 q 565 41 558 51 q 604 28 571 31 q 722 24 646 24 q 840 28 792 24 q 878 31 867 31 q 902 40 889 32 q 919 55 915 49 q 927 87 922 61 q 933 133 932 113 q 938 206 935 154 l 1090 182 q 1022 299 1051 251 z "},"恭":{"ha":1389,"x_min":32,"x_max":1357,"o":"m 531 489 l 708 489 l 708 279 l 838 329 q 1015 -47 942 132 l 867 -106 q 708 243 793 76 l 708 69 q 707 -14 708 17 q 697 -71 706 -44 q 678 -109 689 -97 q 644 -130 668 -121 q 592 -140 619 -139 q 518 -142 565 -142 q 375 -135 472 -142 l 367 18 q 500 11 478 11 q 526 17 522 11 q 531 60 531 24 l 531 489 m 453 290 q 242 -103 372 64 l 101 -18 q 279 282 200 107 q 107 163 193 213 l 32 324 q 338 551 204 414 l 76 551 l 76 704 l 357 704 l 357 844 l 122 844 l 122 989 l 357 989 l 357 1135 l 542 1135 l 542 989 l 847 989 l 847 1135 l 1032 1135 l 1032 989 l 1267 989 l 1267 844 l 1032 844 l 1032 704 l 1313 704 l 1313 551 l 1061 551 q 1357 333 1190 419 l 1282 172 q 1139 267 1193 225 q 1306 -24 1225 132 l 1163 -90 q 950 272 1068 94 l 1063 326 q 844 551 940 431 l 543 551 q 339 332 456 435 l 453 290 m 542 704 l 847 704 l 847 844 l 542 844 l 542 704 z "},"恵":{"ha":1389,"x_min":26,"x_max":1363,"o":"m 600 535 l 340 535 l 340 460 l 600 460 l 600 535 m 789 535 l 789 460 l 1049 460 l 1049 535 l 789 535 m 600 643 l 600 714 l 340 714 l 340 643 l 600 643 m 789 643 l 1049 643 l 1049 714 l 789 714 l 789 643 m 26 -1 q 193 286 124 111 l 339 215 q 157 -108 275 25 l 26 -1 m 911 196 l 801 88 q 599 263 707 185 l 675 333 l 340 333 l 167 333 l 167 840 l 600 840 l 600 897 l 74 897 l 74 1042 l 600 1042 l 600 1150 l 789 1150 l 789 1042 l 1315 1042 l 1315 897 l 789 897 l 789 840 l 1222 840 l 1222 333 l 756 333 q 911 196 846 263 m 1022 225 l 1168 301 q 1363 -24 1283 144 l 1211 -94 q 1096 115 1161 13 q 1082 -3 1090 38 q 1050 -71 1074 -44 q 994 -106 1026 -97 q 899 -119 963 -114 q 719 -125 836 -125 q 542 -121 611 -125 q 422 -103 457 -117 q 374 -53 388 -89 q 361 68 361 -17 l 361 278 l 546 278 l 546 89 q 553 35 546 44 q 593 22 560 25 q 711 18 635 18 q 828 22 781 18 q 905 48 890 28 q 926 164 919 68 l 1079 140 q 1022 225 1049 188 z "},"悟":{"ha":1389,"x_min":11,"x_max":1347,"o":"m 876 718 l 853 608 l 1074 608 l 1074 718 l 876 718 m 669 -62 l 669 -114 l 489 -114 l 489 392 l 1288 392 l 1288 -114 l 1101 -114 l 1101 -62 l 669 -62 m 135 350 l 11 376 q 81 871 56 621 l 201 856 l 201 1129 l 375 1129 l 375 886 l 461 914 q 531 657 503 781 l 410 622 q 375 768 399 676 l 375 -129 l 201 -129 l 201 821 q 135 350 181 599 m 426 608 l 669 608 l 693 718 l 528 718 l 528 854 l 722 854 l 742 946 l 482 946 l 482 1093 l 1315 1093 l 1315 946 l 925 946 l 906 854 l 1254 854 l 1254 608 l 1347 608 l 1347 461 l 426 461 l 426 608 m 1101 78 l 1101 247 l 669 247 l 669 78 l 1101 78 z "},"惇":{"ha":1389,"x_min":7,"x_max":1364,"o":"m 664 678 l 1090 678 l 1090 756 l 664 756 l 664 678 m 119 336 l 7 363 q 76 857 51 607 l 171 844 l 171 1129 l 340 1129 l 340 846 l 408 867 q 483 593 451 728 l 483 872 l 1271 872 l 1271 561 l 664 561 l 492 561 l 378 528 q 340 682 361 603 l 340 -129 l 171 -129 l 171 671 q 119 336 147 482 m 399 919 l 399 1065 l 785 1065 l 785 1157 l 969 1157 l 969 1065 l 1357 1065 l 1357 919 l 399 919 m 1364 264 l 1364 118 l 1011 118 l 1011 63 q 981 -103 1011 -71 q 819 -135 950 -135 q 607 -128 736 -135 l 597 18 q 778 11 743 11 q 820 19 814 11 q 826 69 826 26 l 826 118 l 392 118 l 392 264 l 826 264 l 826 319 l 899 319 q 1036 374 979 347 l 456 374 l 456 514 l 1299 514 l 1299 374 q 1085 264 1199 315 l 1364 264 z "},"慎":{"ha":1389,"x_min":11,"x_max":1357,"o":"m 653 475 l 653 428 l 1115 428 l 1115 475 l 653 475 m 653 615 l 653 568 l 1115 568 l 1115 615 l 653 615 m 653 708 l 1115 708 l 1115 756 l 653 756 l 653 708 m 472 864 l 789 864 l 789 910 l 403 910 l 403 1060 l 789 1060 l 789 1143 l 975 1143 l 975 1060 l 1347 1060 l 1347 910 l 975 910 l 975 864 l 1296 864 l 1296 317 l 653 317 l 472 317 l 472 564 l 394 543 q 360 697 386 585 l 360 -129 l 192 -129 l 192 740 q 132 338 168 525 l 11 363 q 81 857 56 607 l 192 843 l 192 1129 l 360 1129 l 360 860 l 439 883 l 472 763 l 472 864 m 399 128 l 399 272 l 1357 272 l 1357 128 l 1050 128 q 1344 -14 1219 63 l 1271 -147 q 907 33 1124 -53 l 954 128 l 789 128 l 839 46 q 464 -139 697 -69 l 406 1 q 706 128 576 53 l 399 128 z "},"慧":{"ha":1389,"x_min":26,"x_max":1363,"o":"m 193 249 l 340 182 q 158 -117 282 11 l 26 -12 q 193 249 140 108 m 915 178 l 813 65 q 593 214 710 149 l 632 254 l 125 254 l 125 363 l 1069 363 l 1069 400 l 153 400 l 153 493 l 1069 493 l 1069 531 l 125 531 l 125 635 l 288 635 l 288 657 q 74 646 154 649 l 67 764 q 288 774 222 769 l 288 815 l 86 815 l 86 914 l 288 914 l 288 950 l 74 950 l 74 1079 l 288 1079 l 288 1139 l 476 1139 l 476 1079 l 676 1079 l 676 950 l 476 950 l 476 914 l 657 914 l 657 815 l 476 815 l 476 785 q 676 799 543 789 l 676 686 q 476 669 599 678 l 476 635 l 913 635 l 913 667 l 713 667 l 713 781 l 913 781 l 913 815 l 732 815 l 732 914 l 913 914 l 913 950 l 713 950 l 713 1079 l 913 1079 l 913 1139 l 1101 1139 l 1101 1079 l 1315 1079 l 1315 950 l 1101 950 l 1101 914 l 1303 914 l 1303 815 l 1101 815 l 1101 781 l 1322 781 l 1322 667 l 1101 667 l 1101 635 l 1260 635 l 1260 254 l 1185 254 q 1363 -31 1283 126 l 1211 -99 q 1110 76 1163 -6 q 1094 -24 1104 11 q 1060 -82 1085 -60 q 1004 -112 1036 -104 q 910 -126 972 -121 q 732 -132 847 -132 q 553 -128 624 -132 q 407 -89 436 -122 q 378 71 378 -56 l 378 225 l 563 225 l 563 94 q 569 32 563 43 q 610 18 576 21 q 726 14 651 14 q 844 18 797 14 q 920 47 904 24 q 942 164 936 69 l 1064 143 l 1022 201 l 1126 254 l 808 254 q 915 178 875 210 z "},"慶":{"ha":1389,"x_min":21,"x_max":1354,"o":"m 796 757 l 796 813 l 629 813 l 629 757 l 796 757 m 969 757 l 1132 757 l 1132 813 l 969 813 l 969 757 m 285 813 l 285 757 l 456 757 l 456 813 l 285 813 m 456 951 l 285 951 l 285 906 l 456 906 l 456 951 m 629 951 l 629 906 l 796 906 l 796 951 l 629 951 m 496 457 l 496 524 l 285 524 l 285 518 q 281 360 285 433 q 407 511 358 433 l 496 457 m 496 419 q 336 244 431 318 l 275 299 q 263 194 271 244 q 543 308 425 240 q 503 333 511 317 q 496 393 496 350 l 496 419 m 1149 456 q 1185 524 1160 472 l 817 524 q 899 485 846 511 l 843 397 q 894 415 885 400 q 907 482 904 431 l 1042 474 l 1097 511 q 1149 456 1124 485 m 686 260 l 1133 260 q 1046 369 1085 326 q 981 310 1032 321 q 764 299 931 299 l 733 299 q 686 260 711 279 m 1017 53 q 1354 18 1161 29 l 1322 -122 q 792 -31 1043 -106 q 249 -122 551 -100 l 215 3 q 153 -136 194 -57 l 21 21 q 89 258 69 125 q 108 653 108 392 l 108 1083 l 643 1083 l 643 1176 l 833 1176 l 833 1083 l 1329 1083 l 1329 951 l 969 951 l 969 906 l 1289 906 l 1289 669 l 285 669 l 285 632 l 1317 632 l 1317 524 q 1232 354 1282 425 l 1231 356 q 1278 289 1247 333 l 1201 238 l 1201 164 q 1017 53 1128 106 m 574 51 q 481 101 513 81 l 557 164 l 539 164 q 294 63 425 101 l 257 160 q 219 14 243 85 q 574 51 421 26 m 799 100 q 964 164 894 129 l 624 164 q 799 100 708 125 m 649 524 l 649 426 q 664 400 649 404 q 764 396 679 396 l 819 396 q 657 468 739 436 l 690 524 l 649 524 z "},"憲":{"ha":1389,"x_min":26,"x_max":1363,"o":"m 197 826 l 90 826 l 90 1069 l 600 1069 l 600 1163 l 789 1163 l 789 1069 l 1299 1069 l 1299 826 l 1192 826 l 1192 799 l 789 799 l 789 760 l 1164 760 l 1164 667 l 789 667 l 789 628 l 1313 628 l 1313 521 l 76 521 l 76 628 l 600 628 l 600 667 l 225 667 l 225 760 l 600 760 l 600 799 l 197 799 l 197 826 m 261 892 l 600 892 l 600 931 l 261 931 l 261 892 m 479 331 l 479 393 l 333 393 l 333 331 l 479 331 m 771 331 l 771 393 l 618 393 l 618 331 l 771 331 m 910 331 l 1056 331 l 1056 393 l 910 393 l 910 331 m 201 222 l 349 149 q 158 -112 282 -1 l 26 -12 q 201 222 138 92 m 819 51 q 593 190 714 129 l 636 240 l 333 240 l 164 240 l 164 483 l 1225 483 l 1225 240 l 1172 240 q 1363 -31 1282 110 l 1221 -114 q 1110 57 1174 -31 q 1099 -13 1106 14 q 1074 -61 1093 -40 q 1034 -92 1056 -82 q 965 -109 1013 -103 q 869 -117 918 -115 q 733 -118 821 -118 q 428 -99 479 -118 q 378 14 378 -81 l 378 208 l 563 208 l 563 63 q 583 28 563 33 q 725 24 604 24 q 815 24 789 24 q 872 29 840 24 q 911 38 904 35 q 928 60 918 42 q 940 92 939 78 q 942 144 940 107 l 1058 125 q 1018 172 1046 142 l 1131 240 l 797 240 q 915 165 856 207 l 819 51 m 1128 931 l 789 931 l 789 892 l 1128 892 l 1128 931 z "},"成":{"ha":1389,"x_min":35,"x_max":1357,"o":"m 683 711 q 682 470 683 561 q 673 308 681 379 q 657 203 665 236 q 627 150 649 171 q 585 126 606 129 q 525 122 565 122 q 340 132 481 122 l 321 281 q 460 271 418 271 q 512 312 503 271 q 521 567 521 353 l 324 567 l 324 544 q 285 165 324 324 q 161 -129 246 7 l 35 35 q 123 295 100 164 q 146 676 146 426 l 146 1003 l 697 1003 q 694 1142 694 1092 l 868 1142 q 871 1003 868 1092 l 1032 1003 q 932 1117 988 1057 l 1074 1176 q 1218 1003 1153 1092 l 1301 1003 l 1301 850 l 881 850 q 956 438 901 624 q 1081 761 1039 579 l 1240 717 q 1025 246 1179 450 q 1094 126 1060 169 q 1143 83 1128 83 q 1204 319 1183 83 l 1357 258 q 1292 -27 1344 67 q 1167 -121 1239 -121 q 1035 -62 1106 -121 q 900 107 964 -4 q 557 -101 747 -33 l 483 46 q 826 267 685 118 q 706 850 732 515 l 324 850 l 324 711 l 683 711 z "},"戸":{"ha":1389,"x_min":60,"x_max":1292,"o":"m 399 282 q 204 -137 365 24 l 60 -29 q 187 185 154 71 q 219 546 219 300 l 219 817 l 1201 817 l 1201 204 l 1017 204 l 1017 282 l 399 282 m 97 917 l 97 1079 l 1292 1079 l 1292 917 l 97 917 m 410 660 l 410 468 l 410 435 l 1017 435 l 1017 660 l 410 660 z "},"手":{"ha":1389,"x_min":56,"x_max":1333,"o":"m 56 407 l 625 407 l 625 569 l 125 569 l 125 722 l 625 722 l 625 872 q 185 857 407 857 l 176 1014 q 740 1043 464 1014 q 1203 1121 1015 1072 l 1242 963 q 815 889 1063 917 l 815 722 l 1264 722 l 1264 569 l 815 569 l 815 407 l 1333 407 l 1333 250 l 815 250 l 815 107 q 813 18 815 51 q 802 -44 811 -15 q 781 -85 793 -72 q 743 -108 769 -99 q 686 -119 717 -117 q 604 -121 656 -121 q 356 -114 529 -121 l 347 42 q 563 35 504 35 q 616 44 607 35 q 625 100 625 54 l 625 250 l 56 250 l 56 407 z "},"承":{"ha":1389,"x_min":19,"x_max":1369,"o":"m 397 338 q 363 267 383 304 l 604 267 l 604 338 l 397 338 m 469 539 q 447 468 456 492 l 604 468 l 604 539 l 469 539 m 947 468 q 925 539 939 492 l 785 539 l 785 468 l 947 468 m 1029 267 q 997 338 1004 321 l 785 338 l 785 267 l 1029 267 m 879 756 l 1040 821 q 1092 592 1054 713 q 1236 796 1163 674 l 1354 674 q 1160 414 1260 519 q 1369 86 1250 213 l 1251 -64 q 1049 228 1142 47 l 1049 132 l 785 132 l 785 88 q 780 -26 785 11 q 754 -87 775 -64 q 703 -116 733 -111 q 607 -121 672 -121 q 375 -114 551 -121 l 367 35 q 553 28 515 28 q 597 37 589 28 q 604 93 604 46 l 604 132 l 346 132 l 346 236 q 107 -54 246 60 l 19 119 q 205 349 124 210 q 324 642 286 489 l 49 642 l 49 799 l 490 799 l 490 678 l 604 678 l 604 838 l 669 838 q 879 944 769 883 l 233 944 l 233 1093 l 1153 1093 l 1153 944 q 785 732 976 825 l 785 678 l 892 678 q 885 722 889 693 q 879 756 881 750 z "},"押":{"ha":1389,"x_min":40,"x_max":1326,"o":"m 449 521 l 449 743 l 338 743 l 338 486 q 397 505 358 493 q 449 521 436 517 m 975 399 l 1149 399 l 1149 597 l 975 597 l 975 399 m 622 597 l 622 399 l 796 399 l 796 597 l 622 597 m 796 940 l 622 940 l 622 746 l 796 746 l 796 940 m 975 940 l 975 746 l 1149 746 l 1149 940 l 975 940 m 449 1093 l 1326 1093 l 1326 171 l 1149 171 l 1149 250 l 975 250 l 975 -129 l 796 -129 l 796 250 l 622 250 l 622 171 l 449 171 l 449 363 q 338 326 385 340 l 338 101 q 336 12 338 44 q 328 -49 335 -21 q 312 -90 321 -78 q 281 -112 303 -103 q 235 -123 260 -121 q 169 -125 211 -125 q 56 -118 149 -125 l 47 31 q 142 24 128 24 q 160 32 157 24 q 163 88 163 40 l 163 276 q 53 250 74 254 l 40 413 q 163 439 151 436 l 163 743 l 42 743 l 42 896 l 163 896 l 163 1129 l 338 1129 l 338 896 l 449 896 l 449 1093 z "},"拓":{"ha":1389,"x_min":58,"x_max":1331,"o":"m 710 914 l 528 914 l 528 767 l 392 767 l 392 525 q 521 565 451 542 l 525 417 q 710 914 663 619 m 611 249 q 497 107 557 167 l 413 281 q 513 399 463 331 q 392 363 489 390 l 392 107 q 388 -18 392 22 q 363 -84 383 -58 q 313 -115 343 -110 q 219 -121 283 -121 q 83 -114 188 -121 l 74 35 q 185 28 157 28 q 209 36 206 28 q 213 93 213 44 l 213 317 q 69 288 147 303 l 58 449 q 213 481 119 460 l 213 767 l 65 767 l 65 919 l 213 919 l 213 1129 l 392 1129 l 392 919 l 496 919 l 496 1072 l 1331 1072 l 1331 914 l 894 914 q 811 586 868 742 l 1299 586 l 1299 -122 l 1118 -122 l 1118 -58 l 788 -58 l 788 -122 l 611 -122 l 611 249 m 788 428 l 788 94 l 1118 94 l 1118 428 l 788 428 z "},"捷":{"ha":1389,"x_min":51,"x_max":1351,"o":"m 972 550 l 972 489 l 1108 489 l 1108 550 l 972 550 m 972 683 l 1108 683 l 1108 742 l 972 742 l 972 683 m 204 -121 q 69 -114 176 -121 l 63 35 q 172 28 132 28 q 190 36 188 28 q 193 93 193 44 l 193 253 q 63 225 171 247 l 51 385 q 193 414 119 397 l 193 733 l 54 733 l 54 886 l 193 886 l 193 1129 l 371 1129 l 371 886 l 493 886 l 493 733 l 371 733 l 371 461 q 485 499 442 483 l 499 346 q 371 303 418 317 l 371 107 q 367 -18 371 22 q 343 -84 363 -58 q 294 -115 324 -110 q 204 -121 265 -121 m 379 -60 q 542 346 501 126 l 711 321 q 674 161 699 239 q 796 89 724 115 l 796 369 l 538 369 l 538 489 l 796 489 l 796 550 l 479 550 l 479 683 l 796 683 l 796 742 l 538 742 l 538 861 l 796 861 l 796 911 l 483 911 l 483 1060 l 796 1060 l 796 1150 l 982 1150 l 982 1060 l 1333 1060 l 1333 911 l 982 911 l 982 861 l 1281 861 l 1281 685 l 1351 685 l 1351 547 l 1281 547 l 1281 369 l 982 369 l 982 282 l 1303 282 l 1303 147 l 982 147 l 982 53 q 1261 42 1101 42 l 1340 42 l 1331 -111 l 1247 -111 q 853 -81 996 -111 q 621 22 711 -51 q 538 -132 578 -69 l 379 -60 z "},"揮":{"ha":1389,"x_min":46,"x_max":1343,"o":"m 597 892 l 792 892 l 792 956 l 656 956 l 597 894 l 597 892 m 1163 892 l 1163 956 l 975 956 l 975 892 l 1163 892 m 972 400 l 972 333 l 1121 333 l 1121 400 l 972 400 m 794 511 l 794 578 l 639 578 l 639 511 l 794 511 m 972 511 l 1121 511 l 1121 578 l 972 578 l 972 511 m 639 333 l 794 333 l 794 400 l 639 400 l 639 333 m 440 544 l 460 389 q 344 347 411 369 l 344 101 q 340 -23 344 17 q 317 -89 336 -62 q 267 -120 297 -115 q 175 -125 238 -125 q 61 -118 154 -125 l 53 31 q 147 24 133 24 q 165 32 163 24 q 168 88 168 40 l 168 294 q 58 268 79 272 l 46 431 q 168 458 138 450 l 168 753 l 47 753 l 47 906 l 168 906 l 168 1129 l 344 1129 l 344 906 l 431 906 l 431 1075 l 457 1100 l 1290 1100 l 1329 1058 l 1329 832 l 1306 810 l 1260 810 l 1260 761 l 975 761 l 975 701 l 1282 701 l 1282 210 l 1121 210 l 975 210 l 975 146 l 1343 146 l 1343 4 l 975 4 l 975 -136 l 792 -136 l 792 4 l 403 4 l 403 146 l 792 146 l 792 210 l 639 210 l 476 210 l 476 701 l 792 701 l 792 761 l 500 761 l 500 810 l 471 810 l 453 829 l 453 753 l 344 753 l 344 510 q 440 544 374 519 z "},"摘":{"ha":1389,"x_min":44,"x_max":1344,"o":"m 949 799 q 1000 917 976 851 l 747 917 q 785 799 767 864 l 949 799 m 949 656 l 949 588 l 1117 588 l 1117 461 l 949 461 l 949 386 l 1086 386 l 1086 24 l 1107 24 q 1138 29 1133 24 q 1142 67 1142 35 l 1142 656 l 949 656 m 343 481 q 428 511 356 485 l 428 725 l 343 725 l 343 481 m 1169 -125 q 981 -118 1099 -125 l 975 21 l 799 21 l 799 -44 l 654 -44 l 654 386 l 792 386 l 792 461 l 624 461 l 624 588 l 792 588 l 792 656 l 599 656 l 599 -129 l 428 -129 l 428 349 q 343 318 356 322 l 343 101 q 339 -23 343 17 q 315 -89 335 -62 q 266 -120 296 -115 q 174 -125 236 -125 q 60 -118 153 -125 l 51 31 q 146 24 132 24 q 164 32 161 24 q 167 88 167 40 l 167 267 q 57 240 78 244 l 44 403 q 167 431 136 422 l 167 725 l 46 725 l 46 878 l 167 878 l 167 1129 l 343 1129 l 343 878 l 454 878 l 454 799 l 608 799 q 569 917 586 868 l 407 917 l 407 1056 l 775 1056 l 775 1164 l 961 1164 l 961 1056 l 1344 1056 l 1344 917 l 1176 917 q 1126 799 1160 867 l 1315 799 l 1315 93 q 1311 -26 1315 14 q 1290 -90 1307 -65 q 1247 -119 1272 -114 q 1169 -125 1222 -125 m 951 146 l 951 274 l 799 274 l 799 146 l 951 146 z "},"敬":{"ha":1389,"x_min":15,"x_max":1350,"o":"m 929 219 q 828 503 867 338 q 797 438 808 458 l 747 474 q 711 53 735 179 q 929 219 849 126 m 1029 382 q 1115 796 1092 526 l 935 796 q 904 700 915 732 l 953 708 q 1029 382 979 513 m 560 -122 q 356 -114 472 -122 l 347 39 q 507 31 435 31 q 539 60 528 31 q 562 218 550 90 q 583 611 574 346 l 254 611 q 239 551 250 590 l 517 551 l 517 121 l 281 121 l 281 31 l 122 31 l 122 349 l 15 407 q 121 808 89 575 l 163 806 l 163 875 l 39 875 l 39 1028 l 163 1028 l 163 1139 l 333 1139 l 333 1028 l 476 1028 l 476 1139 l 649 1139 l 649 1028 l 774 1028 l 774 875 l 649 875 l 649 789 l 476 789 l 476 875 l 333 875 l 333 789 l 286 789 q 285 772 286 783 q 282 754 283 760 l 750 754 q 846 1156 807 928 l 1008 1139 q 975 954 996 1049 l 1347 954 l 1347 796 l 1281 796 q 1126 207 1247 410 q 1350 26 1204 110 l 1275 -115 q 1026 76 1118 -29 q 753 -115 925 -29 l 693 -21 q 642 -103 672 -83 q 560 -122 613 -122 m 372 253 l 372 418 l 281 418 l 281 253 l 372 253 z "},"数":{"ha":1389,"x_min":42,"x_max":1356,"o":"m 1033 382 q 1119 796 1096 532 l 938 796 q 897 697 921 753 l 958 708 q 1033 382 986 507 m 431 168 q 507 281 478 217 l 364 281 q 321 206 336 231 q 431 168 331 203 m 510 936 q 604 1129 565 1028 l 743 1083 q 647 892 706 988 l 722 892 l 722 757 l 542 757 q 686 635 618 700 q 869 1154 797 842 l 1031 1133 q 989 954 1014 1044 l 1353 954 l 1353 796 l 1281 796 q 1131 208 1250 413 q 1356 26 1210 110 l 1281 -115 q 1032 76 1124 -29 q 763 -115 932 -29 l 693 -3 l 642 -90 q 460 3 544 -36 q 101 -122 315 -96 l 53 14 q 290 74 197 33 q 94 136 213 103 q 179 281 143 210 l 58 281 l 58 414 l 240 414 q 269 490 250 438 l 447 474 q 438 444 444 464 q 426 414 431 424 l 763 414 l 763 281 l 671 281 q 578 110 638 182 q 711 46 653 75 q 935 218 851 121 q 824 543 865 350 q 763 438 800 497 l 631 538 l 603 506 q 490 632 553 568 l 490 503 l 324 503 l 324 643 q 131 457 236 533 l 42 581 q 257 757 169 665 l 67 757 l 67 892 l 167 892 q 72 1069 118 994 l 206 1125 q 306 935 261 1033 l 200 892 l 324 892 l 324 1136 l 490 1136 l 490 892 l 624 892 l 510 936 z "},"敷":{"ha":1389,"x_min":28,"x_max":1363,"o":"m 703 472 l 486 472 l 486 428 l 758 428 l 703 472 m 1040 383 q 1126 796 1104 533 l 942 796 q 906 697 928 753 l 965 708 q 1040 383 992 510 m 317 628 l 225 628 l 225 581 l 317 581 l 317 628 m 475 628 l 475 581 l 567 581 l 567 628 l 475 628 m 317 718 l 317 765 l 225 765 l 225 718 l 317 718 m 475 718 l 567 718 l 567 765 l 475 765 l 475 718 m 390 257 l 711 257 q 696 38 711 122 q 940 219 853 118 q 833 536 874 346 q 774 425 799 467 l 774 296 l 396 296 q 390 257 393 271 m 476 28 q 524 46 513 28 q 539 132 535 64 l 356 132 q 149 -122 294 -22 l 28 -10 q 225 296 208 118 l 44 296 l 44 428 l 306 428 l 306 472 l 225 472 l 69 472 l 69 872 l 306 872 l 306 915 l 44 915 l 44 1051 l 306 1051 l 306 1149 l 486 1149 l 486 1051 l 558 1051 q 511 1118 515 1113 l 639 1163 q 717 1051 672 1119 l 760 1051 l 760 915 l 486 915 l 486 872 l 713 872 l 713 658 q 869 1154 807 865 l 1031 1133 q 990 954 1011 1029 l 1360 954 l 1360 796 l 1288 796 q 1138 210 1257 411 q 1363 26 1218 108 l 1288 -115 q 1038 78 1135 -32 q 763 -115 936 -28 l 688 6 q 635 -88 669 -61 q 546 -115 601 -115 q 347 -107 460 -115 l 331 36 q 476 28 414 28 z "},"斗":{"ha":1389,"x_min":78,"x_max":1311,"o":"m 886 168 l 93 74 l 78 232 l 886 326 l 886 1129 l 1076 1129 l 1076 349 l 1296 375 l 1311 218 l 1076 190 l 1076 -129 l 886 -129 l 886 168 m 326 940 l 429 1074 q 806 788 624 944 l 697 661 q 326 940 526 800 m 154 635 l 257 768 q 638 475 467 626 l 529 349 q 154 635 360 489 z "},"新":{"ha":1389,"x_min":33,"x_max":1343,"o":"m 940 711 l 1343 711 l 1343 550 l 1229 550 l 1229 -122 l 1056 -122 l 1056 550 l 929 550 q 853 155 907 306 q 700 -122 800 4 l 572 1 q 697 227 656 115 q 758 526 738 339 q 778 1036 778 714 q 1283 1133 1082 1060 l 1328 972 q 946 890 1164 917 q 940 711 943 769 m 351 681 l 429 681 q 494 868 468 772 l 303 868 q 351 681 331 774 m 715 538 l 468 538 l 468 463 l 699 463 l 699 315 l 478 315 q 650 165 556 251 l 554 49 q 468 140 517 92 l 468 -135 l 289 -135 l 289 140 q 128 -64 218 24 l 33 74 q 242 315 168 188 l 67 315 l 67 463 l 289 463 l 289 538 l 67 538 l 67 681 l 196 681 q 143 868 174 774 l 74 868 l 74 1017 l 289 1017 l 289 1150 l 468 1150 l 468 1017 l 719 1017 l 719 868 l 653 868 q 590 681 626 765 l 715 681 l 715 538 z "},"日":{"ha":1389,"x_min":181,"x_max":1208,"o":"m 365 463 l 365 115 l 1024 115 l 1024 463 l 365 463 m 365 615 l 1024 615 l 1024 935 l 365 935 l 365 615 m 181 1093 l 1208 1093 l 1208 -115 l 1024 -115 l 1024 -37 l 365 -37 l 365 -115 l 181 -115 l 181 1093 z "},"昇":{"ha":1389,"x_min":56,"x_max":1333,"o":"m 354 757 l 354 668 l 1035 668 l 1035 757 l 354 757 m 354 876 l 1035 876 l 1035 964 l 354 964 l 354 876 m 1333 296 l 1333 143 l 1067 143 l 1067 -122 l 878 -122 l 878 143 l 538 143 q 439 -18 508 46 q 239 -136 369 -82 l 90 -14 q 246 53 189 18 q 332 143 303 89 l 56 143 l 56 296 l 372 296 q 375 357 375 335 q 156 340 274 347 l 108 476 q 643 539 443 497 l 354 539 l 169 539 l 169 1107 l 1219 1107 l 1219 539 l 703 539 l 775 428 q 565 382 686 403 q 563 296 565 349 l 878 296 l 878 504 l 1067 504 l 1067 296 l 1333 296 z "},"昌":{"ha":1389,"x_min":108,"x_max":1281,"o":"m 382 879 l 1007 879 l 1007 960 l 382 960 l 382 879 m 382 682 l 1007 682 l 1007 764 l 382 764 l 382 682 m 382 556 l 197 556 l 197 1101 l 1192 1101 l 1192 556 l 382 556 m 299 60 l 1090 58 l 1090 149 l 299 149 l 299 60 m 299 -69 l 299 -121 l 108 -121 l 108 490 l 1281 490 l 1281 -121 l 1090 -121 l 1090 -69 l 299 -69 m 1090 265 l 1090 353 l 299 353 l 299 265 l 1090 265 z "},"明":{"ha":1389,"x_min":104,"x_max":1285,"o":"m 861 622 l 861 524 q 858 433 861 492 l 1104 433 l 1104 622 l 861 622 m 861 767 l 1104 767 l 1104 942 l 861 942 l 861 767 m 275 178 l 275 100 l 104 100 l 104 1076 l 601 1076 l 601 178 l 275 178 m 275 556 l 275 331 l 442 331 l 442 556 l 275 556 m 275 708 l 442 708 l 442 919 l 275 919 l 275 708 m 1136 -121 q 928 -114 1088 -121 l 919 44 q 1053 38 1028 38 q 1097 46 1090 38 q 1104 101 1104 54 l 1104 289 l 842 289 q 760 60 817 160 q 604 -129 703 -40 l 472 -14 q 646 232 600 104 q 692 608 692 360 l 692 1094 l 1285 1094 l 1285 107 q 1283 17 1285 49 q 1276 -44 1282 -15 q 1263 -85 1271 -74 q 1235 -107 1254 -97 q 1195 -119 1217 -117 q 1136 -121 1174 -121 z "},"星":{"ha":1389,"x_min":57,"x_max":1306,"o":"m 354 749 l 354 661 l 1035 661 l 1035 749 l 354 749 m 354 872 l 1035 872 l 1035 956 l 354 956 l 354 872 m 415 457 l 618 457 l 618 529 l 451 529 q 415 457 440 504 m 271 251 l 618 251 l 618 318 l 325 318 q 271 251 310 296 m 808 50 l 1306 50 l 1306 -97 l 83 -97 l 83 50 l 618 50 l 618 124 l 247 124 l 247 225 q 165 144 214 189 l 57 274 q 268 529 175 375 l 169 529 l 169 1100 l 1219 1100 l 1219 529 l 808 529 l 808 457 l 1260 457 l 1260 318 l 808 318 l 808 251 l 1204 251 l 1204 124 l 808 124 l 808 50 z "},"春":{"ha":1389,"x_min":44,"x_max":1344,"o":"m 442 240 l 947 240 l 947 321 l 442 321 l 442 240 m 604 663 l 792 663 q 781 685 786 674 q 769 711 775 697 q 758 733 763 725 l 639 733 q 604 663 617 686 m 519 525 q 461 449 488 479 l 932 449 q 875 525 904 482 l 519 525 m 947 50 l 947 132 l 442 132 l 442 50 l 947 50 m 56 525 l 56 663 l 417 663 q 456 733 435 690 l 149 733 l 149 858 l 506 858 q 526 928 513 881 l 101 928 l 101 1069 l 557 1069 q 569 1158 565 1128 l 754 1153 l 742 1069 l 1288 1069 l 1288 928 l 710 928 q 689 858 696 881 l 1240 858 l 1240 733 l 935 733 q 972 663 963 679 l 1333 663 l 1333 525 l 1078 525 q 1344 329 1189 410 l 1285 158 q 1132 268 1206 207 l 1132 -122 l 947 -122 l 947 -72 l 442 -72 l 442 -122 l 257 -122 l 257 267 q 104 158 197 215 l 44 329 q 311 525 207 414 l 56 525 z "},"晃":{"ha":1389,"x_min":65,"x_max":1324,"o":"m 347 781 l 347 710 l 1042 710 l 1042 781 l 347 781 m 347 892 l 1042 892 l 1042 961 l 347 961 l 347 892 m 907 413 q 1000 583 961 499 l 788 583 l 788 413 l 907 413 m 306 413 q 222 542 283 450 l 332 583 l 163 583 l 163 1100 l 1226 1100 l 1226 583 l 1054 583 l 1167 544 q 1099 413 1142 489 l 1313 413 l 1313 260 l 942 260 l 942 79 q 954 41 942 47 q 1038 35 967 35 q 1071 35 1061 35 q 1095 38 1081 35 q 1114 42 1110 40 q 1126 53 1118 43 q 1135 71 1133 64 q 1140 99 1136 78 q 1145 135 1144 119 q 1149 185 1146 150 l 1324 171 q 1318 77 1319 107 q 1308 8 1317 47 q 1296 -44 1300 -31 q 1272 -76 1292 -57 q 1238 -99 1251 -96 q 1187 -108 1225 -103 q 1119 -114 1149 -114 q 1028 -114 1090 -114 q 881 -109 931 -114 q 801 -84 832 -104 q 764 -35 771 -64 q 757 51 757 -7 l 757 260 l 604 260 q 149 -132 553 -42 l 65 10 q 314 102 229 43 q 424 260 399 161 l 76 260 l 76 413 l 306 413 m 493 413 l 601 413 l 601 583 l 386 583 q 493 413 439 506 z "},"景":{"ha":1389,"x_min":49,"x_max":1340,"o":"m 343 706 l 157 706 l 157 1114 l 1232 1114 l 1232 706 l 789 706 l 789 657 l 1331 657 l 1331 522 l 58 522 l 58 657 l 600 657 l 600 706 l 343 706 m 343 858 l 343 810 l 1046 810 l 1046 858 l 343 858 m 343 947 l 1046 947 l 1046 996 l 343 996 l 343 947 m 379 299 l 1010 299 l 1010 361 l 379 361 l 379 299 m 486 110 q 138 -125 344 -24 l 49 -3 q 349 185 222 81 l 194 185 l 194 478 l 1194 478 l 1194 185 l 1046 185 q 1340 -8 1203 96 l 1239 -129 q 893 96 1078 -8 l 963 185 l 808 185 l 808 90 q 806 1 808 33 q 795 -60 804 -32 q 774 -101 786 -89 q 734 -123 761 -114 q 676 -134 707 -132 q 590 -136 644 -136 q 393 -129 519 -136 l 385 18 q 558 11 500 11 q 610 19 603 11 q 618 76 618 28 l 618 185 l 415 185 l 486 110 z "},"晴":{"ha":1389,"x_min":88,"x_max":1343,"o":"m 250 -10 l 250 -87 l 88 -87 l 88 1079 l 476 1079 l 476 -10 l 250 -10 m 250 472 l 250 139 l 329 139 l 329 472 l 250 472 m 250 621 l 329 621 l 329 926 l 250 926 l 250 621 m 739 246 l 739 192 l 1107 192 l 1107 246 l 739 246 m 739 356 l 1107 356 l 1107 410 l 739 410 l 739 356 m 1028 707 l 1343 707 l 1343 579 l 514 579 l 514 707 l 838 707 l 838 760 l 565 760 l 565 878 l 838 878 l 838 931 l 532 931 l 532 1060 l 838 1060 l 838 1143 l 1028 1143 l 1028 1060 l 1324 1060 l 1324 931 l 1028 931 l 1028 878 l 1292 878 l 1292 760 l 1028 760 l 1028 707 m 1083 -118 q 931 -111 1040 -118 l 926 31 q 1060 25 1015 25 q 1101 29 1094 25 q 1107 60 1107 33 l 1107 81 l 739 81 l 739 -121 l 560 -121 l 560 533 l 1292 533 l 1292 74 q 1259 -89 1292 -60 q 1083 -118 1226 -118 z "},"智":{"ha":1389,"x_min":35,"x_max":1282,"o":"m 340 835 q 351 914 349 865 l 257 914 q 207 835 233 872 l 340 835 m 549 492 q 421 622 488 564 q 307 492 369 549 l 549 492 m 926 676 l 1104 676 l 1104 924 l 926 924 l 926 676 m 926 539 l 754 539 l 754 1065 l 1282 1065 l 1282 539 l 926 539 m 396 57 l 993 57 l 993 149 l 396 149 l 396 57 m 49 694 l 49 835 l 169 835 l 56 896 q 190 1169 143 1015 l 350 1146 q 321 1053 336 1094 l 692 1053 l 692 914 l 525 914 q 515 835 522 869 l 711 835 l 711 694 l 567 694 q 708 556 640 635 l 618 492 l 1183 492 l 1183 -125 l 993 -125 l 993 -74 l 396 -74 l 396 -125 l 206 -125 l 206 411 q 100 350 163 382 l 35 510 q 275 694 194 585 l 49 694 m 993 269 l 993 358 l 396 358 l 396 269 l 993 269 z "},"曽":{"ha":1389,"x_min":108,"x_max":1281,"o":"m 785 811 l 1094 811 l 1094 889 l 785 889 l 785 811 m 785 701 l 785 622 l 1094 622 l 1094 701 l 785 701 m 294 701 l 294 622 l 604 622 l 604 701 l 294 701 m 294 811 l 604 811 l 604 889 l 294 889 l 294 811 m 294 504 l 108 504 l 108 1028 l 386 1028 q 317 1124 336 1100 l 481 1163 q 576 1028 526 1106 l 822 1028 q 908 1163 869 1096 l 1078 1129 q 1014 1028 1058 1093 l 1281 1028 l 1281 504 l 294 504 m 382 121 l 382 43 l 1007 43 l 1007 121 l 382 121 m 382 231 l 1007 231 l 1007 306 l 382 306 l 382 231 m 382 -83 l 382 -135 l 197 -135 l 197 440 l 1192 440 l 1192 -135 l 1007 -135 l 1007 -83 l 382 -83 z "},"有":{"ha":1389,"x_min":28,"x_max":1315,"o":"m 475 525 l 1039 525 l 1039 635 l 475 635 l 475 525 m 475 394 l 475 282 l 1039 282 l 1039 394 l 475 394 m 99 335 l 28 504 q 414 888 289 669 l 74 888 l 74 1038 l 485 1038 q 525 1164 503 1086 l 718 1151 q 683 1038 708 1113 l 1315 1038 l 1315 888 l 619 888 q 558 779 594 836 l 1229 779 l 1229 111 q 1224 -14 1229 26 q 1194 -81 1219 -54 q 1132 -112 1169 -107 q 1017 -118 1094 -118 q 808 -111 958 -118 l 803 39 q 881 35 838 38 q 949 32 925 33 q 989 31 972 31 q 1033 35 1026 31 q 1039 67 1039 40 l 1039 151 l 475 151 l 475 -121 l 285 -121 l 285 472 q 99 335 196 396 z "},"朋":{"ha":1389,"x_min":35,"x_max":1296,"o":"m 924 625 l 924 524 q 922 435 924 463 l 1121 435 l 1121 625 l 924 625 m 924 768 l 1121 768 l 1121 944 l 924 944 l 924 768 m 299 625 l 299 521 q 298 477 299 506 q 297 435 297 449 l 482 435 l 482 625 l 299 625 m 299 768 l 482 768 l 482 944 l 299 944 l 299 768 m 178 -129 l 35 0 q 108 235 89 111 q 128 607 128 358 l 128 1097 l 646 1097 l 646 107 l 646 74 q 731 280 707 167 q 754 601 754 393 l 754 1097 l 1296 1097 l 1296 107 q 1293 -19 1296 21 q 1273 -85 1290 -58 q 1230 -116 1256 -111 q 1149 -121 1204 -121 q 940 -114 1100 -121 l 931 44 q 1069 38 1039 38 q 1114 46 1107 38 q 1121 101 1121 54 l 1121 292 l 910 292 q 725 -129 875 44 l 640 -32 q 606 -106 632 -90 q 507 -121 581 -121 q 313 -114 465 -121 l 300 44 q 431 38 407 38 q 475 46 468 38 q 482 101 482 54 l 482 292 l 290 292 q 178 -129 269 47 z "},"朗":{"ha":1389,"x_min":25,"x_max":1301,"o":"m 278 625 l 278 508 l 517 508 l 517 625 l 278 625 m 278 750 l 517 750 l 517 861 l 278 861 l 278 750 m 458 142 q 364 306 429 193 l 494 368 l 278 368 l 278 99 q 458 142 375 119 m 926 625 l 926 524 q 924 435 926 490 l 1125 435 l 1125 625 l 926 625 m 926 768 l 1125 768 l 1125 944 l 926 944 l 926 768 m 97 1004 l 303 1004 l 303 1139 l 483 1139 l 483 1004 l 685 1004 l 685 368 l 521 368 q 665 101 589 253 q 738 298 718 189 q 757 601 757 407 l 757 1097 l 1301 1097 l 1301 107 q 1300 17 1301 49 q 1293 -44 1299 -15 q 1279 -85 1288 -74 q 1252 -107 1271 -97 q 1212 -119 1233 -117 q 1153 -121 1190 -121 q 944 -114 1104 -121 l 936 44 q 1074 38 1044 38 q 1118 46 1111 38 q 1125 101 1125 54 l 1125 292 l 911 292 q 726 -129 876 43 l 654 -44 l 576 -87 q 529 10 549 -25 q 43 -97 293 -67 l 25 56 q 97 65 72 61 l 97 1004 z "},"木":{"ha":1389,"x_min":32,"x_max":1357,"o":"m 1357 142 l 1247 3 q 788 526 967 238 l 788 -129 l 601 -129 l 601 526 q 142 3 422 238 l 32 142 q 567 747 383 428 l 93 747 l 93 906 l 601 906 l 601 1143 l 788 1143 l 788 906 l 1296 906 l 1296 747 l 822 747 q 1357 142 1006 428 z "},"本":{"ha":1389,"x_min":19,"x_max":1369,"o":"m 1067 229 q 788 614 911 408 l 788 229 l 1067 229 m 601 614 q 322 229 478 408 l 601 229 l 601 614 m 515 775 l 74 775 l 74 933 l 601 933 l 601 1143 l 788 1143 l 788 933 l 1315 933 l 1315 775 l 874 775 q 1369 182 1032 478 l 1272 22 q 1088 206 1181 101 l 1088 76 l 788 76 l 788 -143 l 601 -143 l 601 76 l 301 76 l 301 206 q 117 22 208 101 l 19 182 q 515 775 357 478 z "},"朱":{"ha":1389,"x_min":75,"x_max":1310,"o":"m 235 594 l 618 594 l 618 819 l 378 819 q 235 594 317 697 m 1310 594 l 1310 438 l 883 438 q 1310 85 1011 235 l 1225 -65 q 803 303 963 71 l 803 -129 l 618 -129 l 618 299 q 416 97 535 192 q 164 -64 297 1 l 79 85 q 533 438 392 236 l 79 438 l 79 594 l 197 594 l 75 675 q 306 1117 231 868 l 478 1081 q 443 972 468 1044 l 618 972 l 618 1129 l 803 1129 l 803 972 l 1226 972 l 1226 819 l 803 819 l 803 594 l 1310 594 z "},"杉":{"ha":1389,"x_min":19,"x_max":1358,"o":"m 72 889 l 260 889 l 260 1129 l 435 1129 l 435 889 l 618 889 l 618 732 l 460 732 q 667 365 561 560 l 551 267 q 435 497 515 342 l 435 -129 l 260 -129 l 260 410 q 108 104 199 226 l 19 276 q 231 732 174 496 l 72 732 l 72 889 m 649 854 q 1183 1125 983 950 l 1301 1010 q 732 704 1088 813 l 649 854 m 653 463 q 1215 767 999 564 l 1336 650 q 740 313 1106 429 l 653 463 m 558 35 q 1239 365 958 143 l 1358 246 q 1040 34 1208 121 q 650 -115 871 -53 l 558 35 z "},"杏":{"ha":1389,"x_min":42,"x_max":1347,"o":"m 379 -62 l 379 -122 l 194 -122 l 194 440 l 1194 440 l 1194 -122 l 1010 -122 l 1010 -62 l 379 -62 m 1296 1011 l 1296 858 l 872 858 q 1347 594 1071 706 l 1278 435 q 789 742 985 564 l 789 482 l 600 482 l 600 742 q 111 435 404 564 l 42 594 q 517 858 318 706 l 93 858 l 93 1011 l 600 1011 l 600 1143 l 789 1143 l 789 1011 l 1296 1011 m 1010 81 l 1010 292 l 379 292 l 379 81 l 1010 81 z "},"村":{"ha":1389,"x_min":15,"x_max":1343,"o":"m 629 935 l 1051 935 l 1051 1129 l 1236 1129 l 1236 935 l 1343 935 l 1343 778 l 1236 778 l 1236 104 q 1234 15 1236 47 q 1222 -47 1232 -18 q 1200 -87 1213 -75 q 1158 -109 1188 -100 q 1096 -120 1129 -118 q 1004 -122 1063 -122 q 764 -115 938 -122 l 754 42 q 972 35 910 35 q 1040 44 1029 35 q 1051 100 1051 53 l 1051 778 l 629 778 l 629 935 m 644 622 l 803 692 q 979 279 904 486 l 819 221 q 644 622 744 433 m 65 935 l 254 935 l 254 1129 l 433 1129 l 433 935 l 574 935 l 574 778 l 463 778 q 653 444 569 594 l 538 344 q 433 553 489 446 l 433 -129 l 254 -129 l 254 436 q 108 140 196 260 l 15 294 q 226 778 167 522 l 65 778 l 65 935 z "},"来":{"ha":1389,"x_min":35,"x_max":1354,"o":"m 982 560 l 878 607 q 1006 861 958 742 l 788 861 l 788 560 l 982 560 m 381 861 q 514 607 456 729 l 407 560 l 601 560 l 601 861 l 381 861 m 1354 60 l 1267 -96 q 788 321 972 92 l 788 -129 l 601 -129 l 601 324 q 122 -96 421 96 l 35 60 q 481 407 313 226 l 69 407 l 69 560 l 343 560 q 211 810 283 685 l 326 861 l 115 861 l 115 1011 l 601 1011 l 601 1143 l 788 1143 l 788 1011 l 1274 1011 l 1274 861 l 1051 861 l 1174 813 q 1047 560 1131 704 l 1319 560 l 1319 407 l 908 407 q 1354 60 1076 226 z "},"東":{"ha":1389,"x_min":35,"x_max":1354,"o":"m 340 614 l 600 614 l 600 694 l 340 694 l 340 614 m 600 413 l 600 497 l 340 497 l 340 413 l 600 413 m 789 413 l 1049 413 l 1049 497 l 789 497 l 789 413 m 600 163 q 108 -112 410 10 l 35 42 q 526 288 336 150 l 340 288 l 167 288 l 167 824 l 600 824 l 600 893 l 65 893 l 65 1038 l 600 1038 l 600 1143 l 789 1143 l 789 1038 l 1324 1038 l 1324 893 l 789 893 l 789 824 l 1222 824 l 1222 288 l 863 288 q 1354 42 1053 150 l 1281 -112 q 789 163 979 10 l 789 -129 l 600 -129 l 600 163 m 1049 614 l 1049 694 l 789 694 l 789 614 l 1049 614 z "},"松":{"ha":1389,"x_min":24,"x_max":1375,"o":"m 969 1050 l 1140 1092 q 1372 592 1225 804 l 1219 476 q 969 1050 1054 724 m 1026 399 l 1194 458 q 1375 -75 1296 201 l 1207 -133 q 1171 -17 1206 -126 q 461 -90 800 -76 l 451 67 q 618 76 564 72 q 785 703 704 343 l 969 669 q 817 94 904 371 q 1124 131 950 107 q 1026 399 1071 286 m 56 907 l 203 907 l 203 1129 l 374 1129 l 374 907 l 500 907 l 500 754 l 386 754 q 421 681 396 733 q 458 600 446 629 q 660 1092 583 808 l 828 1050 q 596 469 749 725 l 475 563 q 560 372 514 476 l 446 278 q 374 464 404 388 l 374 -129 l 203 -129 l 203 342 q 108 135 164 224 l 24 313 q 200 754 154 525 l 56 754 l 56 907 z "},"林":{"ha":1389,"x_min":10,"x_max":1379,"o":"m 601 907 l 601 750 l 464 750 q 663 424 563 589 l 556 308 q 442 519 529 360 l 442 -129 l 264 -129 l 264 422 q 115 122 204 243 l 10 249 q 240 750 183 508 l 60 750 l 60 907 l 264 907 l 264 1129 l 442 1129 l 442 907 l 601 907 m 1329 907 l 1329 750 l 1104 750 q 1379 215 1196 469 l 1269 81 q 1074 429 1156 242 l 1074 -129 l 892 -129 l 892 443 q 629 1 786 196 l 519 138 q 857 750 776 460 l 657 750 l 657 907 l 892 907 l 892 1129 l 1074 1129 l 1074 907 l 1329 907 z "},"果":{"ha":1389,"x_min":35,"x_max":1354,"o":"m 347 874 l 600 874 l 600 961 l 347 961 l 347 874 m 600 661 l 600 751 l 347 751 l 347 661 l 600 661 m 789 661 l 1042 661 l 1042 751 l 789 751 l 789 661 m 465 306 l 83 306 l 83 454 l 600 454 l 600 528 l 347 528 l 167 528 l 167 1107 l 1222 1107 l 1222 528 l 789 528 l 789 454 l 1306 454 l 1306 306 l 924 306 q 1354 35 1090 165 l 1263 -112 q 789 233 969 47 l 789 -128 l 600 -128 l 600 238 q 124 -112 413 43 l 35 39 q 465 306 308 175 m 1042 874 l 1042 961 l 789 961 l 789 874 l 1042 874 z "},"枝":{"ha":1389,"x_min":17,"x_max":1351,"o":"m 490 569 l 490 685 l 806 685 l 806 843 l 524 843 l 524 754 l 400 754 q 428 696 414 726 q 462 628 443 665 q 490 569 481 590 m 901 272 q 1113 538 1039 389 l 506 538 l 543 458 l 692 511 q 901 272 769 382 m 1336 843 l 996 843 l 996 685 l 1303 685 l 1303 538 q 1040 174 1206 317 q 1351 32 1186 85 l 1292 -119 q 896 67 1074 -54 q 483 -121 721 -44 l 414 32 q 760 172 610 83 q 579 369 657 263 l 458 289 q 372 497 444 322 l 372 -129 l 206 -129 l 206 385 q 100 140 160 235 l 17 317 q 182 754 138 525 l 49 754 l 49 907 l 206 907 l 206 1129 l 372 1129 l 372 907 l 476 907 l 476 996 l 806 996 l 806 1143 l 996 1143 l 996 996 l 1336 996 l 1336 843 z "},"根":{"ha":1389,"x_min":19,"x_max":1363,"o":"m 775 689 l 775 569 l 1111 569 l 1111 689 l 775 689 m 775 831 l 1111 831 l 1111 947 l 775 947 l 775 831 m 1004 118 q 869 426 914 249 l 775 426 l 775 72 q 1004 118 889 92 m 549 886 l 549 729 l 433 729 q 600 418 526 561 l 600 1094 l 1292 1094 l 1292 426 l 1038 426 q 1099 278 1065 338 q 1251 415 1171 335 l 1351 306 q 1188 156 1261 214 q 1363 22 1263 76 l 1283 -122 q 1022 94 1133 -56 l 1039 -28 q 504 -118 767 -94 l 493 35 q 600 46 525 38 l 600 360 l 501 281 q 407 489 483 324 l 407 -129 l 239 -129 l 239 363 q 119 115 192 222 l 19 257 q 225 732 171 501 l 69 732 l 69 886 l 239 886 l 239 1129 l 407 1129 l 407 886 l 549 886 z "},"條":{"ha":1389,"x_min":14,"x_max":1357,"o":"m 799 686 q 690 813 738 743 q 601 700 642 742 l 525 785 l 525 603 q 799 686 689 640 m 943 768 q 1063 914 1022 831 l 807 914 q 943 768 858 829 m 226 1135 l 389 1117 q 294 714 360 893 l 294 -129 l 129 -129 l 128 443 q 64 338 90 375 l 14 546 q 226 1135 171 792 m 831 524 l 1007 524 l 1007 417 l 1329 417 l 1329 264 l 1056 264 q 1357 57 1168 151 l 1297 -97 q 1007 118 1124 -1 l 1007 -129 l 831 -129 l 831 117 q 539 -97 706 -6 l 490 28 l 365 28 l 365 914 l 525 914 l 525 863 q 683 1156 628 985 l 846 1144 q 818 1058 838 1110 l 1317 1058 l 1317 914 l 1232 914 q 1088 690 1179 779 q 1329 615 1193 647 l 1275 461 q 939 583 1076 506 q 576 456 799 507 l 525 585 l 525 81 q 786 264 685 164 l 556 264 l 556 417 l 831 417 l 831 524 z "},"梨":{"ha":1389,"x_min":35,"x_max":1354,"o":"m 600 496 l 789 496 l 789 393 l 1306 393 l 1306 246 l 865 246 q 1354 36 1053 126 l 1285 -112 q 789 135 982 -6 l 789 -129 l 600 -129 l 600 135 q 104 -112 407 -6 l 35 36 q 524 246 336 126 l 83 246 l 83 393 l 600 393 l 600 496 m 736 874 l 736 736 l 588 736 q 747 604 638 696 l 614 504 q 479 660 550 582 l 479 442 l 322 442 l 322 643 q 146 447 256 526 l 46 589 q 239 736 171 660 l 76 736 l 76 874 l 315 874 l 315 939 q 107 926 214 931 l 90 1064 q 683 1124 407 1078 l 732 989 q 486 954 610 967 l 486 874 l 736 874 m 792 647 l 792 1075 l 961 1075 l 961 647 l 792 647 m 1108 1110 l 1288 1110 l 1288 669 q 1285 581 1288 614 q 1276 519 1283 547 q 1257 478 1268 490 q 1222 456 1246 465 q 1169 445 1197 447 q 1093 443 1142 443 q 899 450 1038 443 l 889 594 q 1053 586 1038 586 q 1101 595 1093 586 q 1108 651 1108 604 l 1108 1110 z "},"梶":{"ha":1389,"x_min":17,"x_max":1365,"o":"m 485 485 q 489 671 489 647 l 489 754 l 364 754 q 485 485 369 743 m 663 956 l 663 858 l 1136 858 l 1136 956 l 663 956 m 1076 -121 q 991 -119 1022 -121 q 930 -116 960 -118 q 887 -106 900 -114 q 861 -90 874 -99 q 845 -63 849 -82 q 840 -27 842 -44 q 839 24 839 -10 l 839 93 l 656 67 l 642 210 l 839 239 l 839 313 l 683 289 l 669 422 l 839 449 l 839 522 q 692 508 742 511 l 664 650 q 1168 725 949 665 l 654 725 l 654 551 q 622 176 654 326 q 508 -122 589 26 l 381 25 q 475 339 456 157 l 417 294 q 358 443 408 315 l 358 -129 l 192 -129 l 192 331 q 101 135 153 221 l 17 313 q 192 754 143 517 l 49 754 l 49 907 l 192 907 l 192 1129 l 358 1129 l 358 907 l 489 907 l 489 1097 l 663 1097 l 1317 1097 l 1317 725 l 1247 725 l 1282 610 q 1021 549 1165 574 l 1021 476 l 1308 519 l 1319 386 l 1021 340 l 1021 267 l 1340 314 l 1351 169 l 1021 121 l 1021 74 q 1031 30 1021 36 q 1097 24 1040 24 q 1179 39 1167 24 q 1197 142 1192 54 l 1365 108 q 1360 35 1363 61 q 1351 -20 1358 8 q 1338 -61 1344 -49 q 1314 -88 1332 -74 q 1281 -107 1296 -103 q 1231 -115 1265 -111 q 1165 -120 1196 -119 q 1076 -121 1133 -121 z "},"森":{"ha":1389,"x_min":15,"x_max":1374,"o":"m 65 486 l 267 486 l 267 603 q 132 544 194 571 l 63 696 q 492 879 317 783 l 121 879 l 121 1032 l 600 1032 l 600 1143 l 789 1143 l 789 1032 l 1268 1032 l 1268 879 l 897 879 q 1326 696 1072 783 l 1257 544 q 789 792 975 660 l 789 542 l 600 542 l 600 792 q 285 611 463 694 l 444 611 l 444 486 l 601 486 l 601 338 l 465 338 q 647 183 546 274 l 551 67 q 444 176 494 129 l 444 -129 l 267 -129 l 267 172 q 106 -40 193 54 l 15 96 q 219 338 140 211 l 65 338 l 65 486 m 1324 486 l 1324 338 l 1122 338 q 1374 71 1217 201 l 1279 -67 q 1067 163 1163 35 l 1067 -129 l 889 -129 l 889 149 q 674 -81 792 24 l 581 47 q 851 338 753 192 l 657 338 l 657 486 l 889 486 l 889 611 l 1067 611 l 1067 486 l 1324 486 z "},"楓":{"ha":1389,"x_min":13,"x_max":1382,"o":"m 431 567 l 431 621 l 431 760 l 329 760 q 431 567 365 693 m 944 563 l 896 563 l 896 421 l 944 421 l 944 563 m 736 563 l 736 421 l 785 421 l 785 563 l 736 563 m 1292 306 l 1382 254 q 1359 14 1376 101 q 1315 -104 1342 -74 q 1247 -135 1289 -135 q 1192 -118 1213 -135 q 1149 -42 1171 -101 q 1117 136 1128 18 q 1099 456 1106 254 q 1090 958 1092 658 l 590 958 l 590 532 q 567 113 590 260 q 488 -139 543 -35 l 347 -10 q 428 421 417 138 l 372 365 q 322 481 356 406 l 322 -129 l 164 -129 l 164 335 q 83 140 132 221 l 13 317 q 163 760 115 500 l 32 760 l 32 913 l 164 913 l 164 1129 l 322 1129 l 322 913 l 431 913 l 431 1107 l 1250 1107 q 1275 100 1250 100 q 1292 306 1286 100 m 1042 261 q 1132 -83 1103 43 l 1007 -118 q 986 -24 993 -57 q 583 -74 785 -62 l 576 74 q 767 92 681 81 l 767 290 l 731 290 l 731 229 l 618 229 l 618 694 l 736 694 l 767 694 l 767 769 q 625 760 669 761 l 608 896 q 1056 940 826 907 l 1072 804 q 914 783 999 792 l 914 694 l 944 694 l 1063 694 l 1063 290 l 906 290 l 906 111 q 928 115 913 113 q 951 118 943 117 q 939 167 949 128 q 924 226 929 206 l 1042 261 z "},"横":{"ha":1389,"x_min":17,"x_max":1347,"o":"m 788 919 l 788 850 l 992 850 l 992 919 l 788 919 m 985 442 l 1131 442 l 1131 528 l 985 528 l 985 442 m 985 333 l 985 244 l 1131 244 l 1131 333 l 985 333 m 800 528 l 651 528 l 651 442 l 800 442 l 800 528 m 651 244 l 800 244 l 800 333 l 651 333 l 651 244 m 692 125 l 651 125 l 485 125 l 485 340 l 421 293 q 394 360 415 306 q 358 453 372 415 l 358 -129 l 192 -129 l 192 331 q 101 135 153 221 l 17 313 q 192 754 143 517 l 49 754 l 49 907 l 192 907 l 192 1129 l 358 1129 l 358 907 l 483 907 l 483 850 l 614 850 l 614 919 l 467 919 l 467 1046 l 614 1046 l 614 1135 l 788 1135 l 788 1046 l 992 1046 l 992 1135 l 1165 1135 l 1165 1046 l 1311 1046 l 1311 919 l 1165 919 l 1165 850 l 1343 850 l 1343 713 l 985 713 l 985 653 l 1301 653 l 1301 125 l 1083 125 q 1347 -18 1232 60 l 1268 -147 q 932 26 1096 -42 l 990 125 l 772 125 l 835 39 q 492 -139 707 -65 l 414 -4 q 692 125 578 54 m 800 713 l 457 713 l 457 754 l 367 754 q 485 496 400 683 l 485 653 l 800 653 l 800 713 z "},"樹":{"ha":1389,"x_min":14,"x_max":1372,"o":"m 931 621 l 1057 678 q 1142 411 1099 561 l 1142 753 l 954 753 l 954 889 l 782 889 l 782 822 l 935 822 l 935 685 l 454 685 l 454 822 l 607 822 l 607 889 l 433 889 l 433 760 l 338 760 q 458 529 404 635 l 458 643 l 931 643 l 931 621 m 885 126 q 994 147 957 140 l 1007 39 q 1096 35 1065 35 q 1135 44 1129 35 q 1142 108 1142 54 l 1142 251 l 1046 217 q 931 600 999 410 l 931 310 l 819 310 l 942 279 q 885 126 913 188 m 1150 -122 q 972 -115 1104 -122 l 965 -7 q 408 -101 682 -68 l 386 49 q 694 93 568 72 q 775 310 742 193 l 606 310 l 586 310 q 653 119 626 213 l 496 72 q 426 272 472 157 l 560 310 l 458 310 l 458 389 l 397 333 q 331 485 368 404 l 331 -129 l 169 -129 l 169 332 q 88 140 138 222 l 14 317 q 168 760 122 510 l 35 760 l 35 913 l 169 913 l 169 1129 l 331 1129 l 331 913 l 417 913 l 417 1032 l 607 1032 l 607 1128 l 782 1128 l 782 1032 l 972 1032 l 972 910 l 1142 910 l 1142 1129 l 1308 1129 l 1308 910 l 1372 910 l 1372 753 l 1308 753 l 1308 114 q 1307 22 1308 56 q 1299 -42 1306 -12 q 1284 -85 1293 -72 q 1255 -108 1275 -99 q 1212 -120 1235 -118 q 1150 -122 1189 -122 m 778 431 l 778 524 l 606 524 l 606 431 l 778 431 z "},"橋":{"ha":1389,"x_min":17,"x_max":1361,"o":"m 800 78 l 956 78 l 956 139 l 800 139 l 800 78 m 986 697 q 942 754 963 726 l 824 754 q 778 697 800 722 l 986 697 m 767 540 l 992 540 l 992 603 l 767 603 l 767 540 m 46 907 l 183 907 l 183 1129 l 344 1129 l 344 907 l 454 907 l 454 754 l 354 754 q 410 621 374 710 q 610 754 528 679 l 472 754 l 472 886 l 717 886 q 744 936 729 907 q 490 931 581 931 l 486 1069 q 1268 1135 954 1069 l 1293 990 q 929 946 1163 964 q 903 886 915 911 l 1340 886 l 1340 754 l 1140 754 q 1361 606 1229 667 l 1285 464 q 1150 553 1213 504 l 1150 449 l 767 449 l 608 449 l 608 556 q 474 467 538 501 q 496 410 485 436 l 1313 410 l 1313 114 q 1311 25 1313 58 q 1302 -37 1310 -8 q 1285 -78 1294 -65 q 1252 -100 1275 -90 q 1204 -112 1229 -110 q 1135 -114 1179 -114 q 988 -107 1094 -114 l 982 -14 l 800 -14 l 800 -65 l 656 -65 l 656 239 l 1090 239 l 1090 38 l 1094 38 q 1133 43 1128 38 q 1139 85 1139 49 l 1139 278 l 607 278 l 607 -115 l 438 -115 l 438 317 l 393 288 q 372 347 390 294 q 344 425 354 399 l 344 -129 l 183 -129 l 183 333 q 100 135 149 221 l 17 313 q 179 754 138 526 l 46 754 l 46 907 z "},"橘":{"ha":1389,"x_min":17,"x_max":1340,"o":"m 875 907 q 1024 979 968 949 l 744 979 q 875 907 832 932 m 1043 647 q 1156 754 1106 693 l 1043 754 l 1043 647 m 865 746 q 704 635 782 679 q 829 633 754 633 q 860 638 856 633 q 865 668 865 643 l 865 746 m 671 754 l 444 754 l 440 754 l 354 754 q 460 525 424 604 l 682 525 l 675 619 q 500 539 596 576 l 424 664 q 671 754 557 701 m 1128 336 l 1128 397 l 1031 397 l 1031 372 q 1037 341 1031 346 q 1081 336 1043 336 l 1128 336 m 1083 221 l 1083 35 l 1085 35 q 1122 41 1117 35 q 1128 83 1128 47 l 1128 221 l 1083 221 m 757 231 l 926 231 q 886 321 886 247 l 886 397 l 846 397 q 757 231 846 297 m 617 300 q 701 397 701 350 l 617 397 l 617 300 m 1306 525 l 1306 124 q 1276 -74 1306 -33 q 1128 -114 1247 -114 q 982 -107 1089 -114 l 975 -24 l 807 -24 l 807 -65 l 663 -65 l 663 196 l 617 238 l 617 -115 l 444 -115 l 444 319 l 407 293 q 344 454 372 386 l 344 -129 l 183 -129 l 183 333 q 100 135 149 221 l 17 313 q 179 754 138 526 l 46 754 l 46 907 l 183 907 l 183 1129 l 344 1129 l 344 907 l 444 907 l 444 882 l 661 882 q 608 908 643 892 q 556 933 572 925 l 626 979 l 482 979 l 482 1107 l 1288 1107 l 1288 979 q 1114 882 1218 933 l 1340 882 l 1340 754 q 1176 565 1278 651 l 1043 632 l 1043 622 q 1032 552 1043 572 q 985 525 1021 532 l 1306 525 m 947 67 l 947 132 l 807 132 l 807 67 l 947 67 z "},"櫻":{"ha":1389,"x_min":14,"x_max":1346,"o":"m 636 715 l 636 669 l 740 669 l 740 715 l 636 715 m 636 846 l 636 799 l 740 799 l 740 846 l 636 846 m 636 929 l 740 929 l 740 976 l 636 976 l 636 929 m 694 496 l 732 569 l 653 569 l 694 496 m 1069 715 l 1069 669 l 1174 669 l 1174 715 l 1069 715 m 1069 846 l 1069 799 l 1174 799 l 1174 846 l 1069 846 m 1069 929 l 1174 929 l 1174 976 l 1069 976 l 1069 929 m 1121 496 l 1158 569 l 1079 569 l 1121 496 m 947 400 l 904 490 l 858 400 l 947 400 m 1256 400 q 1122 481 1197 443 q 981 400 1068 436 l 1256 400 m 690 400 q 732 464 701 417 q 697 481 710 475 q 578 400 651 435 l 690 400 m 939 174 q 1046 274 1003 218 l 772 274 q 742 233 761 257 q 939 174 844 207 m 471 274 l 471 400 l 514 400 l 492 442 l 389 347 q 336 471 351 439 l 336 -129 l 174 -129 l 174 347 q 88 140 138 221 l 14 317 q 168 760 122 510 l 39 760 l 39 913 l 174 913 l 174 1129 l 336 1129 l 336 913 l 454 913 l 454 760 l 339 760 q 475 496 406 635 q 606 569 553 529 l 485 569 l 485 1107 l 886 1107 l 886 569 l 803 569 q 907 506 860 540 q 1029 569 983 538 l 925 569 l 925 1107 l 1325 1107 l 1325 569 l 1226 569 q 1346 490 1293 533 l 1296 400 l 1339 400 l 1339 274 l 1229 274 q 1100 111 1179 182 q 1339 0 1226 57 l 1251 -132 q 958 15 1082 -39 q 453 -125 769 -82 l 411 14 q 772 92 624 40 q 651 131 732 106 q 597 79 617 96 l 476 163 q 588 274 525 206 l 471 274 z "},"次":{"ha":1389,"x_min":29,"x_max":1358,"o":"m 1140 835 l 688 835 q 501 499 610 639 l 363 594 q 607 1143 538 828 l 771 1115 q 742 992 758 1051 l 1313 992 l 1313 835 q 1128 444 1254 624 l 981 524 q 1140 835 1085 663 m 318 29 q 750 594 750 200 l 750 757 l 926 757 l 926 594 q 1358 29 926 200 l 1292 -122 q 1028 40 1146 -65 q 842 278 911 146 q 650 39 769 144 q 385 -122 531 -67 l 318 29 m 318 724 q 67 961 214 833 l 183 1075 q 436 842 336 947 l 318 724 m 29 133 q 335 461 221 300 l 467 363 q 146 10 344 185 l 29 133 z "},"武":{"ha":1389,"x_min":69,"x_max":1358,"o":"m 169 924 l 169 1071 l 725 1071 l 725 924 l 169 924 m 997 1031 l 1108 1133 q 1308 947 1206 1054 l 1208 857 l 1319 857 l 1319 707 l 1001 707 q 1051 357 1018 506 q 1111 149 1083 208 q 1157 90 1139 90 q 1211 311 1190 90 l 1358 250 q 1293 -28 1346 63 q 1169 -119 1240 -119 q 1060 -78 1111 -119 q 960 53 1008 -37 q 877 310 913 143 q 825 707 842 478 l 597 707 l 597 514 l 815 514 l 815 361 l 597 361 l 597 115 q 867 169 719 138 l 879 21 q 90 -108 572 -53 l 71 44 q 115 49 86 46 q 156 54 143 53 l 156 579 l 325 579 l 325 75 q 418 88 357 79 l 418 707 l 69 707 l 69 857 l 815 857 q 810 1142 810 974 l 983 1142 q 990 857 983 1000 l 1185 857 q 997 1031 1074 968 z "},"歩":{"ha":1389,"x_min":63,"x_max":1328,"o":"m 435 574 q 197 197 353 375 l 63 300 q 275 625 196 456 l 69 625 l 69 778 l 261 778 l 261 1083 l 442 1083 l 442 778 l 611 778 l 611 1143 l 801 1143 l 801 1032 l 1240 1032 l 1240 889 l 801 889 l 801 778 l 1319 778 l 1319 625 l 1099 625 q 1328 318 1226 482 l 1186 231 q 935 558 1076 401 l 1035 625 l 801 625 l 801 440 q 800 349 801 382 q 790 288 799 317 q 769 247 781 258 q 730 225 757 235 q 672 214 703 215 q 586 213 640 213 q 397 219 519 213 l 389 372 q 553 365 532 365 q 603 374 596 365 q 611 431 611 383 l 611 625 l 326 625 l 435 574 m 114 22 q 653 121 436 44 q 1014 336 869 197 l 1124 219 q 167 -135 822 -85 l 114 22 z "},"毅":{"ha":1389,"x_min":32,"x_max":1372,"o":"m 993 235 q 1129 413 1075 311 l 839 413 q 993 235 899 317 m 432 760 q 474 908 454 828 l 307 908 q 342 760 319 860 l 432 760 m 465 500 q 571 619 525 557 l 428 619 q 410 600 417 606 q 465 500 439 557 m 382 138 q 226 22 315 78 q 331 21 267 21 q 374 32 367 21 q 382 97 382 43 l 382 138 m 543 376 q 774 193 640 268 l 708 61 q 857 133 785 90 q 681 344 746 236 l 818 413 l 676 413 l 676 517 q 543 376 611 436 m 58 619 l 58 760 l 174 760 q 138 908 160 819 l 76 908 l 76 1049 l 292 1049 l 292 1129 l 472 1129 l 472 1049 l 692 1049 l 692 908 l 635 908 q 594 760 611 811 l 697 760 l 697 704 q 745 819 731 749 q 760 1018 760 890 l 760 1097 l 1181 1097 l 1181 775 q 1183 756 1181 758 q 1201 753 1186 753 q 1226 774 1222 753 q 1238 917 1231 794 l 1372 899 q 1367 803 1369 835 q 1360 734 1365 772 q 1351 681 1354 696 q 1333 648 1347 667 q 1308 625 1318 629 q 1270 615 1297 621 q 1222 608 1243 608 q 1156 608 1200 608 q 1044 624 1069 608 q 1018 692 1018 640 l 1018 951 l 913 951 l 913 933 q 803 572 913 679 l 697 667 l 697 619 l 586 619 l 682 560 l 1310 560 l 1310 413 q 1125 138 1238 246 q 1371 24 1243 65 l 1303 -121 q 989 31 1138 -69 q 669 -121 858 -57 l 597 24 q 690 54 661 43 q 539 193 608 117 q 544 74 544 115 q 512 -85 544 -49 q 372 -121 479 -121 q 232 -118 338 -121 l 218 18 q 93 -49 160 -17 l 32 89 q 364 294 239 178 q 353 339 361 314 q 97 178 246 249 l 39 311 q 304 461 201 378 q 294 478 301 467 q 283 497 288 490 q 101 396 208 446 l 44 525 q 246 619 157 565 l 58 619 z "},"比":{"ha":1389,"x_min":33,"x_max":1340,"o":"m 701 40 q 58 -114 368 -74 l 33 39 q 183 64 114 50 l 183 1104 l 368 1104 l 368 711 l 671 711 l 671 553 l 368 553 l 368 104 q 674 192 517 140 l 701 40 m 1028 58 q 1097 63 1061 58 q 1146 113 1138 68 q 1160 414 1154 158 l 1326 396 q 1319 203 1322 274 q 1306 72 1315 132 q 1288 -15 1297 13 q 1257 -62 1279 -42 q 1213 -87 1235 -82 q 1150 -97 1192 -93 q 1024 -104 1097 -104 q 899 -100 956 -104 q 766 -58 793 -93 q 739 114 739 -22 l 739 1104 l 924 1104 l 924 724 q 1224 975 1068 819 l 1340 851 q 924 526 1133 646 l 924 136 q 928 76 924 86 q 960 63 933 65 q 1028 58 992 58 z "},"水":{"ha":1389,"x_min":29,"x_max":1360,"o":"m 1360 129 l 1243 -8 q 806 525 981 197 l 806 101 q 801 -22 806 18 q 771 -88 796 -62 q 709 -119 746 -114 q 594 -125 672 -125 q 379 -118 553 -125 l 371 39 q 558 32 524 32 q 613 41 604 32 q 621 97 621 50 l 621 1129 l 806 1129 l 806 903 q 921 644 849 775 q 1196 938 1065 764 l 1329 833 q 1014 497 1189 636 q 1360 129 1167 279 m 79 699 l 79 857 l 556 857 l 556 699 q 405 317 517 500 q 133 10 293 135 l 29 157 q 250 402 149 251 q 393 699 351 553 l 79 699 z "},"永":{"ha":1389,"x_min":31,"x_max":1360,"o":"m 1010 467 q 1360 101 1158 254 l 1240 -40 q 806 506 976 167 l 806 101 q 801 -22 806 18 q 771 -88 796 -62 q 709 -119 746 -114 q 594 -125 672 -125 q 379 -118 553 -125 l 371 35 q 558 28 524 28 q 613 37 604 28 q 621 93 621 46 l 621 725 l 250 725 l 250 878 l 806 878 q 918 614 844 747 q 1196 910 1068 740 l 1329 806 q 1010 467 1190 608 m 340 1000 l 385 1153 q 988 1035 679 1119 l 932 882 q 340 1000 671 958 m 79 479 l 79 628 l 556 628 l 556 479 q 139 -26 449 201 l 31 115 q 383 479 285 292 l 79 479 z "},"江":{"ha":1389,"x_min":51,"x_max":1338,"o":"m 111 999 l 214 1122 q 450 932 333 1036 l 347 804 q 111 999 242 901 m 307 481 q 51 693 182 597 l 154 817 q 411 607 274 732 l 307 481 m 494 332 q 377 92 449 214 q 231 -121 306 -31 l 88 -26 q 350 404 242 161 l 494 332 m 997 907 l 997 93 l 1338 93 l 1338 -65 l 454 -65 l 454 93 l 807 93 l 807 907 l 482 907 l 482 1065 l 1317 1065 l 1317 907 l 997 907 z "},"池":{"ha":1389,"x_min":35,"x_max":1351,"o":"m 819 861 l 819 1135 l 983 1135 l 983 894 l 1306 963 l 1306 871 q 1292 492 1306 611 q 1253 340 1278 372 q 1169 308 1228 308 q 1043 313 1122 308 l 1013 469 q 1104 465 1069 465 q 1117 470 1114 465 q 1125 504 1121 475 q 1131 590 1129 533 q 1133 756 1132 646 l 983 724 l 983 208 l 819 208 l 819 689 l 699 664 l 699 104 q 728 52 699 60 q 938 44 758 44 q 1015 44 992 44 q 1070 49 1038 44 q 1113 56 1103 54 q 1141 75 1124 58 q 1160 102 1158 92 q 1170 147 1163 113 q 1178 204 1178 181 q 1183 285 1179 228 l 1351 247 q 1344 133 1347 175 q 1328 47 1340 90 q 1307 -18 1317 3 q 1269 -61 1297 -39 q 1214 -91 1240 -83 q 1133 -106 1188 -99 q 1027 -113 1079 -112 q 886 -114 975 -114 q 740 -112 794 -114 q 641 -103 686 -111 q 576 -85 596 -94 q 541 -52 556 -75 q 524 -4 526 -29 q 521 67 521 21 l 521 626 l 421 604 l 388 771 l 521 799 l 521 1063 l 699 1063 l 699 836 l 819 861 m 94 999 l 197 1122 q 429 936 315 1039 l 326 810 q 94 999 231 897 m 292 481 q 35 693 172 592 l 138 817 q 394 607 257 732 l 292 481 m 426 350 q 217 -121 353 89 l 71 -28 q 274 410 192 163 l 426 350 z "},"汰":{"ha":1389,"x_min":31,"x_max":1364,"o":"m 90 999 l 193 1122 q 425 936 311 1039 l 321 810 q 90 999 219 903 m 286 481 q 31 693 161 597 l 133 817 q 390 607 253 732 l 286 481 m 413 354 q 213 -121 343 88 l 64 -31 q 260 410 183 167 l 413 354 m 400 721 l 400 883 l 756 883 q 757 946 757 904 l 757 1142 l 942 1142 l 942 946 q 943 883 942 904 l 1338 883 l 1338 721 l 958 721 q 1364 36 1026 286 l 1267 -117 q 1030 125 1138 -29 q 857 468 922 279 q 717 185 800 314 l 839 249 q 1003 -36 925 110 l 858 -110 q 701 161 790 19 q 433 -117 582 -17 l 336 36 q 740 721 672 288 l 400 721 z "},"沙":{"ha":1389,"x_min":31,"x_max":1358,"o":"m 90 999 l 193 1122 q 425 936 311 1039 l 321 810 q 90 999 219 903 m 286 485 q 31 690 174 586 l 133 814 q 390 613 282 710 l 286 485 m 422 350 q 213 -121 349 89 l 67 -28 q 269 410 188 163 l 422 350 m 739 472 q 779 481 774 472 q 785 538 785 489 l 785 1129 l 969 1129 l 969 542 q 966 439 969 476 q 954 374 963 401 q 927 335 946 347 q 884 319 908 324 q 817 315 860 315 q 629 322 756 315 l 621 479 q 739 472 699 472 m 690 979 q 535 407 651 686 l 372 468 q 525 1010 481 726 l 690 979 m 1044 979 l 1211 1024 q 1358 489 1301 772 l 1192 451 q 1044 979 1129 731 m 389 25 q 865 167 683 63 q 1146 454 1047 272 l 1292 368 q 438 -132 1051 -58 l 389 25 z "},"沢":{"ha":1389,"x_min":53,"x_max":1343,"o":"m 699 490 q 529 -132 678 118 l 378 -35 q 494 278 461 114 q 528 740 528 443 l 528 1086 l 1274 1086 l 1274 490 l 1035 490 q 1343 3 1117 201 l 1235 -133 q 1007 130 1110 -36 q 853 490 904 296 l 699 490 m 704 643 l 1093 643 l 1093 928 l 704 928 l 704 668 l 704 643 m 114 999 l 217 1122 q 449 936 335 1039 l 344 810 q 114 999 243 903 m 310 481 q 53 693 190 592 l 156 817 q 414 607 282 726 l 310 481 m 438 332 q 233 -121 358 71 l 89 -28 q 288 404 207 160 l 438 332 z "},"河":{"ha":1389,"x_min":44,"x_max":1344,"o":"m 607 218 l 607 107 l 438 107 l 438 794 l 960 794 l 960 218 l 607 218 m 607 354 l 800 354 l 800 657 l 607 657 l 607 354 m 285 476 q 44 689 169 589 l 147 807 q 389 599 281 706 l 285 476 m 390 328 q 221 -121 326 79 l 74 -32 q 238 386 172 158 l 390 328 m 1064 100 l 1064 928 l 392 928 l 294 818 q 79 1008 197 913 l 182 1122 q 378 954 281 1047 l 378 1086 l 1344 1086 l 1344 928 l 1244 928 l 1244 104 q 1240 -20 1244 19 q 1209 -86 1235 -60 q 1147 -117 1183 -112 q 1031 -122 1110 -122 q 794 -115 985 -122 l 786 42 q 999 35 969 35 q 1054 44 1044 35 q 1064 100 1064 54 z "},"治":{"ha":1389,"x_min":39,"x_max":1368,"o":"m 664 -65 l 664 -129 l 483 -129 l 483 476 l 1271 476 l 1271 -129 l 1086 -129 l 1086 -65 l 664 -65 m 100 999 l 203 1122 q 435 936 321 1039 l 331 810 q 100 999 229 903 m 296 481 q 39 693 176 592 l 142 817 q 400 607 268 726 l 296 481 m 431 350 q 222 -121 357 85 l 75 -28 q 279 410 199 167 l 431 350 m 982 940 l 1138 1010 q 1368 574 1271 786 l 1211 506 q 1180 571 1201 528 q 1151 628 1158 614 q 417 553 769 568 l 413 711 q 519 717 485 714 q 697 1154 611 918 l 875 1113 q 719 731 799 904 q 1078 769 861 742 q 982 940 1026 865 m 1086 83 l 1086 324 l 664 324 l 664 83 l 1086 83 z "},"波":{"ha":1389,"x_min":21,"x_max":1356,"o":"m 810 861 l 611 861 l 611 667 l 810 667 l 810 861 m 1338 861 q 1254 657 1304 754 l 1254 518 q 1056 161 1178 303 q 1356 32 1176 81 l 1311 -121 q 929 44 1086 -69 q 567 -121 785 -64 l 517 0 q 444 -129 485 -72 l 325 24 q 415 275 389 140 q 440 656 440 410 l 440 1014 l 810 1014 l 810 1143 l 990 1143 l 990 1014 l 1338 1014 l 1338 861 m 1163 861 l 990 861 l 990 667 l 1221 667 l 1100 722 q 1163 861 1128 774 m 76 1001 l 176 1122 q 404 936 300 1032 l 303 811 q 76 1001 196 911 m 272 478 q 21 690 157 586 l 124 811 q 376 603 256 714 l 272 478 m 381 332 q 196 -121 317 85 l 47 -35 q 224 386 156 154 l 381 332 m 621 443 l 775 507 q 924 274 833 374 q 1065 518 1013 376 l 611 518 q 535 40 611 232 q 799 161 690 85 q 621 443 696 274 z "},"泰":{"ha":1389,"x_min":44,"x_max":1344,"o":"m 599 646 l 800 646 q 761 725 778 689 l 639 725 q 599 646 631 707 m 1292 33 l 1217 -110 q 811 74 1024 1 l 869 201 l 799 265 q 963 415 888 336 q 888 508 929 453 l 511 508 q 433 411 461 442 q 575 263 518 331 l 513 211 l 569 83 q 471 26 506 44 q 572 21 571 21 q 598 27 594 21 q 601 69 601 33 l 601 475 l 781 475 l 781 79 q 779 -4 781 26 q 769 -61 778 -35 q 751 -99 761 -87 q 716 -120 740 -111 q 665 -131 692 -129 q 590 -132 638 -132 q 446 -125 543 -132 l 439 10 q 151 -106 293 -65 l 99 44 q 431 179 269 96 q 318 297 394 221 q 104 149 228 218 l 44 319 q 304 508 203 403 l 56 508 l 56 646 l 411 646 q 454 725 431 676 l 149 725 l 149 850 l 504 850 q 528 925 519 893 l 101 925 l 101 1067 l 557 1067 q 569 1156 565 1125 l 754 1150 q 743 1067 751 1122 l 1288 1067 l 1288 925 l 713 925 q 689 850 706 900 l 1240 850 l 1240 725 l 938 725 q 982 646 963 675 l 1333 646 l 1333 508 l 1093 508 q 1344 328 1194 407 l 1285 158 q 1076 301 1169 219 q 957 188 1029 253 q 1292 33 1136 126 z "},"洋":{"ha":1389,"x_min":32,"x_max":1333,"o":"m 85 1008 l 189 1122 q 404 936 307 1031 l 300 818 q 85 1008 203 913 m 272 476 q 32 689 157 589 l 135 807 q 376 599 268 706 l 272 476 m 378 328 q 208 -121 314 79 l 61 -32 q 225 386 160 158 l 378 328 m 968 326 l 1333 326 l 1333 169 l 968 169 l 968 -129 l 782 -129 l 782 169 l 403 169 l 403 326 l 782 326 l 782 500 l 449 500 l 449 649 l 782 649 l 782 808 l 426 808 l 426 961 l 608 961 q 524 1118 561 1056 l 685 1156 q 788 961 732 1079 l 961 961 q 1061 1154 1031 1082 l 1226 1124 q 1146 961 1190 1039 l 1313 961 l 1313 808 l 968 808 l 968 649 l 1289 649 l 1289 500 l 968 500 l 968 326 z "},"津":{"ha":1389,"x_min":31,"x_max":1354,"o":"m 963 685 l 963 594 l 1108 594 l 1108 685 l 963 685 m 963 914 l 963 829 l 1108 829 l 1108 914 l 963 914 m 65 1008 l 168 1122 q 385 936 293 1026 l 281 818 q 65 1008 183 913 m 271 476 q 31 689 156 589 l 133 807 q 375 599 267 706 l 271 476 m 376 328 q 207 -121 313 79 l 60 -32 q 224 386 158 158 l 376 328 m 1351 167 l 1351 24 l 963 24 l 963 -139 l 778 -139 l 778 24 l 354 24 l 354 167 l 778 167 l 778 247 l 414 247 l 414 392 l 778 392 l 778 468 l 438 468 l 438 594 l 778 594 l 778 685 l 354 685 l 354 829 l 778 829 l 778 914 l 428 914 l 428 1046 l 778 1046 l 778 1139 l 963 1139 l 963 1046 l 1282 1046 l 1282 829 l 1354 829 l 1354 685 l 1282 685 l 1282 468 l 963 468 l 963 392 l 1306 392 l 1306 247 l 963 247 l 963 167 l 1351 167 z "},"洸":{"ha":1389,"x_min":31,"x_max":1336,"o":"m 76 999 l 179 1122 q 411 936 297 1039 l 307 810 q 76 999 206 903 m 286 481 q 31 693 161 597 l 133 817 q 390 607 253 732 l 286 481 m 422 350 q 213 -121 349 89 l 67 -28 q 269 410 188 163 l 422 350 m 1169 347 l 1336 333 q 1333 218 1333 257 q 1327 127 1332 179 q 1321 54 1322 75 q 1310 2 1319 33 q 1294 -39 1300 -29 q 1272 -64 1289 -49 q 1242 -81 1254 -79 q 1202 -88 1231 -83 q 1153 -93 1174 -93 q 1090 -93 1132 -93 q 901 -65 939 -93 q 864 74 864 -37 l 864 476 l 785 476 q 691 126 771 261 q 440 -114 611 -10 l 333 28 q 535 211 472 111 q 611 476 597 311 l 403 476 l 403 632 l 764 632 l 764 1129 l 949 1129 l 949 632 l 1326 632 l 1326 476 l 1044 476 l 1044 107 q 1051 66 1044 72 q 1097 60 1058 60 q 1156 96 1147 60 q 1169 347 1165 132 m 558 1065 q 706 722 638 906 l 551 664 q 403 1007 476 861 l 558 1065 m 1315 1024 q 1164 664 1258 847 l 1007 719 q 1150 1069 1093 889 l 1315 1024 z "},"浅":{"ha":1389,"x_min":36,"x_max":1357,"o":"m 282 478 q 36 690 171 585 l 139 811 q 385 603 274 710 l 282 478 m 393 339 q 215 -121 329 83 l 68 -31 q 240 397 169 154 l 393 339 m 749 1129 l 932 1129 q 933 1006 932 1046 l 1051 1017 q 996 1100 1038 1039 l 1136 1147 q 1214 1031 1188 1072 l 1285 1038 l 1299 889 l 939 856 q 944 764 942 794 l 1264 793 l 1278 654 l 957 622 q 965 567 960 601 q 971 524 969 532 l 1313 560 l 1326 413 l 999 374 q 1025 272 1013 313 q 1165 383 1100 321 l 1279 290 q 1082 132 1185 197 q 1164 49 1126 49 q 1178 63 1171 49 q 1197 117 1186 78 q 1217 215 1207 157 l 1357 154 q 1172 -122 1318 -122 q 925 44 1024 -122 q 413 -118 703 -64 l 356 32 q 861 185 654 90 q 815 353 836 258 l 436 308 l 421 465 l 788 504 q 775 604 781 553 l 479 575 l 465 719 l 761 746 q 756 839 758 775 l 403 806 l 393 911 l 310 817 q 89 1006 225 897 l 196 1122 q 392 958 293 1049 l 750 990 q 749 1129 749 1035 z "},"浜":{"ha":1389,"x_min":32,"x_max":1353,"o":"m 994 358 l 994 663 l 683 663 l 683 358 l 994 358 m 686 204 l 400 204 l 400 358 l 499 358 l 499 882 l 499 1038 q 910 1066 707 1038 q 1228 1135 1114 1094 l 1279 975 q 1030 920 1193 944 q 683 886 867 896 l 683 813 l 1314 813 l 1314 663 l 1175 663 l 1175 358 l 1353 358 l 1353 204 l 1046 204 q 1350 -3 1221 111 l 1258 -149 q 904 90 1108 -18 l 969 204 l 756 204 l 821 100 q 429 -139 651 -47 l 356 14 q 686 204 536 92 m 93 997 l 197 1122 q 438 928 339 1021 l 333 801 q 93 997 222 904 m 299 469 q 32 690 172 588 l 136 815 q 403 597 286 707 l 299 469 m 389 333 q 213 -121 329 81 l 64 -33 q 233 404 169 160 l 389 333 z "},"浦":{"ha":1389,"x_min":31,"x_max":1343,"o":"m 1129 293 l 1129 411 l 935 411 l 935 293 l 1129 293 m 567 411 l 567 293 l 757 293 l 757 411 l 567 411 m 567 547 l 757 547 l 757 656 l 567 656 l 567 547 m 65 1008 l 168 1122 q 344 974 265 1047 l 344 1042 l 757 1042 l 757 1149 l 935 1149 l 935 1042 l 1069 1042 q 1051 1069 1063 1051 q 1031 1100 1040 1086 q 1014 1125 1022 1114 l 1163 1168 q 1246 1042 1197 1119 l 1343 1042 l 1343 893 l 935 893 l 935 799 l 1306 799 l 1306 86 q 1304 -1 1306 32 q 1297 -60 1303 -33 q 1283 -99 1290 -87 q 1258 -120 1276 -111 q 1221 -131 1240 -129 q 1167 -132 1201 -132 q 1000 -125 1125 -132 l 986 22 q 1097 15 1074 15 q 1125 24 1121 15 q 1129 81 1129 33 l 1129 156 l 935 156 l 935 -97 l 757 -97 l 757 156 l 567 156 l 567 -135 l 392 -135 l 392 799 l 757 799 l 757 893 l 346 893 l 281 818 q 65 1008 183 913 m 271 476 q 31 689 156 589 l 133 807 q 375 599 267 706 l 271 476 m 376 328 q 207 -121 313 79 l 60 -32 q 224 386 158 158 l 376 328 m 1129 656 l 935 656 l 935 547 l 1129 547 l 1129 656 z "},"浩":{"ha":1389,"x_min":31,"x_max":1336,"o":"m 653 90 l 1108 90 l 1108 268 l 653 268 l 653 90 m 653 -51 l 653 -115 l 476 -115 l 476 413 l 1289 413 l 1289 -115 l 1108 -115 l 1108 -51 l 653 -51 m 90 999 l 193 1122 q 425 936 311 1039 l 321 810 q 90 999 219 903 m 286 481 q 31 693 161 597 l 133 817 q 390 607 253 732 l 286 481 m 422 350 q 213 -121 349 89 l 67 -28 q 269 410 188 163 l 422 350 m 999 649 l 1336 649 l 1336 496 l 426 496 l 426 649 l 818 649 l 818 838 l 646 838 q 571 674 611 747 l 411 733 q 564 1131 511 922 l 728 1099 q 697 986 719 1061 l 818 986 l 818 1128 l 999 1128 l 999 986 l 1304 986 l 1304 838 l 999 838 l 999 649 z "},"海":{"ha":1389,"x_min":18,"x_max":1354,"o":"m 947 496 l 1100 496 q 1115 676 1111 618 l 965 676 q 947 496 953 543 m 792 496 q 810 676 797 543 l 658 676 q 639 496 653 618 l 792 496 m 751 171 q 774 347 760 228 l 619 347 q 592 171 610 279 l 751 171 m 906 171 l 1067 171 q 1086 347 1079 276 l 929 347 q 906 171 921 274 m 79 999 l 182 1122 q 414 936 300 1039 l 310 810 q 79 999 208 903 m 275 481 q 18 693 156 592 l 121 817 q 379 607 247 726 l 275 481 m 350 704 q 579 1158 506 906 l 750 1128 q 726 1049 743 1101 l 1326 1049 l 1326 900 l 668 900 q 628 817 656 872 l 1297 817 q 1271 496 1292 728 l 1354 496 l 1354 347 l 1257 347 q 1239 171 1246 228 l 1313 171 l 1313 32 l 1222 32 q 1219 6 1221 24 q 1215 -19 1217 -11 q 1169 -122 1206 -94 q 1046 -150 1133 -150 q 911 -149 971 -150 l 903 -7 q 996 -10 983 -10 q 1038 -4 1029 -10 q 1050 32 1046 1 l 568 32 q 559 -21 565 15 q 549 -75 553 -57 l 378 -64 q 447 347 414 121 l 406 347 q 196 -121 332 85 l 50 -28 q 256 414 176 174 l 379 365 l 379 496 l 468 496 q 475 549 471 514 q 481 603 479 585 l 350 704 z "},"涼":{"ha":1389,"x_min":21,"x_max":1365,"o":"m 635 354 l 454 354 l 454 815 l 1282 815 l 1282 354 l 963 354 l 963 101 q 958 -22 963 18 q 934 -88 954 -62 q 883 -119 914 -114 q 789 -125 853 -125 q 622 -118 728 -125 l 614 39 q 733 32 692 32 q 772 40 767 32 q 778 97 778 49 l 778 354 l 635 354 m 635 490 l 1101 490 l 1101 683 l 635 683 l 635 490 m 79 999 l 183 1122 q 374 972 267 1064 l 374 1038 l 768 1038 l 768 1143 l 954 1143 l 954 1038 l 1351 1038 l 1351 889 l 376 889 l 311 810 q 79 999 215 897 m 278 481 q 21 693 158 592 l 124 817 q 381 607 243 732 l 278 481 m 401 340 q 196 -121 331 83 l 50 -28 q 246 403 172 169 l 401 340 m 468 -94 l 331 3 q 565 338 475 157 l 713 267 q 468 -94 621 63 m 975 247 l 1118 338 q 1365 -14 1257 185 l 1225 -100 q 975 247 1118 92 z "},"清":{"ha":1389,"x_min":31,"x_max":1336,"o":"m 663 246 l 663 192 l 1100 192 l 1100 246 l 663 246 m 663 356 l 1100 356 l 1100 410 l 663 410 l 663 356 m 90 999 l 193 1122 q 425 936 311 1039 l 321 810 q 90 999 219 903 m 286 481 q 31 693 161 597 l 133 817 q 390 607 253 732 l 286 481 m 422 350 q 213 -121 349 89 l 67 -28 q 269 410 188 163 l 422 350 m 989 707 l 1336 707 l 1336 579 l 428 579 l 428 707 l 799 707 l 799 760 l 493 760 l 493 878 l 799 878 l 799 931 l 461 931 l 461 1060 l 799 1060 l 799 1143 l 989 1143 l 989 1060 l 1317 1060 l 1317 931 l 989 931 l 989 878 l 1285 878 l 1285 760 l 989 760 l 989 707 m 1076 -118 q 924 -111 1033 -118 l 919 31 q 1053 25 1008 25 q 1094 29 1088 25 q 1100 60 1100 33 l 1100 81 l 663 81 l 663 -121 l 479 -121 l 479 533 l 1285 533 l 1285 74 q 1252 -89 1285 -60 q 1076 -118 1219 -118 z "},"湯":{"ha":1389,"x_min":29,"x_max":1333,"o":"m 639 794 l 639 729 l 1065 729 l 1065 794 l 639 794 m 639 899 l 1065 899 l 1065 961 l 639 961 l 639 899 m 78 1008 l 182 1122 q 397 936 300 1031 l 293 818 q 78 1008 196 913 m 269 476 q 29 689 154 589 l 132 807 q 374 599 265 706 l 269 476 m 463 1101 l 1250 1101 l 1250 619 l 639 619 l 463 619 l 463 1101 m 1122 -125 q 963 -118 1071 -125 l 954 28 q 1067 21 1026 21 q 1103 35 1092 21 q 1122 101 1115 50 q 1129 253 1129 151 l 1129 271 l 1117 271 q 953 42 1058 158 q 736 -146 847 -74 l 629 -43 q 805 97 718 11 q 951 271 892 182 l 872 271 q 679 80 796 174 q 449 -69 563 -14 l 353 38 q 685 271 539 125 l 590 271 q 388 132 483 181 l 336 197 q 206 -121 275 11 l 58 -32 q 222 386 157 158 l 375 328 q 361 276 365 289 q 578 444 479 346 l 392 444 l 392 575 l 1333 575 l 1333 444 l 754 444 q 715 396 747 435 l 1301 396 l 1301 282 q 1283 21 1301 108 q 1228 -96 1264 -67 q 1122 -125 1193 -125 z "},"源":{"ha":1389,"x_min":21,"x_max":1363,"o":"m 824 521 l 824 426 l 1114 426 l 1114 521 l 824 521 m 824 647 l 1114 647 l 1114 738 l 824 738 l 824 647 m 1058 218 l 1157 293 l 1058 293 l 1058 218 m 747 43 q 847 38 818 38 q 877 46 872 38 q 882 101 882 54 l 882 293 l 824 293 l 736 293 l 842 243 q 747 43 803 136 m 76 1001 l 176 1122 q 401 938 304 1029 l 300 814 q 76 1001 193 914 m 272 478 q 21 690 157 586 l 124 811 q 376 603 256 714 l 272 478 m 368 332 q 185 -121 304 81 l 47 -35 q 224 386 156 154 l 368 332 m 426 1093 l 1338 1093 l 1338 944 l 1064 944 q 1055 906 1061 931 q 1046 871 1049 881 l 1294 871 l 1294 293 l 1185 293 q 1363 -14 1282 157 l 1232 -101 q 1058 200 1150 64 l 1058 60 q 1033 -92 1058 -62 q 899 -121 1007 -121 q 751 -114 840 -121 l 743 38 q 643 -100 697 -37 l 519 -1 q 700 293 636 128 l 651 293 l 651 871 l 858 871 q 876 944 865 894 l 597 944 l 597 533 q 557 160 597 317 q 431 -122 517 3 l 308 31 q 400 285 374 149 q 426 663 426 421 l 426 1093 z "},"澄":{"ha":1389,"x_min":17,"x_max":1368,"o":"m 1042 667 l 1042 610 l 643 610 l 643 665 q 504 542 589 610 l 1182 542 q 1042 667 1106 603 m 960 757 q 842 919 894 835 q 726 757 781 821 l 960 757 m 646 308 l 1039 308 l 1039 411 l 646 411 l 646 308 m 906 44 q 963 185 940 119 l 729 185 q 779 44 756 119 l 906 44 m 63 999 l 165 1122 q 397 936 283 1039 l 293 810 q 63 999 192 903 m 394 346 q 185 -125 321 85 l 39 -32 q 242 404 160 160 l 394 346 m 343 -107 l 343 44 l 599 44 q 546 185 571 124 l 465 185 l 465 513 q 375 451 418 479 l 339 550 l 272 469 q 17 682 147 586 l 119 804 q 344 625 254 706 q 490 729 440 689 q 365 864 408 819 l 486 957 q 603 833 538 906 q 704 963 654 888 l 440 963 l 440 1108 l 917 1108 q 979 986 943 1046 q 1068 1114 1032 1056 l 1197 1038 q 1068 861 1143 950 q 1125 799 1104 819 q 1235 951 1174 858 l 1364 875 q 1235 701 1313 792 q 1368 607 1300 650 l 1310 451 q 1219 513 1249 490 l 1219 185 l 1138 185 q 1085 44 1115 115 l 1329 44 l 1329 -107 l 343 -107 z "},"澤":{"ha":1389,"x_min":21,"x_max":1347,"o":"m 692 885 l 692 979 l 586 979 l 586 885 l 692 885 m 928 885 l 928 979 l 819 979 l 819 885 l 928 885 m 1056 885 l 1163 885 l 1163 979 l 1056 979 l 1056 885 m 985 307 q 1044 410 1021 361 l 743 410 q 781 307 767 351 l 985 307 m 76 999 l 179 1122 q 408 940 301 1036 l 306 814 q 76 999 218 894 m 278 481 q 21 693 158 592 l 124 817 q 381 607 243 732 l 278 481 m 390 349 q 192 -121 319 82 l 46 -29 q 242 411 165 168 l 390 349 m 794 174 l 399 174 l 399 307 l 596 307 q 556 410 579 351 l 399 410 l 399 543 l 794 543 l 794 597 l 451 597 l 451 719 l 794 719 l 794 774 l 586 774 l 438 774 l 438 1108 l 1313 1108 l 1313 774 l 983 774 l 983 719 l 1299 719 l 1299 597 l 983 597 l 983 543 l 1347 543 l 1347 410 l 1231 410 q 1176 307 1208 363 l 1347 307 l 1347 174 l 983 174 l 983 115 l 1317 115 l 1317 -15 l 983 -15 l 983 -136 l 794 -136 l 794 -15 l 433 -15 l 433 115 l 794 115 l 794 174 z "},"澪":{"ha":1389,"x_min":22,"x_max":1371,"o":"m 733 578 l 771 599 l 771 806 l 547 806 l 547 767 l 733 767 l 733 671 l 547 671 l 547 635 l 733 635 l 733 578 m 740 426 l 969 426 q 854 497 917 456 q 740 426 794 457 m 607 354 q 385 261 490 299 l 367 326 q 199 -121 301 71 l 51 -32 q 215 388 153 164 l 365 331 l 344 410 q 663 539 525 469 l 489 539 l 489 593 l 378 593 l 378 919 l 771 919 l 771 964 l 413 964 l 413 1107 l 1301 1107 l 1301 964 l 938 964 l 938 919 l 1336 919 l 1336 593 l 1219 593 l 1219 539 l 1047 539 q 1371 410 1183 471 l 1336 261 q 1107 354 1210 304 l 1107 307 l 607 307 l 607 354 m 60 1008 l 163 1122 q 376 939 274 1038 l 272 821 q 60 1008 175 917 m 254 483 q 22 689 168 569 l 125 807 q 357 606 258 701 l 254 483 m 975 671 l 975 767 l 1161 767 l 1161 806 l 938 806 l 938 599 l 975 578 l 975 635 l 1161 635 l 1161 671 l 975 671 m 1136 -115 q 961 -108 1093 -115 l 947 36 q 1086 29 1044 29 q 1117 36 1113 29 q 1121 85 1121 43 l 1121 117 l 872 117 l 872 -143 l 692 -143 l 692 117 l 389 117 l 389 254 l 1296 254 l 1296 93 q 1269 -80 1296 -44 q 1136 -115 1242 -115 z "},"瀬":{"ha":1389,"x_min":18,"x_max":1371,"o":"m 471 490 l 522 490 l 522 663 l 471 663 l 471 490 m 692 490 l 692 663 l 640 663 l 640 490 l 692 490 m 1007 358 l 1007 281 l 1163 281 l 1163 358 l 1007 358 m 1007 547 l 1007 474 l 1163 474 l 1163 547 l 1007 547 m 1007 664 l 1163 664 l 1163 735 l 1007 735 l 1007 664 m 253 471 q 18 689 138 589 l 124 804 q 344 606 240 710 l 344 801 l 496 801 l 496 889 l 335 889 l 268 818 q 53 1008 171 913 l 156 1122 q 319 981 239 1057 l 319 1038 l 496 1038 l 496 1143 l 667 1143 l 667 1038 l 826 1038 l 826 1100 l 1351 1100 l 1351 951 l 1164 951 q 1146 872 1151 893 l 1326 872 l 1326 143 l 1175 143 q 1371 -11 1292 71 l 1289 -142 q 1067 32 1182 -39 l 1138 143 l 1007 143 l 992 143 l 1063 38 q 840 -139 981 -65 l 761 -6 q 963 143 886 63 l 857 143 l 857 872 l 976 872 q 996 951 988 914 l 831 951 l 831 889 l 667 889 l 667 801 l 817 801 l 817 351 l 692 351 l 678 351 q 847 190 751 265 l 799 24 q 667 171 721 99 l 667 -129 l 496 -129 l 496 146 q 350 -60 436 38 l 288 88 q 194 -121 244 -25 l 47 -32 q 211 386 146 158 l 363 322 q 297 113 336 219 q 481 351 408 219 l 471 351 l 344 351 l 344 574 l 253 471 z "},"片":{"ha":1389,"x_min":42,"x_max":1329,"o":"m 368 803 l 747 803 l 747 1129 l 933 1129 l 933 803 l 1329 803 l 1329 646 l 368 646 l 368 539 q 367 461 368 486 l 1053 461 l 1053 -129 l 868 -129 l 868 303 l 350 303 q 167 -135 310 46 l 42 21 q 153 283 119 136 q 188 669 188 429 l 188 1115 l 368 1115 l 368 803 z "},"玄":{"ha":1389,"x_min":65,"x_max":1344,"o":"m 1088 426 q 1344 -53 1235 193 l 1181 -118 q 1122 6 1147 -42 q 101 -69 592 -54 l 93 88 q 328 97 249 93 q 524 276 447 201 q 122 646 338 464 l 243 767 q 307 712 265 749 q 360 665 349 675 q 547 864 453 757 l 65 864 l 65 1017 l 600 1017 l 600 1164 l 789 1164 l 789 1017 l 1324 1017 l 1324 864 l 776 864 q 488 549 639 692 q 644 397 560 482 q 1021 822 839 593 l 1169 722 q 600 114 900 389 q 1046 150 794 126 q 929 351 988 257 l 1088 426 z "},"玲":{"ha":1389,"x_min":44,"x_max":1365,"o":"m 707 813 l 1071 813 q 872 1011 958 911 q 707 813 793 903 m 475 896 l 351 896 l 351 639 l 463 639 l 463 539 l 1289 539 l 1289 194 q 1285 71 1289 111 q 1264 4 1282 31 q 1220 -27 1246 -22 q 1140 -32 1194 -32 q 982 -25 1090 -32 l 969 132 q 1076 125 1035 125 q 1109 134 1104 125 q 1114 190 1114 143 l 1114 382 l 893 382 l 893 -129 l 708 -129 l 708 382 l 449 382 l 449 482 l 351 482 l 351 185 q 489 229 421 206 l 503 74 q 63 -51 296 -1 l 44 107 q 176 136 111 121 l 176 482 l 65 482 l 65 639 l 176 639 l 176 896 l 51 896 l 51 1058 l 475 1058 l 475 896 m 965 1139 q 1365 792 1140 940 l 1306 639 q 1169 733 1219 694 l 1169 660 l 629 660 l 629 738 q 489 621 556 671 l 410 764 q 778 1139 621 919 l 965 1139 z "},"理":{"ha":1389,"x_min":44,"x_max":1329,"o":"m 618 832 l 782 832 l 782 963 l 618 963 l 618 832 m 451 896 l 350 896 l 350 657 l 451 657 l 451 896 m 782 572 l 782 708 l 618 708 l 618 572 l 782 572 m 963 572 l 1122 572 l 1122 708 l 963 708 l 963 572 m 350 225 q 447 256 408 242 l 447 319 l 782 319 l 782 435 l 618 435 l 451 435 l 451 500 l 350 500 l 350 225 m 174 176 l 174 500 l 65 500 l 65 657 l 174 657 l 174 896 l 51 896 l 51 1058 l 451 1058 l 451 1107 l 1292 1107 l 1292 435 l 963 435 l 963 319 l 1310 319 l 1310 181 l 963 181 l 963 56 l 1329 56 l 1329 -93 l 379 -93 l 379 56 l 782 56 l 782 181 l 472 181 l 479 110 q 61 -10 303 44 l 44 147 q 174 176 117 163 m 963 832 l 1122 832 l 1122 963 l 963 963 l 963 832 z "},"琢":{"ha":1389,"x_min":44,"x_max":1368,"o":"m 463 896 l 351 896 l 351 632 l 454 632 l 454 475 l 351 475 l 351 201 q 489 260 393 218 l 492 147 q 825 404 692 257 q 800 503 814 457 q 515 293 678 382 l 440 440 q 743 642 619 526 q 696 721 719 686 q 501 596 601 649 l 426 743 q 718 940 601 825 l 496 940 l 496 1093 l 1333 1093 l 1333 940 l 1114 940 q 1150 658 1124 794 q 1251 813 1203 731 l 1357 690 q 1199 461 1278 556 q 1368 90 1263 253 l 1257 -72 q 1054 365 1142 83 q 943 940 967 646 l 908 940 q 825 836 858 871 q 963 546 913 715 q 1014 199 1014 376 q 999 -6 1014 64 q 956 -98 985 -75 q 871 -121 926 -121 q 671 -114 781 -121 l 663 39 q 778 32 726 32 q 809 34 800 32 q 827 42 818 36 q 838 69 836 47 q 842 117 840 92 q 843 199 843 143 l 843 214 q 483 -51 688 56 l 419 69 q 63 -56 231 -10 l 44 101 q 176 140 75 110 l 176 475 l 65 475 l 65 632 l 176 632 l 176 896 l 51 896 l 51 1058 l 463 1058 l 463 896 z "},"琴":{"ha":1389,"x_min":28,"x_max":1361,"o":"m 864 456 q 694 535 772 494 q 525 456 617 494 l 864 456 m 1104 731 l 1313 731 l 1313 601 l 874 601 q 1361 449 1083 518 l 1315 299 q 1024 393 1169 340 l 1024 333 l 365 333 l 365 393 q 74 299 219 340 l 28 449 q 500 596 281 510 q 83 542 306 564 l 72 671 q 285 694 151 678 l 285 790 l 118 790 l 118 907 l 285 907 l 285 964 l 97 964 l 97 1100 l 667 1100 l 667 964 l 465 964 l 465 907 l 646 907 l 646 790 l 465 790 l 465 717 q 667 747 564 729 l 667 633 l 722 633 l 722 731 l 924 731 l 924 790 l 743 790 l 743 907 l 924 907 l 924 964 l 722 964 l 722 1100 l 1292 1100 l 1292 964 l 1104 964 l 1104 907 l 1271 907 l 1271 790 l 1104 790 l 1104 731 m 204 135 l 204 278 l 1181 278 l 1181 135 q 871 -160 1043 -19 l 697 -86 q 943 135 838 25 l 204 135 z "},"瑞":{"ha":1389,"x_min":39,"x_max":1338,"o":"m 442 233 l 447 76 q 56 -32 247 8 l 39 125 q 164 153 126 143 l 164 496 l 56 496 l 56 653 l 164 653 l 164 910 l 46 910 l 46 1072 l 444 1072 l 444 910 l 340 910 l 340 653 l 435 653 l 435 496 l 340 496 l 340 201 q 387 215 350 204 q 442 233 424 226 m 1308 1090 l 1308 732 l 493 732 l 493 1090 l 660 1090 l 660 871 l 813 871 l 813 1139 l 989 1139 l 989 871 l 1142 871 l 1142 1090 l 1308 1090 m 463 517 l 463 664 l 1338 664 l 1338 517 l 979 517 q 961 440 969 469 l 1319 440 l 1319 -10 q 1292 -101 1319 -81 q 1174 -122 1265 -122 q 1074 -121 1117 -122 l 1074 -87 l 935 -87 l 935 303 l 863 303 l 863 -87 l 719 -87 l 719 303 l 647 303 l 647 -125 l 482 -125 l 482 440 l 775 440 q 794 517 789 490 l 463 517 m 1150 58 l 1150 303 l 1078 303 l 1078 32 q 1125 31 1101 31 q 1147 35 1143 31 q 1150 58 1150 39 z "},"瑠":{"ha":1389,"x_min":40,"x_max":1344,"o":"m 1056 679 q 1125 676 1089 676 q 1146 683 1139 676 q 1159 716 1153 689 q 1168 795 1165 743 q 1174 940 1171 847 l 1104 940 q 1056 679 1096 799 m 668 263 l 811 263 l 811 344 l 668 344 l 668 263 m 668 146 l 668 63 l 811 63 l 811 146 l 668 146 m 1119 263 l 1119 344 l 976 344 l 976 263 l 1119 263 m 1119 146 l 976 146 l 976 63 l 1119 63 l 1119 146 m 871 996 q 629 928 732 949 l 638 696 q 729 731 699 718 q 685 868 708 800 l 826 917 q 894 704 863 818 q 951 940 942 800 l 882 940 l 882 1093 l 1344 1093 q 1340 914 1342 986 q 1333 777 1338 842 q 1323 675 1328 713 q 1307 606 1318 638 q 1285 561 1296 575 q 1255 538 1275 547 q 1216 526 1235 528 q 1167 524 1197 524 q 1058 528 1113 524 l 1049 657 q 933 472 1004 542 l 1119 472 l 1296 472 l 1296 -122 l 1115 -122 l 1115 -72 l 671 -72 l 671 -122 l 490 -122 l 490 472 l 913 472 l 851 558 l 782 532 q 768 592 769 589 q 424 475 588 515 l 419 513 l 336 513 l 336 197 q 451 233 376 208 l 458 79 q 58 -32 265 11 l 40 125 q 160 151 83 133 l 160 513 l 56 513 l 56 669 l 160 669 l 160 910 l 46 910 l 46 1072 l 426 1072 l 426 910 l 336 910 l 336 669 l 421 669 l 421 629 q 445 636 429 632 q 469 642 461 640 l 456 1053 q 826 1149 631 1083 l 871 996 z "},"生":{"ha":1389,"x_min":51,"x_max":1306,"o":"m 622 1132 l 813 1132 l 813 926 l 1260 926 l 1260 768 l 813 768 l 813 525 l 1190 525 l 1190 372 l 813 372 l 813 67 l 1306 67 l 1306 -90 l 83 -90 l 83 67 l 622 67 l 622 372 l 274 372 l 274 525 l 622 525 l 622 768 l 342 768 q 213 457 289 610 l 51 535 q 250 1107 182 804 l 424 1078 q 389 926 408 996 l 622 926 l 622 1132 z "},"田":{"ha":1389,"x_min":111,"x_max":1278,"o":"m 785 125 l 1093 125 l 1093 458 l 785 458 l 785 125 m 296 458 l 296 125 l 604 125 l 604 458 l 296 458 m 604 917 l 296 917 l 296 607 l 604 607 l 604 917 m 785 917 l 785 607 l 1093 607 l 1093 917 l 785 917 m 111 1069 l 1278 1069 l 1278 -101 l 1093 -101 l 1093 -24 l 296 -24 l 296 -101 l 111 -101 l 111 1069 z "},"由":{"ha":1389,"x_min":114,"x_max":1275,"o":"m 785 754 l 785 510 l 1090 510 l 1090 754 l 785 754 m 299 510 l 604 510 l 604 754 l 299 754 l 299 510 m 604 907 l 604 1153 l 785 1153 l 785 907 l 1275 907 l 1275 -129 l 1090 -129 l 1090 -51 l 299 -51 l 299 -129 l 114 -129 l 114 907 l 604 907 m 604 97 l 604 361 l 299 361 l 299 97 l 604 97 m 785 97 l 1090 97 l 1090 361 l 785 361 l 785 97 z "},"畑":{"ha":1389,"x_min":28,"x_max":1303,"o":"m 874 604 l 874 940 l 782 940 l 782 604 l 874 604 m 874 456 l 782 456 l 782 97 l 874 97 l 874 456 m 1031 604 l 1122 604 l 1122 940 l 1031 940 l 1031 604 m 1031 456 l 1031 97 l 1122 97 l 1122 456 l 1031 456 m 414 425 q 611 97 521 260 l 611 729 q 514 446 572 585 l 425 489 q 414 425 422 467 m 269 1115 l 447 1115 l 447 801 q 442 639 447 707 q 525 944 490 779 l 611 921 l 611 1093 l 1303 1093 l 1303 -115 l 1122 -115 l 1122 -51 l 782 -51 l 782 -115 l 611 -115 l 611 14 l 517 -51 q 361 222 431 111 q 147 -119 285 6 l 28 17 q 269 801 269 254 l 269 1115 m 40 467 q 81 929 81 671 l 219 917 q 175 424 219 638 l 40 467 z "},"留":{"ha":1389,"x_min":43,"x_max":1296,"o":"m 607 139 l 347 139 l 347 56 l 607 56 l 607 139 m 782 139 l 782 56 l 1042 56 l 1042 139 l 782 139 m 607 256 l 607 338 l 347 338 l 347 256 l 607 256 m 782 256 l 1042 256 l 1042 338 l 782 338 l 782 256 m 1025 669 q 1073 685 1058 669 q 1097 755 1088 700 q 1111 933 1106 810 l 975 933 q 739 465 946 615 l 1222 465 l 1222 -129 l 1042 -129 l 1042 -79 l 347 -79 l 347 -129 l 167 -129 l 167 465 l 713 465 l 661 544 l 567 510 q 557 534 563 521 q 544 563 551 547 q 532 590 536 579 q 68 469 303 515 l 43 618 q 136 636 104 629 l 121 1046 q 624 1142 367 1078 l 658 989 q 306 914 493 944 l 315 678 q 471 721 433 710 q 410 844 444 776 l 560 897 q 685 640 629 768 q 811 933 793 749 l 683 933 l 683 1086 l 1296 1086 q 1288 858 1292 943 q 1272 702 1283 772 q 1249 600 1261 632 q 1210 547 1238 568 q 1153 521 1182 525 q 1072 517 1124 517 q 932 521 1007 517 l 919 674 q 1025 669 990 669 z "},"畠":{"ha":1389,"x_min":108,"x_max":1281,"o":"m 375 835 l 1014 835 l 1014 907 l 375 907 l 375 835 m 375 650 l 1014 650 l 1014 725 l 375 725 l 375 650 m 375 528 l 190 528 l 190 1046 l 556 1046 q 590 1168 575 1100 l 779 1151 q 750 1046 767 1097 l 1199 1046 l 1199 528 l 375 528 m 785 243 l 1094 243 l 1094 329 l 785 329 l 785 243 m 785 132 l 785 44 l 1094 44 l 1094 132 l 785 132 m 294 132 l 294 44 l 604 44 l 604 132 l 294 132 m 294 243 l 604 243 l 604 329 l 294 329 l 294 243 m 294 -83 l 294 -135 l 108 -135 l 108 463 l 1281 463 l 1281 -135 l 1094 -135 l 1094 -83 l 294 -83 z "},"登":{"ha":1389,"x_min":40,"x_max":1349,"o":"m 426 294 l 963 294 l 963 400 l 426 400 l 426 294 m 244 531 l 1144 531 q 944 676 1039 597 l 944 600 l 444 600 l 444 676 q 244 531 350 597 m 782 44 q 851 171 824 111 l 539 171 q 583 44 569 88 l 782 44 m 694 947 q 522 747 625 847 l 867 747 q 694 947 764 847 m 254 963 l 254 1108 l 782 1108 q 875 968 824 1031 q 989 1115 946 1051 l 1124 1033 q 981 853 1056 935 q 1060 786 1018 819 q 1193 956 1133 868 l 1326 874 q 1188 697 1267 785 q 1349 606 1288 636 l 1283 451 q 1149 528 1203 493 l 1149 171 l 1042 171 q 978 44 1018 114 l 1319 44 l 1319 -107 l 69 -107 l 69 44 l 394 44 q 347 171 381 88 l 240 171 l 240 528 q 106 451 186 493 l 40 606 q 246 722 153 664 q 82 872 183 782 l 201 985 q 382 819 300 897 q 526 963 475 897 l 254 963 z "},"白":{"ha":1389,"x_min":139,"x_max":1250,"o":"m 324 118 l 1065 118 l 1065 406 l 324 406 l 324 118 m 593 1165 l 782 1144 q 733 975 764 1063 l 1250 975 l 1250 -108 l 1065 -108 l 1065 -31 l 324 -31 l 324 -108 l 139 -108 l 139 975 l 538 975 q 593 1165 569 1065 m 1065 553 l 1065 822 l 324 822 l 324 553 l 1065 553 z "},"皓":{"ha":1389,"x_min":81,"x_max":1347,"o":"m 247 -3 l 247 -104 l 81 -104 l 81 963 l 207 963 q 253 1154 235 1056 l 426 1133 q 386 963 411 1049 l 531 963 l 531 -3 l 247 -3 m 247 407 l 247 146 l 372 146 l 372 407 l 247 407 m 247 556 l 372 556 l 372 810 l 247 810 l 247 556 m 778 -51 l 778 -115 l 601 -115 l 601 413 l 1303 413 l 1303 -115 l 1122 -115 l 1122 -51 l 778 -51 m 1069 649 l 1347 649 l 1347 496 l 563 496 l 563 649 l 889 649 l 889 838 l 757 838 q 701 681 736 769 l 542 726 q 663 1135 621 919 l 819 1104 q 796 986 811 1057 l 889 986 l 889 1128 l 1069 1128 l 1069 986 l 1322 986 l 1322 838 l 1069 838 l 1069 649 m 1122 90 l 1122 268 l 778 268 l 778 90 l 1122 90 z "},"直":{"ha":1389,"x_min":83,"x_max":1306,"o":"m 601 519 l 601 449 l 1018 449 l 1018 519 l 601 519 m 601 632 l 1018 632 l 1018 700 l 601 700 l 601 632 m 83 907 l 83 1053 l 678 1053 q 692 1163 683 1088 l 878 1157 q 870 1102 875 1138 q 864 1053 865 1067 l 1306 1053 l 1306 907 l 840 907 q 833 872 838 894 q 828 838 829 849 l 1204 838 l 1204 139 l 601 139 l 421 139 l 421 838 l 640 838 q 653 907 644 860 l 83 907 m 1018 264 l 1018 336 l 601 336 l 601 264 l 1018 264 m 322 792 l 322 81 l 1306 81 l 1306 -65 l 322 -65 l 322 -129 l 139 -129 l 139 792 l 322 792 z "},"真":{"ha":1389,"x_min":56,"x_max":1333,"o":"m 372 475 l 372 428 l 1017 428 l 1017 475 l 372 475 m 372 615 l 372 568 l 1017 568 l 1017 615 l 372 615 m 372 708 l 1017 708 l 1017 756 l 372 756 l 372 708 m 372 317 l 188 317 l 188 864 l 594 864 l 594 910 l 83 910 l 83 1060 l 594 1060 l 594 1143 l 785 1143 l 785 1060 l 1306 1060 l 1306 910 l 785 910 l 785 864 l 1201 864 l 1201 317 l 372 317 m 56 128 l 56 272 l 1333 272 l 1333 128 l 947 128 q 1313 -11 1172 58 l 1236 -147 q 781 36 1056 -54 l 825 128 l 558 128 l 610 49 q 406 -55 532 -4 q 140 -139 281 -106 l 78 3 q 453 128 297 57 l 56 128 z "},"矢":{"ha":1389,"x_min":85,"x_max":1303,"o":"m 614 625 l 614 885 l 418 885 q 243 625 346 746 l 614 625 m 93 468 l 93 625 l 208 625 l 85 710 q 343 1168 261 913 l 518 1128 q 488 1038 503 1078 l 1213 1038 l 1213 885 l 803 885 l 803 625 l 1296 625 l 1296 468 l 825 468 q 1303 32 908 182 l 1217 -115 q 918 59 1050 -54 q 713 314 786 172 q 490 60 631 174 q 172 -115 349 -53 l 86 32 q 589 468 496 186 l 93 468 z "},"知":{"ha":1389,"x_min":49,"x_max":1308,"o":"m 907 132 l 1132 132 l 1132 900 l 907 900 l 907 132 m 518 482 q 507 425 515 458 q 736 68 647 218 l 736 482 l 518 482 m 67 482 l 67 639 l 350 639 l 350 879 l 282 879 q 196 664 244 765 l 49 725 q 188 1168 142 925 l 344 1143 q 322 1032 339 1101 l 683 1032 l 683 879 l 531 879 l 531 639 l 736 639 l 736 1058 l 1308 1058 l 1308 -100 l 1132 -100 l 1132 -21 l 907 -21 l 907 -100 l 736 -100 l 736 64 l 600 -32 q 444 231 517 114 q 169 -115 342 -3 l 63 26 q 339 482 292 193 l 67 482 z "},"石":{"ha":1389,"x_min":31,"x_max":1301,"o":"m 539 101 l 1060 101 l 1060 435 l 539 435 l 539 101 m 88 907 l 88 1065 l 1301 1065 l 1301 907 l 678 907 q 560 593 636 739 l 1246 593 l 1246 -115 l 1060 -115 l 1060 -51 l 539 -51 l 539 -115 l 357 -115 l 357 329 q 128 117 249 200 l 31 268 q 321 547 208 392 q 489 907 433 703 l 88 907 z "},"磨":{"ha":1389,"x_min":21,"x_max":1338,"o":"m 422 721 l 317 721 l 317 844 l 458 844 l 458 907 l 285 907 l 285 593 q 422 721 367 653 m 618 131 l 618 39 l 1086 39 l 1086 131 l 618 131 m 310 311 l 310 440 l 1326 440 l 1326 311 l 678 311 q 638 250 653 269 l 1275 250 l 1275 -136 l 1086 -136 l 1086 -81 l 618 -81 l 618 -136 l 438 -136 l 438 71 q 296 -44 372 -1 l 240 88 q 153 -136 211 -36 l 21 21 q 90 260 71 129 q 108 653 108 390 l 108 1053 l 622 1053 l 622 1163 l 813 1163 l 813 1053 l 1326 1053 l 1326 907 l 1115 907 l 1115 844 l 1299 844 l 1299 721 l 1169 721 q 1338 578 1239 644 l 1257 469 q 1115 601 1179 528 l 1115 469 l 954 469 l 954 603 q 788 461 883 525 l 719 571 q 919 721 849 643 l 801 721 l 801 844 l 954 844 l 954 907 l 619 907 l 619 844 l 768 844 l 768 721 l 664 721 q 758 636 682 707 l 678 540 l 619 603 l 619 469 l 458 469 l 458 589 q 347 469 407 519 l 285 560 l 285 518 q 253 140 285 300 q 476 311 392 207 l 310 311 z "},"祐":{"ha":1389,"x_min":14,"x_max":1340,"o":"m 718 831 l 489 831 l 489 764 q 410 554 460 650 q 531 404 461 494 q 718 831 656 586 m 828 565 l 1310 565 l 1310 -129 l 1129 -129 l 1129 -65 l 788 -65 l 788 -129 l 611 -129 l 611 218 q 489 81 542 128 l 397 244 q 428 276 408 254 q 354 374 390 329 l 354 -129 l 178 -129 l 178 279 q 60 185 115 221 l 14 372 q 314 764 236 525 l 49 764 l 49 926 l 178 926 l 178 1129 l 354 1129 l 354 926 l 479 926 l 479 989 l 751 989 q 774 1149 768 1089 l 958 1139 q 939 989 953 1072 l 1340 989 l 1340 831 l 908 831 q 828 565 879 700 m 788 413 l 788 83 l 1129 83 l 1129 413 l 788 413 z "},"神":{"ha":1389,"x_min":14,"x_max":1347,"o":"m 1043 338 l 1174 338 l 1174 511 l 1043 511 l 1043 338 m 728 511 l 728 338 l 860 338 l 860 511 l 728 511 m 860 824 l 728 824 l 728 660 l 860 660 l 860 824 m 1043 824 l 1043 660 l 1174 660 l 1174 824 l 1043 824 m 368 926 l 507 926 l 507 764 q 411 549 467 647 q 558 369 511 432 l 558 976 l 860 976 l 860 1129 l 1043 1129 l 1043 976 l 1347 976 l 1347 111 l 1174 111 l 1174 190 l 1043 190 l 1043 -129 l 860 -129 l 860 190 l 728 190 l 728 111 l 558 111 l 558 283 l 479 213 q 368 363 414 304 l 368 -129 l 190 -129 l 190 290 q 60 185 126 228 l 14 372 q 331 764 236 522 l 49 764 l 49 926 l 190 926 l 190 1129 l 368 1129 l 368 926 z "},"福":{"ha":1389,"x_min":14,"x_max":1333,"o":"m 750 667 l 1086 667 l 1086 767 l 750 767 l 750 667 m 750 549 l 565 549 l 565 893 l 1275 893 l 1275 549 l 750 549 m 999 264 l 1135 264 l 1135 354 l 999 354 l 999 264 m 999 150 l 999 57 l 1135 57 l 1135 150 l 999 150 m 701 150 l 701 57 l 835 57 l 835 150 l 701 150 m 701 264 l 835 264 l 835 354 l 701 354 l 701 264 m 517 950 l 517 1100 l 1333 1100 l 1333 950 l 517 950 m 356 926 l 489 926 l 489 764 q 399 532 457 642 q 521 379 440 483 l 521 493 l 1319 493 l 1319 -122 l 1135 -122 l 1135 -72 l 701 -72 l 701 -122 l 521 -122 l 521 288 l 447 222 q 421 258 436 239 q 386 303 406 278 q 356 344 367 329 l 356 -129 l 176 -129 l 176 276 q 60 185 114 218 l 14 372 q 314 764 236 525 l 49 764 l 49 926 l 176 926 l 176 1129 l 356 1129 l 356 926 z "},"秀":{"ha":1389,"x_min":36,"x_max":1353,"o":"m 382 507 l 600 507 l 600 650 q 382 507 497 569 m 163 1065 q 1203 1128 808 1065 l 1236 989 q 789 940 1022 956 l 789 838 l 1310 838 l 1310 699 l 946 699 q 1353 522 1115 594 l 1300 385 q 789 651 985 500 l 789 507 l 997 507 q 963 365 989 469 l 1236 365 q 1224 158 1233 238 q 1198 22 1215 78 q 1147 -60 1181 -33 q 1071 -98 1114 -87 q 958 -108 1028 -108 q 682 -94 875 -108 l 669 58 q 921 44 847 44 q 1015 81 989 44 q 1050 236 1042 117 l 926 236 q 896 138 921 215 l 719 150 q 789 371 757 256 l 636 371 q 206 -129 583 22 l 96 4 q 351 153 264 68 q 468 371 438 239 l 267 371 l 267 447 q 94 375 192 413 l 36 522 q 444 699 278 593 l 79 699 l 79 838 l 600 838 l 600 931 q 171 921 367 921 l 163 1065 z "},"稀":{"ha":1389,"x_min":28,"x_max":1340,"o":"m 613 549 l 469 549 l 469 621 l 379 621 q 507 389 457 482 q 613 549 563 456 m 743 440 l 846 440 l 846 549 l 804 549 q 743 440 779 497 m 1011 440 l 1313 440 l 1313 135 q 1291 -29 1313 0 q 1171 -58 1269 -58 q 1051 -51 1136 -58 l 1046 100 q 1113 93 1094 93 q 1133 98 1129 93 q 1136 128 1136 103 l 1136 292 l 1011 292 l 1011 -129 l 833 -129 l 833 292 l 719 292 l 719 -74 l 549 -74 l 549 200 q 456 96 494 129 l 385 263 q 403 279 392 268 q 382 326 396 294 q 361 372 368 357 l 361 -129 l 194 -129 l 194 257 q 106 63 160 150 l 28 239 q 193 621 150 439 l 60 621 l 60 774 l 194 774 l 194 924 q 83 911 92 911 l 68 1056 q 479 1135 275 1072 l 524 1000 q 361 951 451 971 l 361 774 l 493 774 l 493 701 l 681 701 q 703 774 690 731 q 531 740 617 753 l 483 885 q 751 946 619 906 q 560 1014 667 981 l 649 1139 q 956 1022 801 1090 q 1199 1163 1085 1079 l 1296 1042 q 1133 939 1217 985 q 1319 840 1215 899 l 1229 713 q 958 856 1046 814 q 763 789 853 814 l 886 782 q 865 701 878 742 l 1340 701 l 1340 549 l 1011 549 l 1011 440 z "}}}
